<svg width="25" height="24" viewBox="0 0 25 24" fill="none" xmlns="http://www.w3.org/2000/svg">
<g clip-path="url(#clip0_226_163968)">
<path d="M17.705 3.32498C18.345 4.10998 18.025 5.42998 16.99 6.27498C15.955 7.11998 14.6 7.15998 13.96 6.37498C13.32 5.58998 13.64 4.26998 14.675 3.42998C15.71 2.58998 17.07 2.53998 17.705 3.32498Z" fill="#FFF48C"/>
<path d="M14.675 4.2C15.71 3.36 17.07 3.31 17.705 4.1C17.8493 4.27201 17.9504 4.47601 18 4.695C18.0583 4.45957 18.0625 4.21399 18.0123 3.9767C17.9621 3.73942 17.8587 3.5166 17.71 3.325C17.075 2.54 15.71 2.585 14.68 3.43C14.3175 3.69565 14.0332 4.05411 13.8573 4.46767C13.6813 4.88122 13.62 5.33457 13.68 5.78C13.823 5.15578 14.1738 4.59866 14.675 4.2Z" fill="#FFFACF"/>
<path d="M17.705 3.32498C18.345 4.10998 18.025 5.42998 16.99 6.27498C15.955 7.11998 14.6 7.15998 13.96 6.37498C13.32 5.58998 13.64 4.26998 14.675 3.42998C15.71 2.58998 17.07 2.53998 17.705 3.32498Z" stroke="#45413C" stroke-width="0.5" stroke-linecap="round" stroke-linejoin="round"/>
<path d="M24.25 10.865C24.25 13.03 23.25 14.79 22 14.79C20.75 14.79 17.25 13.03 17.25 10.865C17.25 8.7 20.75 6.935 22 6.935C23.25 6.935 24.25 8.695 24.25 10.865Z" fill="#FFF48C"/>
<path d="M22 8.28C23.11 8.28 24.035 9.685 24.215 11.535C24.2393 11.3125 24.2509 11.0888 24.25 10.865C24.25 8.695 23.25 6.935 22 6.935C20.75 6.935 17.25 8.695 17.25 10.865C17.2519 11.0927 17.289 11.3187 17.36 11.535C17.965 9.685 20.89 8.28 22 8.28Z" fill="#FFFACF"/>
<path d="M24.25 10.865C24.25 13.03 23.25 14.79 22 14.79C20.75 14.79 17.25 13.03 17.25 10.865C17.25 8.7 20.75 6.935 22 6.935C23.25 6.935 24.25 8.695 24.25 10.865Z" stroke="#45413C" stroke-width="0.5" stroke-linecap="round" stroke-linejoin="round"/>
<path opacity="0.15" d="M3.64001 22.75C3.64001 22.9489 4.50921 23.1397 6.05638 23.2803C7.60356 23.421 9.70198 23.5 11.89 23.5C14.0781 23.5 16.1765 23.421 17.7236 23.2803C19.2708 23.1397 20.14 22.9489 20.14 22.75C20.14 22.5511 19.2708 22.3603 17.7236 22.2197C16.1765 22.079 14.0781 22 11.89 22C9.70198 22 7.60356 22.079 6.05638 22.2197C4.50921 22.3603 3.64001 22.5511 3.64001 22.75Z" fill="#45413C"/>
<path d="M18.82 8.85998C18.82 6.57998 15.69 3.92498 10.885 3.85998C6.39501 3.75498 2.5 7.22998 2.46 11.72C2.38 17.42 8.265 21.775 14.275 18.945C15.4298 18.4318 16.4253 17.6175 17.1572 16.5874C17.8891 15.5573 18.3304 14.3493 18.435 13.09C18.525 11.87 18.2 10.715 18.675 9.58998C18.7726 9.35907 18.8219 9.11065 18.82 8.85998Z" fill="#DEBB7E"/>
<path d="M10.885 5.24498C15.16 5.31998 18.11 7.42998 18.705 9.50498C18.7815 9.29857 18.8205 9.08012 18.82 8.85998C18.82 6.57998 15.69 3.92498 10.885 3.85998C6.39502 3.75498 2.50002 7.22998 2.46002 11.72C2.45826 11.9938 2.47162 12.2676 2.50002 12.54C2.86502 8.33498 6.59002 5.16498 10.885 5.24498Z" fill="#F0D5A8"/>
<path d="M18.425 13.185C18.4272 13.1534 18.4272 13.1217 18.425 13.09C18.4475 12.7154 18.4475 12.3397 18.425 11.965C18.3974 12.3712 18.3974 12.7788 18.425 13.185Z" fill="#F0D5A8"/>
<path d="M18.82 8.85998C18.82 6.57998 15.69 3.92498 10.885 3.85998C6.39501 3.75498 2.5 7.22998 2.46 11.72C2.38 17.42 8.265 21.775 14.275 18.945C15.4298 18.4318 16.4253 17.6175 17.1572 16.5874C17.8891 15.5573 18.3304 14.3493 18.435 13.09C18.525 11.87 18.2 10.715 18.675 9.58998C18.7726 9.35907 18.8219 9.11065 18.82 8.85998Z" stroke="#45413C" stroke-width="0.5" stroke-linecap="round" stroke-linejoin="round"/>
<path d="M5.92001 7.72998C5.92001 7.8785 5.97901 8.02094 6.08403 8.12596C6.18905 8.23098 6.33149 8.28998 6.48001 8.28998C6.62853 8.28998 6.77097 8.23098 6.87599 8.12596C6.98101 8.02094 7.04001 7.8785 7.04001 7.72998C7.04001 7.58146 6.98101 7.43902 6.87599 7.334C6.77097 7.22898 6.62853 7.16998 6.48001 7.16998C6.33149 7.16998 6.18905 7.22898 6.08403 7.334C5.97901 7.43902 5.92001 7.58146 5.92001 7.72998Z" fill="#45413C" stroke="#45413C" stroke-width="0.5" stroke-linecap="round" stroke-linejoin="round"/>
<path d="M18.435 13.09C18.5 12.245 18.17 11.365 18.435 10.59C15.2 9.72001 12.22 9.97501 9.76002 10.32C8.21002 8.95501 5.55002 9.50001 4.93002 11.62C3.54002 11.87 3.16002 12.685 2.61002 13.395C3.56502 18.225 8.87002 21.5 14.275 18.945C15.4301 18.4323 16.4259 17.6181 17.1578 16.5879C17.8898 15.5577 18.331 14.3495 18.435 13.09Z" fill="#FFF5E3" stroke="#45413C" stroke-width="0.5" stroke-linecap="round" stroke-linejoin="round"/>
<path d="M2.14502 13.735C1.87712 13.7166 1.6262 13.5971 1.44295 13.4009C1.2597 13.2046 1.15778 12.946 1.15778 12.6775C1.15778 12.409 1.2597 12.1504 1.44295 11.9542C1.6262 11.7579 1.87712 11.6384 2.14502 11.62C1.87712 11.6016 1.6262 11.4821 1.44295 11.2859C1.2597 11.0896 1.15778 10.831 1.15778 10.5625C1.15778 10.294 1.2597 10.0354 1.44295 9.83915C1.6262 9.64286 1.87712 9.52344 2.14502 9.505H2.81502C3.37595 9.505 3.91391 9.72783 4.31055 10.1245C4.70719 10.5211 4.93002 11.0591 4.93002 11.62C4.93002 12.1809 4.70719 12.7189 4.31055 13.1155C3.91391 13.5122 3.37595 13.735 2.81502 13.735H2.14502Z" fill="#F0C2A1"/>
<path d="M2.14501 10.46H2.81501C3.29253 10.46 3.75602 10.6215 4.13005 10.9184C4.50408 11.2153 4.76664 11.63 4.87501 12.095C4.91609 11.9316 4.93459 11.7634 4.93001 11.595C4.92474 11.0376 4.69959 10.5047 4.30352 10.1124C3.90745 9.72007 3.3725 9.49999 2.81501 9.50001H2.14501C2.00628 9.49935 1.8688 9.52619 1.7405 9.57897C1.6122 9.63175 1.49564 9.70944 1.39754 9.80754C1.29944 9.90564 1.22175 10.0222 1.16897 10.1505C1.11619 10.2788 1.08935 10.4163 1.09001 10.555C1.08646 10.728 1.12417 10.8994 1.20001 11.055C1.28655 10.8777 1.42085 10.7281 1.58781 10.623C1.75476 10.5179 1.94773 10.4614 2.14501 10.46Z" fill="#FFE3CF"/>
<path d="M2.14502 13.735C1.87712 13.7166 1.6262 13.5971 1.44295 13.4009C1.2597 13.2046 1.15778 12.946 1.15778 12.6775C1.15778 12.409 1.2597 12.1504 1.44295 11.9542C1.6262 11.7579 1.87712 11.6384 2.14502 11.62C1.87712 11.6016 1.6262 11.4821 1.44295 11.2859C1.2597 11.0896 1.15778 10.831 1.15778 10.5625C1.15778 10.294 1.2597 10.0354 1.44295 9.83915C1.6262 9.64286 1.87712 9.52344 2.14502 9.505H2.81502C3.37595 9.505 3.91391 9.72783 4.31055 10.1245C4.70719 10.5211 4.93002 11.0591 4.93002 11.62C4.93002 12.1809 4.70719 12.7189 4.31055 13.1155C3.91391 13.5122 3.37595 13.735 2.81502 13.735H2.14502Z" stroke="#45413C" stroke-width="0.5" stroke-linecap="round" stroke-linejoin="round"/>
<path d="M2.14502 11.62H3.36002" stroke="#45413C" stroke-width="0.5" stroke-linecap="round" stroke-linejoin="round"/>
<path d="M9.96002 10.365C9.96002 11.135 11.535 11.76 11.805 11.76C12.075 11.76 12.575 11.135 12.575 10.365C12.575 9.59497 12.075 8.96997 11.805 8.96997C11.535 8.96997 9.96002 9.59497 9.96002 10.365Z" fill="#FFF48C" stroke="#45413C" stroke-width="0.5" stroke-linecap="round" stroke-linejoin="round"/>
<path d="M3.65501 16.04L3.01001 16.705" stroke="#45413C" stroke-width="0.5" stroke-linecap="round" stroke-linejoin="round"/>
<path d="M6.71002 18.9L6.27002 19.83" stroke="#45413C" stroke-width="0.5" stroke-linecap="round" stroke-linejoin="round"/>
<path d="M11.89 19.705L12.02 20.705" stroke="#45413C" stroke-width="0.5" stroke-linecap="round" stroke-linejoin="round"/>
<path d="M16.435 17.43L17.25 18.175" stroke="#45413C" stroke-width="0.5" stroke-linecap="round" stroke-linejoin="round"/>
<path d="M17.92 15.25L18.975 15.645" stroke="#45413C" stroke-width="0.5" stroke-linecap="round" stroke-linejoin="round"/>
<path d="M4.42 6.67002L3.655 6.08002" stroke="#45413C" stroke-width="0.5" stroke-linecap="round" stroke-linejoin="round"/>
<path d="M8.81002 4.05502L8.64502 3.02002" stroke="#45413C" stroke-width="0.5" stroke-linecap="round" stroke-linejoin="round"/>
<path d="M12.895 4.02502L13.085 3.02002" stroke="#45413C" stroke-width="0.5" stroke-linecap="round" stroke-linejoin="round"/>
<path d="M18.49 10.185L22 9.57001" stroke="#45413C" stroke-width="0.5" stroke-linecap="round" stroke-linejoin="round"/>
<path d="M18.745 11.37L21.81 12.205" stroke="#45413C" stroke-width="0.5" stroke-linecap="round" stroke-linejoin="round"/>
<path d="M7.04001 11.165C7.04001 11.3228 7.1027 11.4742 7.21428 11.5857C7.32586 11.6973 7.4772 11.76 7.63501 11.76C7.79281 11.76 7.94415 11.6973 8.05574 11.5857C8.16732 11.4742 8.23001 11.3228 8.23001 11.165C8.23001 11.0072 8.16732 10.8559 8.05574 10.7443C7.94415 10.6327 7.79281 10.57 7.63501 10.57C7.47721 10.57 7.32586 10.6327 7.21428 10.7443C7.1027 10.8559 7.04001 11.0072 7.04001 11.165Z" fill="#FFCCDD"/>
<path d="M15.71 4.96499L16.675 4.05499" stroke="#45413C" stroke-width="0.5" stroke-linecap="round" stroke-linejoin="round"/>
<path d="M9.96002 10.365H11.265" stroke="#45413C" stroke-width="0.5" stroke-linecap="round" stroke-linejoin="round"/>
</g>
<defs>
<clipPath id="clip0_226_163968">
<rect width="24" height="24" fill="white" transform="translate(0.5)"/>
</clipPath>
</defs>
</svg>
