<svg width="25" height="24" viewBox="0 0 25 24" fill="none" xmlns="http://www.w3.org/2000/svg">
<g clip-path="url(#clip0_226_26765)">
<path d="M0.994995 6.985C0.994995 8.2408 1.49386 9.44517 2.38184 10.3332C3.26983 11.2211 4.4742 11.72 5.73 11.72C6.9858 11.72 8.19016 11.2211 9.07815 10.3332C9.96613 9.44517 10.465 8.2408 10.465 6.985C10.465 5.7292 9.96613 4.52483 9.07815 3.63685C8.19016 2.74886 6.9858 2.25 5.73 2.25C4.4742 2.25 3.26983 2.74886 2.38184 3.63685C1.49386 4.52483 0.994995 5.7292 0.994995 6.985Z" fill="#F0F0F0"/>
<path d="M14.025 6.985C14.025 8.2408 14.5239 9.44517 15.4119 10.3332C16.2999 11.2211 17.5042 11.72 18.76 11.72C20.0158 11.72 21.2202 11.2211 22.1082 10.3332C22.9962 9.44517 23.495 8.2408 23.495 6.985C23.495 5.7292 22.9962 4.52483 22.1082 3.63685C21.2202 2.74886 20.0158 2.25 18.76 2.25C17.5042 2.25 16.2999 2.74886 15.4119 3.63685C14.5239 4.52483 14.025 5.7292 14.025 6.985Z" fill="#F0F0F0"/>
<path d="M5.745 3.67001C6.87722 3.67139 7.97156 4.07801 8.82999 4.81629C9.68841 5.55457 10.2542 6.57574 10.425 7.69501C10.4572 7.46478 10.4722 7.23247 10.47 7.00001C10.43 5.77019 9.9134 4.6041 9.02931 3.74827C8.14522 2.89244 6.96297 2.41394 5.7325 2.41394C4.50202 2.41394 3.31977 2.89244 2.43568 3.74827C1.55159 4.6041 1.03495 5.77019 0.994995 7.00001C0.996962 7.23786 1.01702 7.47521 1.055 7.71001C1.2218 6.58586 1.78736 5.55921 2.64841 4.8175C3.50945 4.07579 4.60854 3.6685 5.745 3.67001Z" fill="white"/>
<path d="M18.745 3.66999C19.8766 3.67154 20.9703 4.07833 21.8279 4.81669C22.6855 5.55504 23.2503 6.57613 23.42 7.69499C23.5292 7.02036 23.4898 6.33002 23.3045 5.67219C23.1193 5.01436 22.7927 4.40491 22.3475 3.88639C21.9023 3.36787 21.3493 2.9528 20.727 2.67016C20.1048 2.38752 19.4284 2.24412 18.745 2.24999C18.1228 2.2513 17.5069 2.37524 16.9326 2.61472C16.3583 2.8542 15.8368 3.20453 15.398 3.64567C14.9592 4.08682 14.6116 4.61013 14.3751 5.18569C14.1387 5.76124 14.018 6.37776 14.02 6.99999C14.0219 7.23784 14.042 7.47519 14.08 7.70999C14.2471 6.59052 14.8093 5.56781 15.665 4.82683C16.5206 4.08584 17.6131 3.67549 18.745 3.66999Z" fill="white"/>
<path d="M0.994995 6.985C0.994995 8.2408 1.49386 9.44517 2.38184 10.3332C3.26983 11.2211 4.4742 11.72 5.73 11.72C6.9858 11.72 8.19016 11.2211 9.07815 10.3332C9.96613 9.44517 10.465 8.2408 10.465 6.985C10.465 5.7292 9.96613 4.52483 9.07815 3.63685C8.19016 2.74886 6.9858 2.25 5.73 2.25C4.4742 2.25 3.26983 2.74886 2.38184 3.63685C1.49386 4.52483 0.994995 5.7292 0.994995 6.985V6.985Z" stroke="#45413C" stroke-width="0.5" stroke-linecap="round" stroke-linejoin="round"/>
<path d="M14.025 6.985C14.025 8.2408 14.5239 9.44517 15.4119 10.3332C16.2999 11.2211 17.5042 11.72 18.76 11.72C20.0158 11.72 21.2202 11.2211 22.1082 10.3332C22.9962 9.44517 23.495 8.2408 23.495 6.985C23.495 5.7292 22.9962 4.52483 22.1082 3.63685C21.2202 2.74886 20.0158 2.25 18.76 2.25C17.5042 2.25 16.2999 2.74886 15.4119 3.63685C14.5239 4.52483 14.025 5.7292 14.025 6.985V6.985Z" stroke="#45413C" stroke-width="0.5" stroke-linecap="round" stroke-linejoin="round"/>
<path d="M2.41501 6.98498C2.41501 7.42032 2.50075 7.85138 2.66735 8.25358C2.83394 8.65577 3.07812 9.02122 3.38595 9.32904C3.69378 9.63687 4.05922 9.88105 4.46141 10.0476C4.86361 10.2142 5.29468 10.3 5.73001 10.3C6.16534 10.3 6.59641 10.2142 6.9986 10.0476C7.4008 9.88105 7.76624 9.63687 8.07407 9.32904C8.38189 9.02122 8.62607 8.65577 8.79267 8.25358C8.95926 7.85138 9.04501 7.42032 9.04501 6.98498C9.04501 6.54965 8.95926 6.11858 8.79267 5.71639C8.62607 5.31419 8.38189 4.94875 8.07407 4.64092C7.76624 4.3331 7.4008 4.08892 6.9986 3.92232C6.59641 3.75573 6.16534 3.66998 5.73001 3.66998C5.29468 3.66998 4.86361 3.75573 4.46141 3.92232C4.05922 4.08892 3.69378 4.3331 3.38595 4.64092C3.07812 4.94875 2.83394 5.31419 2.66735 5.71639C2.50075 6.11858 2.41501 6.54965 2.41501 6.98498Z" fill="#FFB0CA"/>
<path d="M15.445 6.98498C15.445 7.42032 15.5308 7.85138 15.6973 8.25358C15.8639 8.65577 16.1081 9.02122 16.4159 9.32904C16.7238 9.63687 17.0892 9.88105 17.4914 10.0476C17.8936 10.2142 18.3247 10.3 18.76 10.3C19.1953 10.3 19.6264 10.2142 20.0286 10.0476C20.4308 9.88105 20.7962 9.63687 21.1041 9.32904C21.4119 9.02122 21.6561 8.65577 21.8227 8.25358C21.9893 7.85138 22.075 7.42032 22.075 6.98498C22.075 6.54965 21.9893 6.11858 21.8227 5.71639C21.6561 5.31419 21.4119 4.94875 21.1041 4.64092C20.7962 4.3331 20.4308 4.08892 20.0286 3.92232C19.6264 3.75573 19.1953 3.66998 18.76 3.66998C18.3247 3.66998 17.8936 3.75573 17.4914 3.92232C17.0892 4.08892 16.7238 4.3331 16.4159 4.64092C16.1081 4.94875 15.8639 5.31419 15.6973 5.71639C15.5308 6.11858 15.445 6.54965 15.445 6.98498Z" fill="#FFB0CA"/>
<path d="M5.74501 4.79496C6.52439 4.79805 7.27768 5.07607 7.8722 5.58004C8.46672 6.08401 8.86433 6.78161 8.99501 7.54996C9.03023 7.36871 9.04864 7.1846 9.05001 6.99996C9.01671 6.14239 8.65262 5.33103 8.03411 4.73607C7.4156 4.14111 6.59072 3.80878 5.73251 3.80878C4.87429 3.80878 4.04942 4.14111 3.43091 4.73607C2.8124 5.33103 2.44831 6.14239 2.41501 6.99996C2.41636 7.18934 2.43308 7.37829 2.46501 7.56496C2.59525 6.78965 2.99639 6.08571 3.59703 5.57846C4.19768 5.07121 4.95883 4.79357 5.74501 4.79496Z" fill="#FF87AF"/>
<path d="M18.745 4.79501C19.5264 4.79655 20.2822 5.07368 20.8795 5.57761C21.4767 6.08154 21.877 6.77998 22.01 7.55001C22.0419 7.36334 22.0586 7.17438 22.06 6.98501C22.0267 6.12744 21.6626 5.31608 21.0441 4.72112C20.4256 4.12616 19.6007 3.79382 18.7425 3.79382C17.8843 3.79382 17.0594 4.12616 16.4409 4.72112C15.8224 5.31608 15.4583 6.12744 15.425 6.98501C15.4254 7.17465 15.4438 7.36384 15.48 7.55001C15.6111 6.77912 16.0109 6.07954 16.6085 5.57526C17.2062 5.07098 17.963 4.79457 18.745 4.79501Z" fill="#FF87AF"/>
<path d="M2.41501 6.98498C2.41501 7.42032 2.50075 7.85138 2.66735 8.25358C2.83394 8.65577 3.07812 9.02122 3.38595 9.32904C3.69378 9.63687 4.05922 9.88105 4.46141 10.0476C4.86361 10.2142 5.29468 10.3 5.73001 10.3C6.16534 10.3 6.59641 10.2142 6.9986 10.0476C7.4008 9.88105 7.76624 9.63687 8.07407 9.32904C8.38189 9.02122 8.62607 8.65577 8.79267 8.25358C8.95926 7.85138 9.04501 7.42032 9.04501 6.98498C9.04501 6.54965 8.95926 6.11858 8.79267 5.71639C8.62607 5.31419 8.38189 4.94875 8.07407 4.64092C7.76624 4.3331 7.4008 4.08892 6.9986 3.92232C6.59641 3.75573 6.16534 3.66998 5.73001 3.66998C5.29468 3.66998 4.86361 3.75573 4.46141 3.92232C4.05922 4.08892 3.69378 4.3331 3.38595 4.64092C3.07812 4.94875 2.83394 5.31419 2.66735 5.71639C2.50075 6.11858 2.41501 6.54965 2.41501 6.98498V6.98498Z" stroke="#45413C" stroke-width="0.5" stroke-linecap="round" stroke-linejoin="round"/>
<path d="M15.445 6.98498C15.445 7.42032 15.5308 7.85138 15.6973 8.25358C15.8639 8.65577 16.1081 9.02122 16.4159 9.32904C16.7238 9.63687 17.0892 9.88105 17.4914 10.0476C17.8936 10.2142 18.3247 10.3 18.76 10.3C19.1953 10.3 19.6264 10.2142 20.0286 10.0476C20.4308 9.88105 20.7962 9.63687 21.1041 9.32904C21.4119 9.02122 21.6561 8.65577 21.8227 8.25358C21.9893 7.85138 22.075 7.42032 22.075 6.98498C22.075 6.54965 21.9893 6.11858 21.8227 5.71639C21.6561 5.31419 21.4119 4.94875 21.1041 4.64092C20.7962 4.3331 20.4308 4.08892 20.0286 3.92232C19.6264 3.75573 19.1953 3.66998 18.76 3.66998C18.3247 3.66998 17.8936 3.75573 17.4914 3.92232C17.0892 4.08892 16.7238 4.3331 16.4159 4.64092C16.1081 4.94875 15.8639 5.31419 15.6973 5.71639C15.5308 6.11858 15.445 6.54965 15.445 6.98498V6.98498Z" stroke="#45413C" stroke-width="0.5" stroke-linecap="round" stroke-linejoin="round"/>
<path opacity="0.15" d="M6.495 22.25C6.495 22.4489 7.1008 22.6397 8.17913 22.7803C9.25747 22.921 10.72 23 12.245 23C13.77 23 15.2325 22.921 16.3109 22.7803C17.3892 22.6397 17.995 22.4489 17.995 22.25C17.995 22.0511 17.3892 21.8603 16.3109 21.7197C15.2325 21.579 13.77 21.5 12.245 21.5C10.72 21.5 9.25747 21.579 8.17913 21.7197C7.1008 21.8603 6.495 22.0511 6.495 22.25Z" fill="#45413C"/>
<path d="M19.245 13.14C18.8398 12.6199 18.6198 11.9794 18.62 11.32C18.6296 10.7901 18.5639 10.2615 18.425 9.75001C18.0228 8.36839 17.1708 7.1606 16.0042 6.31823C14.8375 5.47585 13.423 5.04711 11.985 5.10001C10.371 5.12807 8.83051 5.78004 7.68671 6.91918C6.54292 8.05831 5.88466 9.5961 5.85001 11.21C5.84041 11.9318 5.60235 12.632 5.17001 13.21C4.65755 13.9235 4.3972 14.7872 4.43001 15.665C4.52001 17.88 6.53001 19.585 8.84501 19.585H9.08001C9.6155 19.5155 10.1597 19.5987 10.65 19.825C11.1344 20.1065 11.6847 20.2547 12.245 20.2547C12.8053 20.2547 13.3556 20.1065 13.84 19.825C14.3303 19.5987 14.8745 19.5155 15.41 19.585H15.645C17.87 19.585 19.835 18.02 20.04 15.9C20.1327 14.9127 19.8487 13.9268 19.245 13.14Z" fill="#F0F0F0"/>
<path d="M5.87499 12.11C6.03798 10.5887 6.75076 9.17917 7.87948 8.14619C9.00819 7.11322 10.4752 6.52785 12.005 6.50001C13.446 6.44947 14.8626 6.88214 16.0295 7.72922C17.1964 8.57631 18.0466 9.78919 18.445 11.175C18.5281 11.4811 18.5833 11.794 18.61 12.11H18.745C18.6666 11.8541 18.6278 11.5877 18.63 11.32C18.6395 10.7901 18.5739 10.2615 18.435 9.75001C18.0328 8.36839 17.1808 7.1606 16.0141 6.31823C14.8475 5.47585 13.433 5.04711 11.995 5.10001C10.3792 5.12551 8.83623 5.77636 7.6903 6.91576C6.54437 8.05516 5.88472 9.5944 5.84999 11.21C5.84621 11.5119 5.79906 11.8116 5.70999 12.1L5.87499 12.11Z" fill="white"/>
<path d="M19.245 13.14C18.8398 12.6199 18.6198 11.9794 18.62 11.32C18.6296 10.7901 18.5639 10.2615 18.425 9.75001C18.0228 8.36839 17.1708 7.1606 16.0042 6.31823C14.8375 5.47585 13.423 5.04711 11.985 5.10001C10.3718 5.12803 8.83207 5.77931 7.68841 6.91738C6.54475 8.05545 5.88593 9.59198 5.85001 11.205V11.205C5.84041 11.9268 5.60235 12.627 5.17001 13.205C4.65755 13.9185 4.3972 14.7822 4.43001 15.66C4.52001 17.875 6.53001 19.58 8.84501 19.58H9.08001C9.6155 19.5105 10.1597 19.5937 10.65 19.82C11.1344 20.1015 11.6847 20.2497 12.245 20.2497C12.8053 20.2497 13.3556 20.1015 13.84 19.82C14.3303 19.5937 14.8745 19.5105 15.41 19.58H15.645C17.87 19.58 19.835 18.015 20.04 15.895C20.1314 14.9093 19.8475 13.9254 19.245 13.14V13.14Z" stroke="#45413C" stroke-width="0.5" stroke-linecap="round" stroke-linejoin="round"/>
<path d="M13.665 17.725C13.5848 18.0408 13.4017 18.3209 13.1445 18.521C12.8874 18.7211 12.5708 18.8297 12.245 18.8297C11.9191 18.8297 11.6026 18.7211 11.3454 18.521C11.0883 18.3209 10.9051 18.0408 10.825 17.725C10.825 17.32 11.46 17.175 12.245 17.175C13.03 17.175 13.665 17.32 13.665 17.725Z" fill="#FFB0CA"/>
<path d="M12.245 18C12.6583 17.9707 13.0723 18.0446 13.45 18.215C13.5736 18.0758 13.649 17.9004 13.665 17.715C13.665 17.31 13.03 17.165 12.245 17.165C11.46 17.165 10.825 17.31 10.825 17.715C10.841 17.9004 10.9164 18.0758 11.04 18.215C11.4176 18.0446 11.8317 17.9707 12.245 18Z" fill="#FFCCDD"/>
<path d="M13.665 17.725C13.5848 18.0408 13.4017 18.3209 13.1445 18.521C12.8874 18.7211 12.5708 18.8297 12.245 18.8297C11.9191 18.8297 11.6026 18.7211 11.3454 18.521C11.0883 18.3209 10.9051 18.0408 10.825 17.725C10.825 17.32 11.46 17.175 12.245 17.175C13.03 17.175 13.665 17.32 13.665 17.725Z" stroke="#45413C" stroke-width="0.5" stroke-linecap="round" stroke-linejoin="round"/>
<path d="M19.245 13.14C18.8398 12.6199 18.6198 11.9793 18.62 11.32C18.6295 10.7901 18.5639 10.2615 18.425 9.74999C18.025 8.38074 17.1833 7.18223 16.0312 6.34117C14.879 5.5001 13.481 5.06372 12.055 5.09999L11.335 6.18999C11.0738 6.57347 10.9034 7.0114 10.8367 7.47056C10.77 7.92972 10.8087 8.39804 10.95 8.83999C11.2395 9.66148 11.8144 10.3517 12.57 10.785C12.779 10.898 12.9427 11.0794 13.0338 11.2988C13.1248 11.5182 13.1376 11.7623 13.07 11.99C12.705 13.105 12.99 14.845 14.11 15.515L14.475 15.735C15.57 16.395 17.165 16.075 18.475 15.84C19.0177 15.7442 19.5391 15.5529 20.015 15.275C19.9716 14.5036 19.704 13.7616 19.245 13.14Z" fill="#FFAA54"/>
<path d="M18.745 12.11C18.6666 11.8541 18.6278 11.5876 18.63 11.32C18.6395 10.7901 18.5739 10.2615 18.435 9.74999C18.035 8.38074 17.1933 7.18223 16.0412 6.34117C14.889 5.5001 13.491 5.06372 12.065 5.09999L11.345 6.18999C11.2542 6.32616 11.1756 6.47004 11.11 6.61999C11.4057 6.56612 11.7047 6.5327 12.005 6.51999C13.4436 6.46739 14.8586 6.89685 16.0254 7.74019C17.1921 8.58354 18.0437 9.79244 18.445 11.175C18.5297 11.4809 18.5866 11.7938 18.615 12.11H18.745Z" fill="#FFCC99"/>
<path d="M19.245 13.14C18.8398 12.6199 18.6198 11.9793 18.62 11.32C18.6295 10.7901 18.5639 10.2615 18.425 9.74999C18.025 8.38074 17.1833 7.18223 16.0312 6.34117C14.879 5.5001 13.481 5.06372 12.055 5.09999L11.335 6.18999C11.0738 6.57347 10.9034 7.0114 10.8367 7.47056C10.77 7.92972 10.8087 8.39804 10.95 8.83999C11.2395 9.66148 11.8144 10.3517 12.57 10.785C12.779 10.898 12.9427 11.0794 13.0338 11.2988C13.1248 11.5182 13.1376 11.7623 13.07 11.99C12.705 13.105 12.99 14.845 14.11 15.515L14.475 15.735C15.57 16.395 17.165 16.075 18.475 15.84C19.0177 15.7442 19.5391 15.5529 20.015 15.275C19.9716 14.5036 19.704 13.7616 19.245 13.14V13.14Z" stroke="#45413C" stroke-width="0.5" stroke-linecap="round" stroke-linejoin="round"/>
<path d="M16.27 14.095C16.27 14.2354 16.2283 14.3727 16.1503 14.4895C16.0723 14.6062 15.9614 14.6972 15.8317 14.751C15.7019 14.8047 15.5592 14.8188 15.4215 14.7914C15.2837 14.764 15.1572 14.6964 15.0579 14.5971C14.9586 14.4978 14.891 14.3712 14.8636 14.2335C14.8362 14.0958 14.8503 13.953 14.904 13.8233C14.9578 13.6936 15.0488 13.5827 15.1655 13.5047C15.2823 13.4267 15.4196 13.385 15.56 13.385C15.7483 13.385 15.9289 13.4598 16.062 13.593C16.1952 13.7261 16.27 13.9067 16.27 14.095Z" fill="#45413C" stroke="#45413C" stroke-width="0.5" stroke-linecap="round" stroke-linejoin="round"/>
<path d="M9.64 14.095C9.64 14.2354 9.59836 14.3727 9.52035 14.4895C9.44233 14.6062 9.33144 14.6972 9.20171 14.751C9.07197 14.8047 8.92921 14.8188 8.79149 14.7914C8.65376 14.764 8.52725 14.6964 8.42796 14.5971C8.32866 14.4978 8.26104 14.3712 8.23364 14.2335C8.20625 14.0958 8.22031 13.953 8.27405 13.8233C8.32779 13.6936 8.41879 13.5827 8.53555 13.5047C8.65231 13.4267 8.78958 13.385 8.93 13.385C9.1179 13.3863 9.29773 13.4615 9.4306 13.5944C9.56347 13.7273 9.63869 13.9071 9.64 14.095Z" fill="#45413C" stroke="#45413C" stroke-width="0.5" stroke-linecap="round" stroke-linejoin="round"/>
<path d="M18.165 17.26C18.165 17.535 17.78 17.76 17.305 17.76C16.83 17.76 16.445 17.535 16.445 17.26C16.445 16.985 16.83 16.76 17.305 16.76C17.78 16.76 18.165 17 18.165 17.26Z" fill="#FFCCDD"/>
<path d="M8.04498 17.26C8.04498 17.535 7.65998 17.76 7.18498 17.76C6.70998 17.76 6.32498 17.535 6.32498 17.26C6.32498 16.985 6.70998 16.76 7.18498 16.76C7.65998 16.76 8.04498 17 8.04498 17.26Z" fill="#FFCCDD"/>
</g>
<defs>
<clipPath id="clip0_226_26765">
<rect width="24" height="24" fill="white" transform="translate(0.244995)"/>
</clipPath>
</defs>
</svg>
