<svg width="25" height="24" viewBox="0 0 25 24" fill="none" xmlns="http://www.w3.org/2000/svg">
<path d="M21.16 15.795C21.2009 15.7945 21.2412 15.7849 21.2779 15.7668C21.3147 15.7488 21.3469 15.7228 21.3723 15.6907C21.3977 15.6586 21.4156 15.6212 21.4247 15.5813C21.4338 15.5414 21.4339 15.5 21.425 15.46L20.23 10.46C20.0605 9.74582 19.7912 9.05906 19.43 8.42003C19.88 4.28004 18.815 1.27503 17.685 1.08003C16.685 0.915035 14.795 3.53504 14.115 4.53004C13.0486 4.30337 11.9464 4.30337 10.88 4.53004C10.2 3.53004 8.28999 0.915035 7.31499 1.08003C6.18499 1.27503 5.11499 4.28004 5.56499 8.42003C5.2054 9.05928 4.93776 9.74604 4.76999 10.46L3.57499 15.46C3.56606 15.5 3.56615 15.5414 3.57527 15.5813C3.58438 15.6212 3.60229 15.6586 3.62768 15.6907C3.65307 15.7228 3.68531 15.7488 3.72204 15.7668C3.75877 15.7849 3.79906 15.7945 3.83999 15.795H4.89999C4.94134 15.7948 4.98221 15.8039 5.01956 15.8216C5.05691 15.8393 5.08978 15.8653 5.11573 15.8975C5.14168 15.9297 5.16003 15.9673 5.16942 16.0075C5.17882 16.0478 5.17901 16.0897 5.16999 16.13L4.96499 17C4.95477 17.0462 4.95662 17.0942 4.97036 17.1394C4.98411 17.1847 5.00929 17.2256 5.04346 17.2583C5.07764 17.291 5.11966 17.3143 5.16547 17.326C5.21128 17.3376 5.25934 17.3373 5.30499 17.325L6.89999 16.88C7.14216 16.8081 7.40256 16.8306 7.62888 16.9428C7.8552 17.055 8.03065 17.2487 8.11999 17.485C9.05499 19.835 10.235 21.27 12.5 21.27C14.765 21.27 15.94 19.835 16.88 17.485C16.9693 17.2499 17.1439 17.057 17.3691 16.9448C17.5943 16.8327 17.8535 16.8096 18.095 16.88L19.695 17.325C19.7405 17.3378 19.7885 17.3384 19.8343 17.3268C19.8801 17.3152 19.922 17.2918 19.9559 17.2589C19.9899 17.226 20.0145 17.1848 20.0275 17.1393C20.0405 17.0939 20.0414 17.0459 20.03 17L19.83 16.15C19.8211 16.1101 19.8212 16.0687 19.8303 16.0288C19.8394 15.9889 19.8573 15.9515 19.8827 15.9194C19.9081 15.8873 19.9403 15.8613 19.977 15.8432C20.0138 15.8252 20.0541 15.8155 20.095 15.815L21.16 15.795Z" fill="#FFAA54"/>
<path d="M7.31499 2.81501C8.15499 2.67001 9.67999 4.58501 10.525 5.75501C10.6305 5.90266 10.7742 6.01882 10.9406 6.09105C11.1071 6.16327 11.2901 6.18884 11.47 6.16501C11.8113 6.1171 12.1554 6.09205 12.5 6.09001C12.8446 6.09241 13.1887 6.11747 13.53 6.16501C13.7091 6.18789 13.8911 6.16186 14.0566 6.08968C14.2221 6.01749 14.3649 5.90184 14.47 5.75501C15.32 4.58501 16.845 2.67001 17.685 2.81501C18.525 2.96001 19.365 4.73001 19.5 7.39001C19.69 3.78001 18.705 1.23501 17.67 1.06001C16.635 0.885005 14.795 3.50001 14.115 4.50001C13.0486 4.27334 11.9464 4.27334 10.88 4.50001C10.2 3.50001 8.28999 0.885005 7.31499 1.05001C6.33999 1.21501 5.29499 3.78001 5.49999 7.39001C5.62999 4.73001 6.45499 2.96001 7.31499 2.81501Z" fill="#FFCC99"/>
<path d="M21.16 15.795C21.2009 15.7945 21.2412 15.7849 21.2779 15.7668C21.3147 15.7488 21.3469 15.7228 21.3723 15.6907C21.3977 15.6586 21.4156 15.6212 21.4247 15.5813C21.4338 15.5414 21.4339 15.5 21.425 15.46L20.23 10.46C20.0605 9.74582 19.7912 9.05906 19.43 8.42003C19.88 4.28004 18.815 1.27503 17.685 1.08003C16.685 0.915035 14.795 3.53504 14.115 4.53004C13.0486 4.30337 11.9464 4.30337 10.88 4.53004C10.2 3.53004 8.28999 0.915035 7.31499 1.08003C6.18499 1.27503 5.11499 4.28004 5.56499 8.42003C5.2054 9.05928 4.93776 9.74604 4.76999 10.46L3.57499 15.46C3.56606 15.5 3.56615 15.5414 3.57527 15.5813C3.58438 15.6212 3.60229 15.6586 3.62768 15.6907C3.65307 15.7228 3.68531 15.7488 3.72204 15.7668C3.75877 15.7849 3.79906 15.7945 3.83999 15.795H4.89999C4.94134 15.7948 4.98221 15.8039 5.01956 15.8216C5.05691 15.8393 5.08978 15.8653 5.11573 15.8975C5.14168 15.9297 5.16003 15.9673 5.16942 16.0075C5.17882 16.0478 5.17901 16.0897 5.16999 16.13L4.96499 17C4.95477 17.0462 4.95662 17.0942 4.97036 17.1394C4.98411 17.1847 5.00929 17.2256 5.04346 17.2583C5.07764 17.291 5.11966 17.3143 5.16547 17.326C5.21128 17.3376 5.25934 17.3373 5.30499 17.325L6.89999 16.88C7.14216 16.8081 7.40256 16.8306 7.62888 16.9428C7.8552 17.055 8.03065 17.2487 8.11999 17.485C9.05499 19.835 10.235 21.27 12.5 21.27C14.765 21.27 15.94 19.835 16.88 17.485C16.9693 17.2499 17.1439 17.057 17.3691 16.9448C17.5943 16.8327 17.8535 16.8096 18.095 16.88L19.695 17.325C19.7405 17.3378 19.7885 17.3384 19.8343 17.3268C19.8801 17.3152 19.922 17.2918 19.9559 17.2589C19.9899 17.226 20.0145 17.1848 20.0275 17.1393C20.0405 17.0939 20.0414 17.0459 20.03 17L19.83 16.15C19.8211 16.1101 19.8212 16.0687 19.8303 16.0288C19.8394 15.9889 19.8573 15.9515 19.8827 15.9194C19.9081 15.8873 19.9403 15.8613 19.977 15.8432C20.0138 15.8252 20.0541 15.8155 20.095 15.815L21.16 15.795Z" stroke="#45413C" stroke-width="0.5" stroke-linecap="round" stroke-linejoin="round"/>
<path d="M12 16.075C12 16.075 9.49999 13.86 6.73999 13.21C5.84145 12.9493 4.87795 13.0334 4.03819 13.4459C3.19843 13.8584 2.54291 14.5695 2.19999 15.44C2.1839 15.4755 2.17652 15.5144 2.17847 15.5533C2.18042 15.5923 2.19164 15.6302 2.2112 15.664C2.23076 15.6977 2.2581 15.7263 2.29094 15.7473C2.32377 15.7684 2.36116 15.7813 2.39999 15.785C2.96508 15.8297 3.51906 15.9665 4.03999 16.19C4.1414 16.2351 4.22494 16.3126 4.27744 16.4103C4.32995 16.5081 4.34843 16.6206 4.32999 16.73C4.22005 17.3921 4.22005 18.0679 4.32999 18.73C4.33565 18.7689 4.35118 18.8057 4.3751 18.8369C4.39902 18.8681 4.43054 18.8926 4.46665 18.9082C4.50275 18.9237 4.54224 18.9297 4.58134 18.9257C4.62044 18.9216 4.65785 18.9076 4.68999 18.885C5.40659 18.3823 6.19339 17.9881 7.02499 17.715C7.25539 17.6412 7.50441 17.6509 7.72839 17.7423C7.95238 17.8337 8.13704 18.0011 8.24999 18.215C8.90999 19.37 10.395 21.27 12.5 21.27C14.605 21.27 16.09 19.37 16.745 18.215C16.8589 18.0007 17.0444 17.8332 17.2693 17.7418C17.4941 17.6504 17.7439 17.6409 17.975 17.715C18.805 17.9882 19.5901 18.3825 20.305 18.885C20.3376 18.9074 20.3753 18.9212 20.4146 18.9252C20.4539 18.9292 20.4936 18.9231 20.53 18.9077C20.5664 18.8922 20.5983 18.8678 20.6228 18.8368C20.6473 18.8057 20.6635 18.769 20.67 18.73C20.7829 18.0681 20.7829 17.3919 20.67 16.73C20.6516 16.6206 20.67 16.5081 20.7225 16.4103C20.775 16.3126 20.8586 16.2351 20.96 16.19C21.4812 15.9672 22.035 15.8304 22.6 15.785C22.6388 15.781 22.6761 15.768 22.709 15.7469C22.7418 15.7259 22.7693 15.6975 22.7892 15.664C22.8091 15.6305 22.8209 15.5928 22.8237 15.5539C22.8264 15.515 22.82 15.476 22.805 15.44C22.4611 14.5691 21.8046 13.8579 20.964 13.4455C20.1234 13.033 19.1592 12.9491 18.26 13.21C15.5 13.86 13 16.075 13 16.075H12Z" fill="#F0F0F0"/>
<path d="M2.38501 15.785L2.66001 15.825C3.10633 15.1961 3.73845 14.7229 4.46755 14.4718C5.19666 14.2207 5.98612 14.2043 6.72501 14.425C9.50001 15.08 12 17.295 12 17.295H13C13 17.295 15.5 15.08 18.26 14.425C18.9989 14.2043 19.7884 14.2207 20.5175 14.4718C21.2466 14.7229 21.8787 15.1961 22.325 15.825L22.6 15.785C22.6388 15.781 22.6761 15.768 22.709 15.7469C22.7418 15.7259 22.7693 15.6975 22.7892 15.664C22.8092 15.6305 22.821 15.5928 22.8237 15.5539C22.8264 15.515 22.82 15.476 22.805 15.44C22.4611 14.5691 21.8046 13.8579 20.964 13.4455C20.1235 13.033 19.1592 12.9491 18.26 13.21C15.5 13.86 13 16.075 13 16.075H12C12 16.075 9.50001 13.86 6.74001 13.21C5.84147 12.9493 4.87797 13.0334 4.03821 13.4459C3.19845 13.8584 2.54292 14.5695 2.20001 15.44C2.18407 15.4744 2.17636 15.5121 2.17747 15.5501C2.17859 15.588 2.18851 15.6252 2.20645 15.6586C2.22439 15.6921 2.24986 15.7209 2.28085 15.7428C2.31183 15.7648 2.34749 15.7792 2.38501 15.785Z" fill="white"/>
<path d="M12 16.075C12 16.075 9.49999 13.86 6.73999 13.21C5.84145 12.9493 4.87796 13.0334 4.03819 13.4459C3.19843 13.8584 2.54291 14.5695 2.19999 15.44C2.1839 15.4755 2.17652 15.5144 2.17847 15.5533C2.18042 15.5923 2.19164 15.6302 2.2112 15.664C2.23076 15.6977 2.2581 15.7263 2.29094 15.7473C2.32377 15.7684 2.36116 15.7813 2.39999 15.785C2.96508 15.8297 3.51906 15.9665 4.03999 16.19C4.1414 16.2351 4.22494 16.3126 4.27744 16.4103C4.32995 16.5081 4.34843 16.6206 4.32999 16.73C4.22005 17.3921 4.22005 18.0679 4.32999 18.73C4.33565 18.7689 4.35118 18.8057 4.3751 18.8369C4.39902 18.8681 4.43054 18.8926 4.46665 18.9082C4.50275 18.9237 4.54224 18.9297 4.58134 18.9257C4.62044 18.9216 4.65785 18.9076 4.68999 18.885C5.40659 18.3824 6.19339 17.9881 7.02499 17.715C7.25539 17.6412 7.50441 17.6509 7.72839 17.7423C7.95238 17.8337 8.13704 18.0011 8.24999 18.215C8.90999 19.37 10.395 21.27 12.5 21.27C14.605 21.27 16.09 19.37 16.745 18.215C16.8589 18.0007 17.0444 17.8332 17.2693 17.7418C17.4941 17.6504 17.7439 17.6409 17.975 17.715C18.805 17.9882 19.5901 18.3825 20.305 18.885C20.3376 18.9074 20.3753 18.9212 20.4146 18.9252C20.4539 18.9292 20.4936 18.9231 20.53 18.9077C20.5664 18.8922 20.5983 18.8678 20.6228 18.8368C20.6473 18.8057 20.6635 18.769 20.67 18.73C20.7829 18.0681 20.7829 17.3919 20.67 16.73C20.6516 16.6206 20.67 16.5081 20.7225 16.4103C20.775 16.3126 20.8586 16.2351 20.96 16.19C21.4812 15.9672 22.035 15.8304 22.6 15.785C22.6388 15.781 22.6761 15.768 22.709 15.7469C22.7418 15.7259 22.7693 15.6975 22.7892 15.664C22.8091 15.6305 22.8209 15.5928 22.8237 15.5539C22.8264 15.515 22.82 15.476 22.805 15.44C22.4611 14.5691 21.8046 13.8579 20.964 13.4455C20.1234 13.033 19.1592 12.9491 18.26 13.21C15.5 13.86 13 16.075 13 16.075H12Z" stroke="#45413C" stroke-width="0.5" stroke-linecap="round" stroke-linejoin="round"/>
<path opacity="0.15" d="M6.75 22.75C6.75 22.9489 7.3558 23.1397 8.43414 23.2803C9.51247 23.421 10.975 23.5 12.5 23.5C14.025 23.5 15.4875 23.421 16.5659 23.2803C17.6442 23.1397 18.25 22.9489 18.25 22.75C18.25 22.5511 17.6442 22.3603 16.5659 22.2197C15.4875 22.079 14.025 22 12.5 22C10.975 22 9.51247 22.079 8.43414 22.2197C7.3558 22.3603 6.75 22.5511 6.75 22.75Z" fill="#45413C"/>
<path d="M15.395 11.98C15.395 12.159 15.4661 12.3307 15.5927 12.4573C15.7193 12.5839 15.891 12.655 16.07 12.655C16.249 12.655 16.4207 12.5839 16.5473 12.4573C16.6739 12.3307 16.745 12.159 16.745 11.98C16.745 11.801 16.6739 11.6293 16.5473 11.5027C16.4207 11.3761 16.249 11.305 16.07 11.305C15.891 11.305 15.7193 11.3761 15.5927 11.5027C15.4661 11.6293 15.395 11.801 15.395 11.98Z" fill="#45413C" stroke="#45413C" stroke-width="0.5" stroke-linecap="round" stroke-linejoin="round"/>
<path d="M8.25 11.98C8.25 12.159 8.32112 12.3307 8.4477 12.4573C8.57429 12.5839 8.74598 12.655 8.925 12.655C9.10402 12.655 9.27571 12.5839 9.4023 12.4573C9.52888 12.3307 9.6 12.159 9.6 11.98C9.6 11.801 9.52888 11.6293 9.4023 11.5027C9.27571 11.3761 9.10402 11.305 8.925 11.305C8.74598 11.305 8.57429 11.3761 8.4477 11.5027C8.32112 11.6293 8.25 11.801 8.25 11.98Z" fill="#45413C" stroke="#45413C" stroke-width="0.5" stroke-linecap="round" stroke-linejoin="round"/>
<path d="M19 15.405C19 15.68 18.665 15.905 18.25 15.905C17.835 15.905 17.5 15.68 17.5 15.405C17.5 15.13 17.835 14.905 18.25 14.905C18.665 14.905 19 15.13 19 15.405Z" fill="#FFCCDD"/>
<path d="M7.5 15.405C7.5 15.68 7.165 15.905 6.75 15.905C6.335 15.905 6 15.68 6 15.405C6 15.13 6.335 14.905 6.75 14.905C7.165 14.905 7.5 15.13 7.5 15.405Z" fill="#FFCCDD"/>
<path d="M10.5 19.155C10.6056 19.3213 10.7545 19.4557 10.9306 19.5437C11.1068 19.6318 11.3036 19.6703 11.5 19.655C12.25 19.655 12.5 19 12.5 17.655" stroke="#45413C" stroke-width="0.5" stroke-linecap="round" stroke-linejoin="round"/>
<path d="M14.5 19.155C14.3944 19.3213 14.2455 19.4557 14.0694 19.5437C13.8932 19.6318 13.6964 19.6703 13.5 19.655C12.75 19.655 12.5 19 12.5 17.655" stroke="#45413C" stroke-width="0.5" stroke-linecap="round" stroke-linejoin="round"/>
<path d="M13.86 16.61C13.8354 16.9655 13.685 17.3006 13.4358 17.5553C13.1866 17.81 12.8549 17.9676 12.5 18C12.1491 17.9684 11.8205 17.8143 11.5719 17.5648C11.3232 17.3152 11.1703 16.986 11.14 16.635C11.14 16.07 11.75 15.955 12.5 15.955C13.25 15.955 13.86 16.045 13.86 16.61Z" fill="#656769"/>
<path d="M12.5 16.71C13.07 16.71 13.555 16.78 13.76 17.055C13.8267 16.916 13.8625 16.7642 13.865 16.61C13.865 16.045 13.255 15.93 12.5 15.93C11.745 15.93 11.14 16.045 11.14 16.61C11.143 16.7635 11.177 16.9149 11.24 17.055C11.44 16.78 11.93 16.71 12.5 16.71Z" fill="#87898C"/>
<path d="M13.86 16.61C13.8354 16.9655 13.685 17.3006 13.4358 17.5553C13.1866 17.81 12.8549 17.9676 12.5 18C12.1491 17.9684 11.8205 17.8143 11.5719 17.5648C11.3232 17.3152 11.1703 16.986 11.14 16.635C11.14 16.07 11.75 15.955 12.5 15.955C13.25 15.955 13.86 16.045 13.86 16.61Z" stroke="#45413C" stroke-width="0.5" stroke-linecap="round" stroke-linejoin="round"/>
<path d="M9.45003 5.50003C9.48229 5.48726 9.51147 5.4678 9.53563 5.44291C9.5598 5.41803 9.57841 5.38829 9.59023 5.35568C9.60204 5.32306 9.6068 5.28831 9.60418 5.25372C9.60156 5.21913 9.59163 5.18549 9.57503 5.15503C9.22503 4.50003 8.30003 2.92003 7.71503 2.90503C7.05503 2.90503 6.60003 5.35003 6.85003 7.26503C6.85782 7.31476 6.88044 7.36099 6.91494 7.39765C6.94943 7.43432 6.99419 7.45972 7.04336 7.47052C7.09253 7.48133 7.14381 7.47704 7.1905 7.45822C7.23719 7.43939 7.27711 7.40691 7.30503 7.36503C7.82029 6.54528 8.56663 5.89636 9.45003 5.50003Z" fill="#FFA694"/>
<path d="M7.71503 4.02499C8.14503 4.02499 8.76503 4.89999 9.21503 5.60999C9.29159 5.56965 9.37001 5.53294 9.45003 5.49999C9.48229 5.48723 9.51146 5.46776 9.53563 5.44287C9.5598 5.41799 9.57841 5.38825 9.59022 5.35564C9.60204 5.32303 9.6068 5.28827 9.60418 5.25368C9.60156 5.21909 9.59162 5.18545 9.57503 5.15499C9.22503 4.49999 8.30003 2.91999 7.71503 2.90499C7.13003 2.88999 6.71503 4.90499 6.79503 6.68999C6.87503 5.26999 7.24503 3.99999 7.71503 4.02499Z" fill="#FF866E"/>
<path d="M9.45003 5.50003C9.48229 5.48726 9.51147 5.4678 9.53563 5.44291C9.5598 5.41803 9.57841 5.38829 9.59023 5.35568C9.60204 5.32306 9.6068 5.28831 9.60418 5.25372C9.60156 5.21913 9.59163 5.18549 9.57503 5.15503C9.22503 4.50003 8.30003 2.92003 7.71503 2.90503C7.05503 2.90503 6.60003 5.35003 6.85003 7.26503C6.85782 7.31476 6.88044 7.36099 6.91494 7.39765C6.94943 7.43432 6.99419 7.45972 7.04336 7.47052C7.09253 7.48133 7.14381 7.47704 7.1905 7.45822C7.23719 7.43939 7.27711 7.40691 7.30503 7.36503C7.82029 6.54528 8.56663 5.89636 9.45003 5.50003V5.50003Z" stroke="#45413C" stroke-width="0.5" stroke-linecap="round" stroke-linejoin="round"/>
<path d="M15.55 5.49999C15.5173 5.48773 15.4877 5.46863 15.463 5.44396C15.4382 5.4193 15.4191 5.38964 15.4068 5.35697C15.3945 5.3243 15.3893 5.28938 15.3916 5.25455C15.3939 5.21971 15.4036 5.18577 15.42 5.15499C15.77 4.51499 16.695 2.92999 17.285 2.91499C17.875 2.89999 18.4 5.35999 18.15 7.27499C18.141 7.3245 18.1175 7.37023 18.0825 7.40641C18.0475 7.44259 18.0026 7.4676 17.9534 7.4783C17.9042 7.48899 17.8529 7.48489 17.8061 7.4665C17.7592 7.44812 17.7188 7.41627 17.69 7.37499C17.1779 6.55208 16.4331 5.89957 15.55 5.49999Z" fill="#FFA694"/>
<path d="M17.28 4.025C16.85 4.025 16.235 4.9 15.78 5.61L15.55 5.5C15.5173 5.48774 15.4877 5.46864 15.463 5.44398C15.4382 5.41931 15.4191 5.38965 15.4068 5.35699C15.3945 5.32432 15.3893 5.2894 15.3916 5.25456C15.3939 5.21973 15.4036 5.18578 15.42 5.155C15.77 4.515 16.695 2.93 17.28 2.915C17.865 2.9 18.28 4.915 18.2 6.7C18.12 5.27 17.755 4 17.28 4.025Z" fill="#FF866E"/>
<path d="M15.55 5.49999C15.5173 5.48773 15.4877 5.46863 15.463 5.44396C15.4382 5.4193 15.4191 5.38964 15.4068 5.35697C15.3945 5.3243 15.3893 5.28938 15.3916 5.25455C15.3939 5.21971 15.4036 5.18577 15.42 5.15499C15.77 4.51499 16.695 2.92999 17.285 2.91499C17.875 2.89999 18.4 5.35999 18.15 7.27499C18.141 7.3245 18.1175 7.37023 18.0825 7.40641C18.0475 7.44259 18.0026 7.4676 17.9534 7.4783C17.9042 7.48899 17.8529 7.48489 17.8061 7.4665C17.7592 7.44812 17.7188 7.41627 17.69 7.37499C17.1779 6.55208 16.4331 5.89957 15.55 5.49999V5.49999Z" stroke="#45413C" stroke-width="0.5" stroke-linecap="round" stroke-linejoin="round"/>
</svg>
