<svg width="25" height="24" viewBox="0 0 25 24" fill="none" xmlns="http://www.w3.org/2000/svg">
<path d="M7.93001 9.28998C6.79129 10.6375 5.78654 12.0927 4.93001 13.635C4.05501 15.19 3.89501 16.135 5.46001 17.035C7.68001 18.31 7.88501 15.67 8.21501 13.06C8.54501 10.45 7.93001 9.28998 7.93001 9.28998Z" fill="#BDBEC0" stroke="#45413C" stroke-width="0.5" stroke-linecap="round" stroke-linejoin="round"/>
<path d="M7.47 12.04C7.47 12.04 5.565 14.285 5.725 15.04C5.79494 15.3695 5.99102 15.6586 6.27132 15.8455C6.55162 16.0324 6.8939 16.1022 7.225 16.04C7.915 15.98 8.225 14.04 8.225 14.04L7.47 12.04Z" fill="#FFCCDD" stroke="#45413C" stroke-width="0.5" stroke-linecap="round" stroke-linejoin="round"/>
<path d="M17.07 9.28998C18.2087 10.6375 19.2135 12.0927 20.07 13.635C20.945 15.19 21.105 16.135 19.54 17.035C17.32 18.31 17.115 15.67 16.785 13.06C16.455 10.45 17.07 9.28998 17.07 9.28998Z" fill="#BDBEC0" stroke="#45413C" stroke-width="0.5" stroke-linecap="round" stroke-linejoin="round"/>
<path d="M17.53 12.04C17.53 12.04 19.435 14.285 19.275 15.04C19.205 15.3695 19.009 15.6586 18.7287 15.8455C18.4484 16.0324 18.1061 16.1022 17.775 16.04C17.085 15.98 16.775 14.04 16.775 14.04L17.53 12.04Z" fill="#FFCCDD" stroke="#45413C" stroke-width="0.5" stroke-linecap="round" stroke-linejoin="round"/>
<path d="M4.34 10.1C4.2805 10.2928 4.24851 10.4932 4.245 10.695C4.23565 10.9888 4.28766 11.2814 4.39771 11.554C4.50776 11.8266 4.67344 12.0732 4.88416 12.2782C5.09489 12.4832 5.34603 12.642 5.62157 12.7445C5.89711 12.847 6.19099 12.8909 6.48445 12.8735C6.77792 12.8561 7.06452 12.7776 7.32597 12.6432C7.58743 12.5088 7.81799 12.3213 8.00294 12.0928C8.18789 11.8643 8.32317 11.5997 8.40014 11.316C8.47712 11.0323 8.4941 10.7356 8.45 10.445C9.02484 9.97551 9.4001 9.3054 9.5 8.56997C9.87003 8.54389 10.2298 8.43677 10.5538 8.25618C10.8778 8.07559 11.1582 7.82596 11.375 7.52497C12.0954 7.80513 12.8946 7.80513 13.615 7.52497C13.8329 7.82721 14.1148 8.07759 14.4407 8.25824C14.7665 8.43888 15.1282 8.54533 15.5 8.56997C15.6012 9.30614 15.9783 9.97636 16.555 10.445C16.5208 10.7307 16.5453 11.0203 16.6271 11.2962C16.709 11.572 16.8463 11.8282 17.0308 12.049C17.2153 12.2698 17.443 12.4506 17.6999 12.5801C17.9569 12.7097 18.2376 12.7853 18.5248 12.8024C18.812 12.8195 19.0997 12.7776 19.3701 12.6794C19.6406 12.5812 19.8881 12.4287 20.0975 12.2314C20.3068 12.034 20.4736 11.7959 20.5875 11.5316C20.7015 11.2674 20.7602 10.9827 20.76 10.695C20.7565 10.4932 20.7245 10.2928 20.665 10.1C21.0377 9.67118 21.2793 9.14435 21.3612 8.58217C21.443 8.01999 21.3616 7.44612 21.1267 6.92886C20.8918 6.4116 20.5132 5.97272 20.036 5.66445C19.5588 5.35617 19.0031 5.19148 18.435 5.18997C18.3168 5.18235 18.1982 5.18235 18.08 5.18997C17.9051 4.6929 17.5793 4.26285 17.1481 3.95988C16.7169 3.6569 16.2019 3.49612 15.675 3.49997H15.5C15.2839 2.87637 14.8789 2.33561 14.3412 1.95289C13.8035 1.57016 13.16 1.3645 12.5 1.3645C11.84 1.3645 11.1965 1.57016 10.6588 1.95289C10.1211 2.33561 9.71608 2.87637 9.5 3.49997H9.32C8.79086 3.49895 8.27472 3.66387 7.8442 3.97151C7.41368 4.27915 7.09045 4.71404 6.92 5.21497C6.80179 5.20735 6.68321 5.20735 6.565 5.21497C6.00195 5.22147 5.45239 5.38816 4.98061 5.69556C4.50883 6.00295 4.13433 6.43833 3.90093 6.95077C3.66753 7.4632 3.58487 8.03151 3.66262 8.5892C3.74038 9.1469 3.97533 9.67092 4.34 10.1Z" fill="#E5FEFF"/>
<path d="M6.57001 6.79497C6.68822 6.78737 6.8068 6.78737 6.92501 6.79497C7.09546 6.29404 7.41869 5.85915 7.84921 5.55151C8.27973 5.24387 8.79587 5.07895 9.32501 5.07997H9.50501C9.7187 4.45403 10.1228 3.9106 10.6608 3.52581C11.1987 3.14101 11.8436 2.93413 12.505 2.93413C13.1664 2.93413 13.8113 3.14101 14.3492 3.52581C14.8872 3.9106 15.2913 4.45403 15.505 5.07997H15.685C16.2142 5.07895 16.7303 5.24387 17.1608 5.55151C17.5913 5.85915 17.9146 6.29404 18.085 6.79497C18.2032 6.78737 18.3218 6.78737 18.44 6.79497C19.0822 6.79479 19.707 7.00345 20.2202 7.38947C20.7334 7.77549 21.1071 8.31794 21.285 8.93497C21.3592 8.68154 21.3979 8.41904 21.4 8.15497C21.4 7.36947 21.0883 6.61607 20.5334 6.06016C19.9784 5.50426 19.2255 5.1913 18.44 5.18997C18.3218 5.18235 18.2032 5.18235 18.085 5.18997C17.9098 4.69208 17.5832 4.26146 17.1511 3.95842C16.7189 3.65537 16.2028 3.49507 15.675 3.49997H15.5C15.2839 2.87637 14.8789 2.33561 14.3412 1.95289C13.8036 1.57016 13.16 1.3645 12.5 1.3645C11.84 1.3645 11.1965 1.57016 10.6588 1.95289C10.1211 2.33561 9.71609 2.87637 9.50001 3.49997H9.32001C8.79087 3.49895 8.27473 3.66387 7.84421 3.97151C7.41369 4.27915 7.09046 4.71404 6.92001 5.21497C6.8018 5.20735 6.68322 5.20735 6.56501 5.21497C5.77951 5.2163 5.02664 5.52926 4.47167 6.08517C3.91671 6.64107 3.60501 7.39447 3.60501 8.17997C3.60709 8.44404 3.64579 8.70654 3.72001 8.95997C3.89358 8.33746 4.26612 7.78886 4.78073 7.39793C5.29534 7.00701 5.92375 6.79524 6.57001 6.79497Z" fill="white"/>
<path d="M4.34 10.1C4.2805 10.2928 4.24851 10.4932 4.245 10.695C4.23565 10.9888 4.28766 11.2814 4.39771 11.554C4.50776 11.8266 4.67344 12.0732 4.88416 12.2782C5.09489 12.4832 5.34603 12.642 5.62157 12.7445C5.89711 12.847 6.19099 12.8909 6.48445 12.8735C6.77792 12.8561 7.06452 12.7776 7.32597 12.6432C7.58743 12.5088 7.81799 12.3213 8.00294 12.0928C8.18789 11.8643 8.32317 11.5997 8.40014 11.316C8.47712 11.0323 8.4941 10.7356 8.45 10.445C9.02484 9.97551 9.4001 9.3054 9.5 8.56997C9.87003 8.54389 10.2298 8.43677 10.5538 8.25618C10.8778 8.07559 11.1582 7.82596 11.375 7.52497C12.0954 7.80513 12.8946 7.80513 13.615 7.52497C13.8329 7.82721 14.1148 8.07759 14.4407 8.25824C14.7665 8.43888 15.1282 8.54533 15.5 8.56997C15.6012 9.30614 15.9783 9.97636 16.555 10.445C16.5208 10.7307 16.5453 11.0203 16.6271 11.2962C16.709 11.572 16.8463 11.8282 17.0308 12.049C17.2153 12.2698 17.443 12.4506 17.6999 12.5801C17.9569 12.7097 18.2376 12.7853 18.5248 12.8024C18.812 12.8195 19.0997 12.7776 19.3701 12.6794C19.6406 12.5812 19.8881 12.4287 20.0975 12.2314C20.3068 12.034 20.4736 11.7959 20.5875 11.5316C20.7015 11.2674 20.7602 10.9827 20.76 10.695C20.7565 10.4932 20.7245 10.2928 20.665 10.1C21.0377 9.67118 21.2793 9.14435 21.3612 8.58217C21.443 8.01999 21.3616 7.44612 21.1267 6.92886C20.8918 6.4116 20.5132 5.97272 20.036 5.66445C19.5588 5.35617 19.0031 5.19148 18.435 5.18997C18.3168 5.18235 18.1982 5.18235 18.08 5.18997C17.9051 4.6929 17.5793 4.26285 17.1481 3.95988C16.7169 3.6569 16.2019 3.49612 15.675 3.49997H15.5C15.2839 2.87637 14.8789 2.33561 14.3412 1.95289C13.8035 1.57016 13.16 1.3645 12.5 1.3645C11.84 1.3645 11.1965 1.57016 10.6588 1.95289C10.1211 2.33561 9.71608 2.87637 9.5 3.49997H9.32C8.79086 3.49895 8.27472 3.66387 7.8442 3.97151C7.41368 4.27915 7.09045 4.71404 6.92 5.21497C6.80179 5.20735 6.68321 5.20735 6.565 5.21497C6.00195 5.22147 5.45239 5.38816 4.98061 5.69556C4.50883 6.00295 4.13433 6.43833 3.90093 6.95077C3.66753 7.4632 3.58487 8.03151 3.66262 8.5892C3.74038 9.1469 3.97533 9.67092 4.34 10.1V10.1Z" stroke="#45413C" stroke-width="0.5" stroke-linecap="round" stroke-linejoin="round"/>
<path opacity="0.15" d="M6.36499 22.7C6.36499 22.805 6.52368 22.9091 6.83199 23.0061C7.1403 23.1032 7.5922 23.1914 8.16189 23.2656C8.73158 23.3399 9.40789 23.3989 10.1522 23.4391C10.8966 23.4793 11.6943 23.5 12.5 23.5C13.3057 23.5 14.1034 23.4793 14.8478 23.4391C15.5921 23.3989 16.2684 23.3399 16.8381 23.2656C17.4078 23.1914 17.8597 23.1032 18.168 23.0061C18.4763 22.9091 18.635 22.805 18.635 22.7C18.635 22.5949 18.4763 22.4909 18.168 22.3938C17.8597 22.2968 17.4078 22.2086 16.8381 22.1343C16.2684 22.06 15.5921 22.0011 14.8478 21.9609C14.1034 21.9207 13.3057 21.9 12.5 21.9C11.6943 21.9 10.8966 21.9207 10.1522 21.9609C9.40789 22.0011 8.73158 22.06 8.16189 22.1343C7.5922 22.2086 7.1403 22.2968 6.83199 22.3938C6.52368 22.4909 6.36499 22.5949 6.36499 22.7Z" fill="#45413C"/>
<path d="M17.94 12.59C17.94 17.09 15.355 20.75 12.5 20.75C9.645 20.75 7.06 17.095 7.06 12.59C7.06 8.08497 9.645 6.58997 12.5 6.58997C15.355 6.58997 17.94 8.07997 17.94 12.59Z" fill="#BDBEC0"/>
<path d="M12.5 6.60498C9.76001 6.60498 7.26501 7.96998 7.07001 12.07C7.16283 12.0833 7.2563 12.0916 7.35001 12.095C7.75409 12.0999 8.15463 12.0191 8.52522 11.8579C8.89581 11.6968 9.22804 11.4589 9.50001 11.16C9.68982 11.8024 10.0872 12.3639 10.63 12.7565C11.1728 13.1491 11.8304 13.3508 12.5 13.33C13.1696 13.3508 13.8272 13.1491 14.37 12.7565C14.9128 12.3639 15.3102 11.8024 15.5 11.16C15.7709 11.4576 16.1015 11.6947 16.4702 11.8559C16.839 12.017 17.2376 12.0985 17.64 12.095C17.7337 12.0916 17.8272 12.0833 17.92 12.07C17.735 7.96998 15.24 6.60498 12.5 6.60498Z" fill="#87898C"/>
<path d="M17.94 12.59C17.94 17.09 15.355 20.75 12.5 20.75C9.645 20.75 7.06 17.095 7.06 12.59C7.06 8.08497 9.645 6.58997 12.5 6.58997C15.355 6.58997 17.94 8.07997 17.94 12.59Z" stroke="#45413C" stroke-width="0.5" stroke-linecap="round" stroke-linejoin="round"/>
<path d="M14.13 18C14.0365 18.3674 13.8278 18.6953 13.5345 18.9355C13.2412 19.1757 12.8786 19.3157 12.5 19.335C12.1213 19.3157 11.7588 19.1757 11.4655 18.9355C11.1722 18.6953 10.9635 18.3674 10.87 18C10.87 17.55 11.6 18 12.5 18C13.4 18 14.13 17.525 14.13 18Z" fill="#87898C" stroke="#45413C" stroke-width="0.5" stroke-linecap="round" stroke-linejoin="round"/>
<path d="M16.335 6.64994C16.0077 6.64822 15.6843 6.72178 15.39 6.86494L14 5.25494H11L9.60999 6.86494C9.31564 6.72178 8.99231 6.64822 8.66499 6.64994C8.30955 6.64994 7.95953 6.73705 7.64555 6.90365C7.33158 7.07024 7.06321 7.31125 6.86394 7.60558C6.66468 7.8999 6.54058 8.23858 6.5025 8.59197C6.46443 8.94536 6.51355 9.3027 6.64555 9.63272C6.77756 9.96273 6.98843 10.2554 7.25972 10.485C7.53101 10.7147 7.85445 10.8743 8.20173 10.95C8.54901 11.0257 8.90955 11.0152 9.25181 10.9193C9.59407 10.8234 9.9076 10.6451 10.165 10.3999C10.3279 10.8918 10.6417 11.3199 11.0618 11.6233C11.4818 11.9267 11.9868 12.0899 12.505 12.0899C13.0232 12.0899 13.5282 11.9267 13.9482 11.6233C14.3683 11.3199 14.6821 10.8918 14.845 10.3999C15.1024 10.6451 15.4159 10.8234 15.7582 10.9193C16.1004 11.0152 16.461 11.0257 16.8083 10.95C17.1555 10.8743 17.479 10.7147 17.7503 10.485C18.0215 10.2554 18.2324 9.96273 18.3644 9.63272C18.4964 9.3027 18.5455 8.94536 18.5075 8.59197C18.4694 8.23858 18.3453 7.8999 18.146 7.60558C17.9468 7.31125 17.6784 7.07024 17.3644 6.90365C17.0505 6.73705 16.7004 6.64994 16.345 6.64994H16.335Z" fill="#E5FEFF"/>
<path d="M15.39 6.86499C15.6844 6.72183 16.0077 6.64827 16.335 6.64999C16.6904 6.64999 17.0405 6.7371 17.3544 6.9037C17.6684 7.07029 17.9368 7.3113 18.1361 7.60563C18.3353 7.89995 18.4594 8.23863 18.4975 8.59202C18.5356 8.94541 18.4865 9.30275 18.3544 9.63277C18.2224 9.96278 18.0116 10.2554 17.7403 10.4851C17.469 10.7147 17.1456 10.8744 16.7983 10.9501C16.451 11.0258 16.0904 11.0152 15.7482 10.9193C15.4059 10.8234 15.0924 10.6451 14.835 10.4C14.6721 10.8919 14.3583 11.3199 13.9382 11.6233C13.5182 11.9267 13.0132 12.09 12.495 12.09C11.9768 12.09 11.4718 11.9267 11.0518 11.6233C10.6317 11.3199 10.3179 10.8919 10.155 10.4C9.89763 10.6451 9.58409 10.8234 9.24183 10.9193C8.89957 11.0152 8.53903 11.0258 8.19175 10.9501C7.84447 10.8744 7.52103 10.7147 7.24974 10.4851C6.97845 10.2554 6.76758 9.96278 6.63557 9.63277C6.50357 9.30275 6.45445 8.94541 6.49252 8.59202C6.5306 8.23863 6.6547 7.89995 6.85397 7.60563C7.05323 7.3113 7.3216 7.07029 7.63558 6.9037C7.94955 6.7371 8.29957 6.64999 8.65501 6.64999C8.98233 6.64827 9.30566 6.72183 9.60001 6.86499" stroke="#45413C" stroke-width="0.5" stroke-linecap="round" stroke-linejoin="round"/>
<path d="M15.75 14.34C15.75 14.4883 15.706 14.6333 15.6236 14.7566C15.5412 14.88 15.4241 14.9761 15.287 15.0329C15.15 15.0896 14.9992 15.1045 14.8537 15.0756C14.7082 15.0466 14.5746 14.9752 14.4697 14.8703C14.3648 14.7654 14.2934 14.6318 14.2644 14.4863C14.2355 14.3408 14.2503 14.19 14.3071 14.053C14.3639 13.9159 14.46 13.7988 14.5833 13.7164C14.7067 13.634 14.8517 13.59 15 13.59C15.1989 13.59 15.3897 13.669 15.5303 13.8096C15.671 13.9503 15.75 14.1411 15.75 14.34Z" fill="#45413C"/>
<path d="M10.75 14.34C10.75 14.4883 10.706 14.6333 10.6236 14.7566C10.5412 14.88 10.4241 14.9761 10.287 15.0329C10.15 15.0896 9.99917 15.1045 9.85368 15.0756C9.7082 15.0466 9.57456 14.9752 9.46967 14.8703C9.36478 14.7654 9.29335 14.6318 9.26441 14.4863C9.23547 14.3408 9.25033 14.19 9.30709 14.053C9.36386 13.9159 9.45999 13.7988 9.58332 13.7164C9.70666 13.634 9.85166 13.59 10 13.59C10.1989 13.59 10.3897 13.669 10.5303 13.8096C10.671 13.9503 10.75 14.1411 10.75 14.34Z" fill="#45413C"/>
<path d="M9.5 16.585C9.5 16.725 9.28 16.835 9 16.835C8.72 16.835 8.5 16.725 8.5 16.585C8.5 16.445 8.72 16.335 9 16.335C9.28 16.335 9.5 16.45 9.5 16.585Z" fill="#FFCCDD"/>
<path d="M15.5 16.585C15.5 16.725 15.72 16.835 16 16.835C16.28 16.835 16.5 16.725 16.5 16.585C16.5 16.445 16.28 16.335 16 16.335C15.72 16.335 15.5 16.45 15.5 16.585Z" fill="#FFCCDD"/>
<path d="M12.5 19.335V20.75" stroke="#45413C" stroke-width="0.5" stroke-linecap="round" stroke-linejoin="round"/>
<path d="M8.66501 6.64994C8.99232 6.64822 9.31565 6.72178 9.61001 6.86494C9.32597 6.17472 8.81635 5.60117 8.16432 5.23792C7.5123 4.87468 6.75639 4.7432 6.02001 4.86494C3.12501 5.27994 3.29501 8.30994 3.75001 9.24994C3.90257 9.53423 4.1162 9.7812 4.37555 9.97312C4.6349 10.165 4.93354 10.2971 5.25001 10.3599C5.25001 10.3599 4.29501 8.58994 5.90001 8.06494C6.01129 8.02458 6.13027 8.00991 6.24803 8.02204C6.36578 8.03416 6.47928 8.07276 6.58001 8.13494C6.72589 7.69876 7.00629 7.32006 7.38091 7.05324C7.75554 6.78642 8.2051 6.64522 8.66501 6.64994Z" fill="#FFFACF"/>
<path d="M6 5.87994C6.47897 5.79308 6.97148 5.81733 7.43959 5.95083C7.9077 6.08433 8.33891 6.32351 8.7 6.64994C9.00847 6.6584 9.3117 6.73165 9.59 6.86494C9.30597 6.17472 8.79634 5.60117 8.14432 5.23792C7.4923 4.87468 6.73639 4.7432 6 4.86494C3.73 5.18994 3.345 7.12994 3.5 8.39994C3.5489 7.7512 3.82745 7.14113 4.28564 6.67927C4.74384 6.21741 5.35167 5.934 6 5.87994Z" fill="#FFFCE5"/>
<path d="M8.66501 6.64994C8.99232 6.64822 9.31565 6.72178 9.61001 6.86494C9.32597 6.17472 8.81635 5.60117 8.16432 5.23792C7.5123 4.87468 6.75639 4.7432 6.02001 4.86494C3.12501 5.27994 3.29501 8.30994 3.75001 9.24994C3.90257 9.53423 4.1162 9.7812 4.37555 9.97312C4.6349 10.165 4.93354 10.2971 5.25001 10.3599C5.25001 10.3599 4.29501 8.58994 5.90001 8.06494C6.01129 8.02458 6.13027 8.00991 6.24803 8.02204C6.36578 8.03416 6.47928 8.07276 6.58001 8.13494C6.72589 7.69876 7.00629 7.32006 7.38091 7.05324C7.75554 6.78642 8.2051 6.64522 8.66501 6.64994V6.64994Z" stroke="#45413C" stroke-width="0.5" stroke-linecap="round" stroke-linejoin="round"/>
<path d="M7.77002 5.03997C7.77002 5.03997 7.13002 4.84497 6.27002 5.59497C5.27002 6.46997 5.77002 8.09497 5.77002 8.09497V8.12497" stroke="#45413C" stroke-width="0.5" stroke-linecap="round" stroke-linejoin="round"/>
<path d="M3.80999 6.375L3.76999 6.595C3.70563 7.02806 3.79403 7.47001 4.01999 7.845C4.12624 8.03146 4.26994 8.19392 4.44204 8.32213C4.61414 8.45035 4.81092 8.54155 5.01999 8.59H5.16499" stroke="#45413C" stroke-width="0.5" stroke-linecap="round" stroke-linejoin="round"/>
<path d="M16.335 6.64994C16.0077 6.64822 15.6844 6.72178 15.39 6.86494C15.674 6.17472 16.1837 5.60117 16.8357 5.23792C17.4877 4.87468 18.2436 4.7432 18.98 4.86494C21.875 5.27994 21.705 8.30994 21.25 9.24994C21.0974 9.53423 20.8838 9.7812 20.6245 9.97312C20.3651 10.165 20.0665 10.2971 19.75 10.3599C19.75 10.3599 20.705 8.58994 19.1 8.06494C18.9887 8.02458 18.8698 8.00991 18.752 8.02204C18.6342 8.03416 18.5207 8.07276 18.42 8.13494C18.2741 7.69876 17.9937 7.32006 17.6191 7.05324C17.2445 6.78642 16.7949 6.64522 16.335 6.64994Z" fill="#FFFACF"/>
<path d="M19 5.87994C18.521 5.79308 18.0285 5.81733 17.5604 5.95083C17.0923 6.08433 16.6611 6.32351 16.3 6.64994C15.9915 6.6584 15.6883 6.73165 15.41 6.86494C15.694 6.17472 16.2037 5.60117 16.8557 5.23792C17.5077 4.87468 18.2636 4.7432 19 4.86494C21.27 5.18994 21.655 7.12994 21.5 8.39994C21.4511 7.7512 21.1726 7.14113 20.7144 6.67927C20.2562 6.21741 19.6483 5.934 19 5.87994Z" fill="#FFFCE5"/>
<path d="M16.335 6.64994C16.0077 6.64822 15.6844 6.72178 15.39 6.86494C15.674 6.17472 16.1837 5.60117 16.8357 5.23792C17.4877 4.87468 18.2436 4.7432 18.98 4.86494C21.875 5.27994 21.705 8.30994 21.25 9.24994C21.0974 9.53423 20.8838 9.7812 20.6245 9.97312C20.3651 10.165 20.0665 10.2971 19.75 10.3599C19.75 10.3599 20.705 8.58994 19.1 8.06494C18.9887 8.02458 18.8698 8.00991 18.752 8.02204C18.6342 8.03416 18.5207 8.07276 18.42 8.13494C18.2741 7.69876 17.9937 7.32006 17.6191 7.05324C17.2445 6.78642 16.7949 6.64522 16.335 6.64994V6.64994Z" stroke="#45413C" stroke-width="0.5" stroke-linecap="round" stroke-linejoin="round"/>
<path d="M17.23 5.03997C17.23 5.03997 17.87 4.84497 18.73 5.59497C19.73 6.46997 19.23 8.09497 19.23 8.09497V8.12497" stroke="#45413C" stroke-width="0.5" stroke-linecap="round" stroke-linejoin="round"/>
<path d="M21.19 6.375L21.23 6.595C21.2944 7.02806 21.206 7.47001 20.98 7.845C20.8737 8.03146 20.73 8.19392 20.5579 8.32213C20.3858 8.45035 20.1891 8.54155 19.98 8.59H19.835" stroke="#45413C" stroke-width="0.5" stroke-linecap="round" stroke-linejoin="round"/>
</svg>
