<svg width="25" height="24" viewBox="0 0 25 24" fill="none" xmlns="http://www.w3.org/2000/svg">
<path d="M3.695 5.92001C2.31 7.97501 2.66 9.27001 4.195 10.32C6.455 11.87 6.695 8.82001 7.79 7.29001C8.885 5.76001 10.13 4.67001 9.085 3.92001C8.04 3.17001 5.31 3.50001 3.695 5.92001Z" fill="#FFB0CA"/>
<path d="M3.69499 7.44001C5.30999 5.04001 8.03999 4.69501 9.08499 5.44001L9.13999 5.47501C9.54499 4.84001 9.66499 4.33001 9.08499 3.91501C8.03999 3.17001 5.30999 3.51001 3.69499 5.91501C2.86499 7.14501 2.65999 8.10501 2.95499 8.91501C3.12946 8.39032 3.37869 7.89354 3.69499 7.44001Z" fill="#FFCCDD"/>
<path d="M3.695 5.92001C2.31 7.97501 2.66 9.27001 4.195 10.32C6.455 11.87 6.695 8.82001 7.79 7.29001C8.885 5.76001 10.13 4.67001 9.085 3.92001C8.04 3.17001 5.31 3.50001 3.695 5.92001Z" stroke="#45413C" stroke-width="0.5" stroke-linecap="round" stroke-linejoin="round"/>
<path d="M20.795 5.92001C22.18 7.97501 21.83 9.27001 20.295 10.32C18.035 11.87 17.795 8.82001 16.7 7.29001C15.605 5.76001 14.36 4.67001 15.405 3.92001C16.45 3.17001 19.18 3.50001 20.795 5.92001Z" fill="#FFB0CA"/>
<path d="M20.795 7.44001C19.18 5.04001 16.45 4.69501 15.405 5.44001L15.35 5.47501C14.945 4.84001 14.825 4.33001 15.405 3.91501C16.45 3.17001 19.18 3.51001 20.795 5.91501C21.625 7.14501 21.83 8.10501 21.535 8.91501C21.3605 8.39032 21.1113 7.89354 20.795 7.44001Z" fill="#FFCCDD"/>
<path d="M20.795 5.92001C22.18 7.97501 21.83 9.27001 20.295 10.32C18.035 11.87 17.795 8.82001 16.7 7.29001C15.605 5.76001 14.36 4.67001 15.405 3.92001C16.45 3.17001 19.18 3.50001 20.795 5.92001Z" stroke="#45413C" stroke-width="0.5" stroke-linecap="round" stroke-linejoin="round"/>
<path opacity="0.15" d="M6.495 22.245C6.495 22.4439 7.1008 22.6347 8.17913 22.7753C9.25747 22.916 10.72 22.995 12.245 22.995C13.77 22.995 15.2325 22.916 16.3109 22.7753C17.3892 22.6347 17.995 22.4439 17.995 22.245C17.995 22.0461 17.3892 21.8553 16.3109 21.7147C15.2325 21.574 13.77 21.495 12.245 21.495C10.72 21.495 9.25747 21.574 8.17913 21.7147C7.1008 21.8553 6.495 22.0461 6.495 22.245Z" fill="#45413C"/>
<path d="M14.99 4.26002C13.1851 3.8033 11.2949 3.8033 9.48999 4.26002C6.67499 5.00002 4.74499 7.17002 4.74499 9.66002V11.835C4.74108 12.0554 4.66758 12.2689 4.53499 12.445C4.10665 13.1369 3.91696 13.9501 3.99499 14.76C3.99499 17.79 7.54999 20.26 12.245 20.26C16.94 20.26 20.495 17.8 20.495 14.76C20.573 13.9501 20.3833 13.1369 19.955 12.445C19.8224 12.2689 19.7489 12.0554 19.745 11.835V9.66002C19.745 7.17002 17.815 5.00002 14.99 4.26002Z" fill="#FFB0CA"/>
<path d="M9.5 5.93502C11.3049 5.4783 13.1951 5.4783 15 5.93502C17.815 6.65002 19.745 8.84002 19.745 11.33V9.66002C19.745 7.16002 17.815 4.97502 14.99 4.26002C13.1851 3.8033 11.2949 3.8033 9.49 4.26002C6.67499 5.00002 4.745 7.17002 4.745 9.66002V11.33C4.745 8.84002 6.675 6.65002 9.5 5.93502Z" fill="#FFCCDD"/>
<path d="M14.99 4.26002C13.1851 3.8033 11.2949 3.8033 9.48999 4.26002C6.67499 5.00002 4.74499 7.17002 4.74499 9.66002V11.835C4.74108 12.0554 4.66758 12.2689 4.53499 12.445C4.10665 13.1369 3.91696 13.9501 3.99499 14.76C3.99499 17.79 7.54999 20.26 12.245 20.26C16.94 20.26 20.495 17.8 20.495 14.76C20.573 13.9501 20.3833 13.1369 19.955 12.445C19.8224 12.2689 19.7489 12.0554 19.745 11.835V9.66002C19.745 7.17002 17.815 5.00002 14.99 4.26002Z" stroke="#45413C" stroke-width="0.5" stroke-linecap="round" stroke-linejoin="round"/>
<path d="M15.245 14.97C15.245 15.97 13.9 16.75 12.245 16.75C10.59 16.75 9.245 15.955 9.245 14.97C9.245 13.985 10.59 12.75 12.245 12.75C13.9 12.75 15.245 14 15.245 14.97Z" fill="#FFE5EE"/>
<path d="M12.245 13.75C12.8365 13.7398 13.4192 13.8937 13.9285 14.1947C14.4378 14.4956 14.8537 14.9319 15.13 15.455C15.2072 15.2997 15.2466 15.1284 15.245 14.955C15.245 13.955 13.9 12.735 12.245 12.735C10.59 12.735 9.245 14 9.245 14.97C9.24338 15.1434 9.28279 15.3147 9.36 15.47C9.63424 14.9441 10.0492 14.5048 10.5587 14.2011C11.0681 13.8974 11.652 13.7412 12.245 13.75Z" fill="white"/>
<path d="M15.245 14.97C15.245 15.97 13.9 16.75 12.245 16.75C10.59 16.75 9.245 15.955 9.245 14.97C9.245 13.985 10.59 12.75 12.245 12.75C13.9 12.75 15.245 14 15.245 14.97Z" stroke="#45413C" stroke-width="0.5" stroke-linecap="round" stroke-linejoin="round"/>
<path d="M15.495 11C15.495 11.1989 15.574 11.3897 15.7147 11.5303C15.8553 11.671 16.0461 11.75 16.245 11.75C16.4439 11.75 16.6347 11.671 16.7753 11.5303C16.916 11.3897 16.995 11.1989 16.995 11C16.995 10.8011 16.916 10.6103 16.7753 10.4697C16.6347 10.329 16.4439 10.25 16.245 10.25C16.0461 10.25 15.8553 10.329 15.7147 10.4697C15.574 10.6103 15.495 10.8011 15.495 11Z" fill="#45413C" stroke="#45413C" stroke-width="0.5" stroke-linecap="round" stroke-linejoin="round"/>
<path d="M7.495 11C7.495 11.1989 7.57401 11.3897 7.71466 11.5303C7.85532 11.671 8.04608 11.75 8.245 11.75C8.44391 11.75 8.63467 11.671 8.77532 11.5303C8.91598 11.3897 8.995 11.1989 8.995 11C8.995 10.8011 8.91598 10.6103 8.77532 10.4697C8.63467 10.329 8.44391 10.25 8.245 10.25C8.04608 10.25 7.85532 10.329 7.71466 10.4697C7.57401 10.6103 7.495 10.8011 7.495 11Z" fill="#45413C" stroke="#45413C" stroke-width="0.5" stroke-linecap="round" stroke-linejoin="round"/>
<path d="M19.565 14.09C19.565 14.365 19.155 14.59 18.655 14.59C18.155 14.59 17.745 14.365 17.745 14.09C17.745 13.815 18.15 13.59 18.655 13.59C19.16 13.59 19.565 13.815 19.565 14.09Z" fill="#FF6196"/>
<path d="M6.745 14.09C6.745 14.365 6.34 14.59 5.835 14.59C5.33 14.59 4.925 14.365 4.925 14.09C4.925 13.815 5.335 13.59 5.835 13.59C6.335 13.59 6.745 13.815 6.745 14.09Z" fill="#FF6196"/>
<path d="M10.495 14.875C10.495 15.0408 10.5477 15.1997 10.6414 15.3169C10.7352 15.4342 10.8624 15.5 10.995 15.5C11.1276 15.5 11.2548 15.4342 11.3485 15.3169C11.4423 15.1997 11.495 15.0408 11.495 14.875C11.495 14.7092 11.4423 14.5503 11.3485 14.4331C11.2548 14.3158 11.1276 14.25 10.995 14.25C10.8624 14.25 10.7352 14.3158 10.6414 14.4331C10.5477 14.5503 10.495 14.7092 10.495 14.875Z" fill="#FF87AF" stroke="#45413C" stroke-width="0.5" stroke-linecap="round" stroke-linejoin="round"/>
<path d="M12.995 14.875C12.995 15.0408 13.0477 15.1997 13.1414 15.3169C13.2352 15.4342 13.3624 15.5 13.495 15.5C13.6276 15.5 13.7548 15.4342 13.8485 15.3169C13.9423 15.1997 13.995 15.0408 13.995 14.875C13.995 14.7092 13.9423 14.5503 13.8485 14.4331C13.7548 14.3158 13.6276 14.25 13.495 14.25C13.3624 14.25 13.2352 14.3158 13.1414 14.4331C13.0477 14.5503 12.995 14.7092 12.995 14.875Z" fill="#FF87AF" stroke="#45413C" stroke-width="0.5" stroke-linecap="round" stroke-linejoin="round"/>
</svg>
