<svg width="25" height="24" viewBox="0 0 25 24" fill="none" xmlns="http://www.w3.org/2000/svg">
<path d="M9.70497 11.045C9.70497 11.045 6.16497 8.91999 5.45497 9.29499C4.74497 9.66999 5.74497 13.38 7.95497 14.295C10.165 15.21 9.70497 11.045 9.70497 11.045Z" fill="#FFE500"/>
<path d="M5.70499 10.54C6.30499 10.22 8.95999 11.71 9.73999 12.165C9.75207 11.7913 9.74038 11.4172 9.70499 11.045C9.70499 11.045 6.16499 8.91999 5.45499 9.29499C5.13999 9.45999 5.15999 10.295 5.47999 11.235C5.46999 10.88 5.54499 10.625 5.70499 10.54Z" fill="#FFF48C"/>
<path d="M9.70497 11.045C9.70497 11.045 6.16497 8.91999 5.45497 9.29499C4.74497 9.66999 5.74497 13.38 7.95497 14.295C10.165 15.21 9.70497 11.045 9.70497 11.045Z" stroke="#45413C" stroke-width="0.5" stroke-linecap="round" stroke-linejoin="round"/>
<path d="M14.785 11.045C14.785 11.045 18.325 8.91999 19.035 9.29499C19.745 9.66999 18.74 13.38 16.535 14.295C14.33 15.21 14.785 11.045 14.785 11.045Z" fill="#FFE500"/>
<path d="M18.785 10.54C18.18 10.22 15.525 11.71 14.75 12.165C14.7379 11.7913 14.7496 11.4172 14.785 11.045C14.785 11.045 18.325 8.91999 19.035 9.29499C19.35 9.45999 19.325 10.295 19.005 11.235C19.015 10.88 18.945 10.625 18.785 10.54Z" fill="#FFF48C"/>
<path d="M14.785 11.045C14.785 11.045 18.325 8.91999 19.035 9.29499C19.745 9.66999 18.74 13.38 16.535 14.295C14.33 15.21 14.785 11.045 14.785 11.045Z" stroke="#45413C" stroke-width="0.5" stroke-linecap="round" stroke-linejoin="round"/>
<path opacity="0.15" d="M6.495 22.75C6.495 22.9489 7.1008 23.1397 8.17913 23.2803C9.25747 23.421 10.72 23.5 12.245 23.5C13.77 23.5 15.2325 23.421 16.3109 23.2803C17.3892 23.1397 17.995 22.9489 17.995 22.75C17.995 22.5511 17.3892 22.3603 16.3109 22.2197C15.2325 22.079 13.77 22 12.245 22C10.72 22 9.25747 22.079 8.17913 22.2197C7.1008 22.3603 6.495 22.5511 6.495 22.75Z" fill="#45413C"/>
<path d="M6.995 15.5C6.995 17.1576 7.54812 18.7473 8.53268 19.9194C9.51725 21.0915 10.8526 21.75 12.245 21.75C13.6374 21.75 14.9727 21.0915 15.9573 19.9194C16.9419 18.7473 17.495 17.1576 17.495 15.5C17.495 13.8424 16.9419 12.2527 15.9573 11.0806C14.9727 9.90848 13.6374 9.25 12.245 9.25C10.8526 9.25 9.51725 9.90848 8.53268 11.0806C7.54812 12.2527 6.995 13.8424 6.995 15.5Z" fill="#FFE500"/>
<path d="M16.365 11.635C15.8753 12.2598 15.2498 12.765 14.5361 13.1124C13.8223 13.4598 13.0388 13.6403 12.245 13.6403C11.4512 13.6403 10.6677 13.4598 9.95395 13.1124C9.24017 12.765 8.61475 12.2598 8.125 11.635C8.55698 10.9242 9.16063 10.3332 9.88052 9.91652C10.6004 9.49979 11.4135 9.2706 12.245 9.25C13.0765 9.2706 13.8896 9.49979 14.6095 9.91652C15.3294 10.3332 15.933 10.9242 16.365 11.635Z" fill="#EBCB00"/>
<path d="M6.995 15.5C6.995 17.1576 7.54812 18.7473 8.53268 19.9194C9.51725 21.0915 10.8526 21.75 12.245 21.75C13.6374 21.75 14.9727 21.0915 15.9573 19.9194C16.9419 18.7473 17.495 17.1576 17.495 15.5C17.495 13.8424 16.9419 12.2527 15.9573 11.0806C14.9727 9.90848 13.6374 9.25 12.245 9.25C10.8526 9.25 9.51725 9.90848 8.53268 11.0806C7.54812 12.2527 6.995 13.8424 6.995 15.5V15.5Z" stroke="#45413C" stroke-width="0.5" stroke-linecap="round" stroke-linejoin="round"/>
<path d="M6.995 6.5C6.995 7.89239 7.54812 9.22775 8.53268 10.2123C9.51725 11.1969 10.8526 11.75 12.245 11.75C13.6374 11.75 14.9727 11.1969 15.9573 10.2123C16.9419 9.22775 17.495 7.89239 17.495 6.5C17.495 5.10761 16.9419 3.77226 15.9573 2.78769C14.9727 1.80312 13.6374 1.25 12.245 1.25C10.8526 1.25 9.51725 1.80312 8.53268 2.78769C7.54812 3.77226 6.995 5.10761 6.995 6.5Z" fill="#FFE500"/>
<path d="M12.245 2.73003C13.5067 2.73047 14.7259 3.18568 15.6792 4.0122C16.6324 4.83872 17.2558 5.98115 17.435 7.23003C17.534 6.51791 17.4856 5.79304 17.2927 5.10043C17.0998 4.40781 16.7666 3.76225 16.3137 3.20384C15.8609 2.64542 15.298 2.18607 14.6602 1.85432C14.0223 1.52257 13.3231 1.3255 12.6058 1.27535C11.8886 1.2252 11.1688 1.32304 10.4909 1.56279C9.81312 1.80255 9.19183 2.1791 8.66566 2.66906C8.13949 3.15902 7.71967 3.75192 7.43227 4.41095C7.14487 5.06998 6.99603 5.78106 6.995 6.50003C6.99821 6.74759 7.01658 6.99472 7.04999 7.24003C7.22713 5.98848 7.85028 4.84299 8.80479 4.01433C9.75931 3.18568 10.981 2.72961 12.245 2.73003Z" fill="#FFF48C"/>
<path d="M6.995 6.5C6.995 7.89239 7.54812 9.22774 8.53268 10.2123C9.51725 11.1969 10.8526 11.75 12.245 11.75C13.6374 11.75 14.9727 11.1969 15.9573 10.2123C16.9419 9.22774 17.495 7.89239 17.495 6.5C17.495 5.10761 16.9419 3.77226 15.9573 2.78769C14.9727 1.80312 13.6374 1.25 12.245 1.25C10.8526 1.25 9.51725 1.80312 8.53268 2.78769C7.54812 3.77226 6.995 5.10761 6.995 6.5V6.5Z" stroke="#45413C" stroke-width="0.5" stroke-linecap="round" stroke-linejoin="round"/>
<path d="M19.78 14.285L18.13 15.935C18.0495 16.0147 17.9408 16.0594 17.8275 16.0594C17.7142 16.0594 17.6055 16.0147 17.525 15.935L15.34 13.75C15.3 13.7098 15.2525 13.6779 15.2002 13.6561C15.1478 13.6343 15.0917 13.6231 15.035 13.6231C14.9783 13.6231 14.9222 13.6343 14.8698 13.6561C14.8175 13.6779 14.7699 13.7098 14.73 13.75L12.545 15.935C12.4645 16.0147 12.3558 16.0594 12.2425 16.0594C12.1292 16.0594 12.0205 16.0147 11.94 15.935L9.74498 13.75C9.70545 13.7099 9.65835 13.6781 9.60642 13.6564C9.55449 13.6347 9.49876 13.6235 9.44248 13.6235C9.3862 13.6235 9.33047 13.6347 9.27854 13.6564C9.22661 13.6781 9.17952 13.7099 9.13998 13.75L6.95498 15.935C6.87447 16.0147 6.76576 16.0594 6.65248 16.0594C6.5392 16.0594 6.43049 16.0147 6.34998 15.935L4.69498 14.285C4.66433 14.2551 4.62546 14.2351 4.58334 14.2274C4.54122 14.2198 4.49778 14.2248 4.45858 14.242C4.41937 14.2592 4.38619 14.2877 4.36328 14.3239C4.34037 14.36 4.32877 14.4022 4.32998 14.445C4.69498 20 8.09498 22.75 12.245 22.75C16.395 22.75 19.795 20 20.15 14.445C20.1523 14.4012 20.1411 14.3577 20.118 14.3204C20.0949 14.2831 20.0609 14.2538 20.0206 14.2363C19.9803 14.2189 19.9357 14.2143 19.8927 14.2229C19.8497 14.2316 19.8103 14.2533 19.78 14.285Z" fill="#F0F0F0"/>
<path d="M4.70498 15.855L6.35998 17.29C6.44697 17.3561 6.55322 17.3919 6.66248 17.3919C6.77174 17.3919 6.87799 17.3561 6.96498 17.29L9.14998 15.39C9.23697 15.3239 9.34322 15.2881 9.45248 15.2881C9.56174 15.2881 9.66799 15.3239 9.75498 15.39L11.94 17.29C12.027 17.3561 12.1332 17.3919 12.2425 17.3919C12.3517 17.3919 12.458 17.3561 12.545 17.29L14.745 15.39C14.8324 15.3227 14.9396 15.2862 15.05 15.2862C15.1603 15.2862 15.2676 15.3227 15.355 15.39L17.54 17.29C17.627 17.3561 17.7332 17.3919 17.8425 17.3919C17.9517 17.3919 18.058 17.3561 18.145 17.29L19.795 15.855C19.8226 15.8325 19.855 15.8168 19.8897 15.809C19.9244 15.8012 19.9604 15.8015 19.995 15.81C20.07 15.375 20.13 14.925 20.165 14.445C20.1673 14.4012 20.1561 14.3577 20.133 14.3204C20.1099 14.2831 20.0759 14.2538 20.0356 14.2363C19.9953 14.2189 19.9507 14.2143 19.9077 14.2229C19.8647 14.2316 19.8253 14.2533 19.795 14.285L18.145 15.935C18.0645 16.0147 17.9558 16.0594 17.8425 16.0594C17.7292 16.0594 17.6205 16.0147 17.54 15.935L15.34 13.75C15.3 13.7098 15.2525 13.6779 15.2002 13.6561C15.1478 13.6343 15.0917 13.6231 15.035 13.6231C14.9783 13.6231 14.9222 13.6343 14.8698 13.6561C14.8175 13.6779 14.7699 13.7098 14.73 13.75L12.545 15.935C12.4645 16.0147 12.3558 16.0594 12.2425 16.0594C12.1292 16.0594 12.0205 16.0147 11.94 15.935L9.74498 13.75C9.70545 13.7099 9.65835 13.6781 9.60642 13.6564C9.55449 13.6347 9.49876 13.6235 9.44248 13.6235C9.3862 13.6235 9.33047 13.6347 9.27854 13.6564C9.22661 13.6781 9.17952 13.7099 9.13998 13.75L6.95498 15.935C6.87447 16.0147 6.76576 16.0594 6.65248 16.0594C6.5392 16.0594 6.43049 16.0147 6.34998 15.935L4.69498 14.285C4.66433 14.2551 4.62546 14.2351 4.58334 14.2274C4.54122 14.2198 4.49778 14.2248 4.45858 14.242C4.41937 14.2592 4.38619 14.2877 4.36328 14.3239C4.34037 14.36 4.32877 14.4022 4.32998 14.445C4.36008 14.9027 4.41516 15.3583 4.49498 15.81C4.53096 15.7994 4.56902 15.798 4.6057 15.8058C4.64237 15.8137 4.6765 15.8306 4.70498 15.855Z" fill="white"/>
<path d="M19.78 14.285L18.13 15.935C18.0495 16.0147 17.9408 16.0594 17.8275 16.0594C17.7142 16.0594 17.6055 16.0147 17.525 15.935L15.34 13.75C15.3 13.7098 15.2525 13.6779 15.2002 13.6561C15.1478 13.6343 15.0917 13.6231 15.035 13.6231C14.9783 13.6231 14.9222 13.6343 14.8698 13.6561C14.8175 13.6779 14.7699 13.7098 14.73 13.75L12.545 15.935C12.4645 16.0147 12.3558 16.0594 12.2425 16.0594C12.1292 16.0594 12.0205 16.0147 11.94 15.935L9.74498 13.75C9.70545 13.7099 9.65835 13.6781 9.60642 13.6564C9.55449 13.6347 9.49877 13.6235 9.44248 13.6235C9.3862 13.6235 9.33047 13.6347 9.27854 13.6564C9.22661 13.6781 9.17952 13.7099 9.13998 13.75L6.95498 15.935C6.87447 16.0147 6.76576 16.0594 6.65248 16.0594C6.5392 16.0594 6.43049 16.0147 6.34998 15.935L4.69498 14.285C4.66433 14.2551 4.62546 14.2351 4.58334 14.2274C4.54122 14.2198 4.49778 14.2248 4.45858 14.242C4.41937 14.2592 4.38619 14.2877 4.36328 14.3239C4.34037 14.36 4.32877 14.4022 4.32998 14.445C4.69498 20 8.09498 22.75 12.245 22.75C16.395 22.75 19.795 20 20.15 14.445C20.1523 14.4012 20.1411 14.3577 20.118 14.3204C20.0949 14.2831 20.0609 14.2538 20.0206 14.2363C19.9803 14.2189 19.9357 14.2143 19.8927 14.2229C19.8497 14.2316 19.8103 14.2533 19.78 14.285V14.285Z" stroke="#45413C" stroke-width="0.5" stroke-linecap="round" stroke-linejoin="round"/>
<path d="M11.66 7.56003L10.66 8.32503C10.5569 8.40033 10.4866 8.51219 10.4633 8.63769C10.4401 8.76318 10.4657 8.89282 10.535 9.00003L11.245 10C11.3608 10.1562 11.5115 10.283 11.6852 10.3705C11.8588 10.4579 12.0505 10.5034 12.245 10.5034C12.4394 10.5034 12.6311 10.4579 12.8047 10.3705C12.9784 10.283 13.1292 10.1562 13.245 10L13.955 9.00003C14.0324 8.89367 14.0648 8.76106 14.0452 8.63096C14.0255 8.50086 13.9554 8.38375 13.85 8.30503L12.85 7.54003C12.6756 7.41543 12.4659 7.35012 12.2517 7.35372C12.0374 7.35732 11.83 7.42964 11.66 7.56003Z" fill="#FF8A14"/>
<path d="M10.595 9.105C10.7 9.025 11.545 8.55 11.66 8.485C11.8392 8.38652 12.0404 8.33489 12.245 8.33489C12.4495 8.33489 12.6507 8.38652 12.83 8.485C12.945 8.55 13.79 9.025 13.895 9.105L13.955 9.02C14.0324 8.91364 14.0649 8.78104 14.0452 8.65094C14.0255 8.52083 13.9554 8.40372 13.85 8.325L12.85 7.56C12.6797 7.43715 12.475 7.37103 12.265 7.37103C12.055 7.37103 11.8503 7.43715 11.68 7.56L10.68 8.325C10.5737 8.39729 10.4993 8.50776 10.4723 8.63346C10.4453 8.75916 10.4677 8.89042 10.535 9L10.595 9.105Z" fill="#FFAA54"/>
<path d="M11.66 7.56003L10.66 8.32503C10.5569 8.40033 10.4866 8.51219 10.4633 8.63769C10.4401 8.76318 10.4657 8.89282 10.535 9.00003L11.245 10C11.3608 10.1562 11.5115 10.283 11.6852 10.3705C11.8588 10.4579 12.0505 10.5034 12.245 10.5034C12.4394 10.5034 12.6311 10.4579 12.8047 10.3705C12.9784 10.283 13.1292 10.1562 13.245 10L13.955 9.00003C14.0324 8.89367 14.0648 8.76106 14.0452 8.63096C14.0255 8.50086 13.9554 8.38375 13.85 8.30503L12.85 7.54003C12.6756 7.41543 12.4659 7.35012 12.2517 7.35372C12.0374 7.35732 11.83 7.42964 11.66 7.56003Z" stroke="#45413C" stroke-width="0.5" stroke-linecap="round" stroke-linejoin="round"/>
<path d="M10.44 8.72998H10.495C11.0588 8.9588 11.6455 9.12643 12.245 9.22998C12.8444 9.1259 13.4311 8.95829 13.995 8.72998H14.05" stroke="#45413C" stroke-width="0.5" stroke-linecap="round" stroke-linejoin="round"/>
<path d="M14.245 5.82002C14.245 5.99904 14.3161 6.17073 14.4427 6.29732C14.5693 6.4239 14.741 6.49502 14.92 6.49502C15.099 6.49502 15.2707 6.4239 15.3973 6.29732C15.5239 6.17073 15.595 5.99904 15.595 5.82002C15.595 5.641 15.5239 5.46931 15.3973 5.34272C15.2707 5.21614 15.099 5.14502 14.92 5.14502C14.741 5.14502 14.5693 5.21614 14.4427 5.34272C14.3161 5.46931 14.245 5.641 14.245 5.82002Z" fill="#45413C" stroke="#45413C" stroke-width="0.5" stroke-linecap="round" stroke-linejoin="round"/>
<path d="M8.88995 5.82002C8.88995 5.90866 8.90741 5.99644 8.94133 6.07833C8.97526 6.16023 9.02498 6.23464 9.08766 6.29732C9.15034 6.36 9.22475 6.40972 9.30664 6.44364C9.38854 6.47756 9.47631 6.49502 9.56495 6.49502C9.6536 6.49502 9.74137 6.47756 9.82326 6.44364C9.90516 6.40972 9.97957 6.36 10.0423 6.29732C10.1049 6.23464 10.1546 6.16023 10.1886 6.07833C10.2225 5.99644 10.24 5.90866 10.24 5.82002C10.24 5.73138 10.2225 5.6436 10.1886 5.56171C10.1546 5.47981 10.1049 5.4054 10.0423 5.34272C9.97957 5.28004 9.90516 5.23032 9.82326 5.1964C9.74137 5.16248 9.6536 5.14502 9.56495 5.14502C9.47631 5.14502 9.38854 5.16248 9.30664 5.1964C9.22475 5.23032 9.15034 5.28004 9.08766 5.34272C9.02498 5.4054 8.97526 5.47981 8.94133 5.56171C8.90741 5.6436 8.88995 5.73138 8.88995 5.82002Z" fill="#45413C" stroke="#45413C" stroke-width="0.5" stroke-linecap="round" stroke-linejoin="round"/>
<path d="M16.635 7.82001C16.635 8.09501 16.27 8.32001 15.815 8.32001C15.36 8.32001 14.995 8.09501 14.995 7.82001C14.995 7.54501 15.36 7.32001 15.815 7.32001C16.27 7.32001 16.635 7.54501 16.635 7.82001Z" fill="#EBCB00"/>
<path d="M9.49498 7.82001C9.49498 8.09501 9.12498 8.32001 8.66998 8.32001C8.21498 8.32001 7.84998 8.09501 7.84998 7.82001C7.84998 7.54501 8.21998 7.32001 8.66998 7.32001C9.11998 7.32001 9.49498 7.54501 9.49498 7.82001Z" fill="#EBCB00"/>
</svg>
