<svg width="25" height="24" viewBox="0 0 25 24" fill="none" xmlns="http://www.w3.org/2000/svg">
<path opacity="0.15" d="M3 22.195C3 22.4085 4.01722 22.6133 5.82788 22.7642C7.63855 22.9152 10.0943 23 12.655 23C15.2157 23 17.6715 22.9152 19.4821 22.7642C21.2928 22.6133 22.31 22.4085 22.31 22.195C22.31 21.9815 21.2928 21.7768 19.4821 21.6258C17.6715 21.4748 15.2157 21.39 12.655 21.39C10.0943 21.39 7.63855 21.4748 5.82788 21.6258C4.01722 21.7768 3 21.9815 3 22.195Z" fill="#45413C"/>
<path d="M22.565 9.76999C22.5641 9.35811 22.425 8.95845 22.17 8.63499C21.4968 7.73817 21.1446 6.64108 21.17 5.51999V4.23499H20.025V5.61999C20.0236 5.98644 19.8771 6.33744 19.6176 6.5961C19.358 6.85475 19.0064 6.99999 18.64 6.99999H17.715C17.3481 6.99867 16.9965 6.85233 16.7371 6.59287C16.4776 6.33342 16.3313 5.9819 16.33 5.61498V4.23499H15.18V11.56C15.18 12.2947 15.0353 13.0223 14.7541 13.7011C14.4729 14.3799 14.0608 14.9967 13.5412 15.5162C13.0217 16.0358 12.4049 16.4479 11.7261 16.7291C11.0473 17.0103 10.3197 17.155 9.58497 17.155H7.58497C6.38266 17.1487 5.22103 17.5901 4.32634 18.3933C3.43164 19.1965 2.86792 20.304 2.74497 21.5C2.74018 21.5635 2.74848 21.6273 2.76938 21.6875C2.79027 21.7477 2.82331 21.8029 2.86644 21.8498C2.90958 21.8967 2.96188 21.9342 3.02012 21.9601C3.07835 21.9859 3.14127 21.9995 3.20497 22H13.335C15.4156 22 17.411 21.1735 18.8822 19.7022C20.3534 18.231 21.18 16.2356 21.18 14.155V11.875C21.1802 11.7859 21.2063 11.6987 21.2551 11.6242C21.3039 11.5496 21.3734 11.4908 21.455 11.455C21.7844 11.3133 22.0651 11.0782 22.2624 10.7787C22.4596 10.4793 22.5648 10.1286 22.565 9.76999Z" fill="#F7E5C6"/>
<path d="M3.05499 21.965C3.40928 21.0593 4.02796 20.2811 4.83053 19.7318C5.63311 19.1825 6.58243 18.8874 7.55499 18.885H9.55499C10.2918 18.8889 11.0222 18.7473 11.7042 18.4682C12.3861 18.1891 13.0062 17.7781 13.5289 17.2587C14.0515 16.7393 14.4665 16.1217 14.7498 15.4415C15.0331 14.7613 15.1793 14.0319 15.18 13.295V11.56C15.18 12.2947 15.0353 13.0223 14.7541 13.7011C14.4729 14.3799 14.0608 14.9967 13.5412 15.5163C13.0217 16.0358 12.4049 16.4479 11.7261 16.7291C11.0473 17.0103 10.3197 17.155 9.58499 17.155H7.58499C6.38267 17.1487 5.22105 17.5901 4.32635 18.3933C3.43165 19.1965 2.86794 20.304 2.74499 21.5C2.73844 21.6008 2.76525 21.7009 2.82128 21.785C2.8773 21.869 2.95943 21.9323 3.05499 21.965Z" fill="#FFF5E3"/>
<path d="M15.34 7.09999C15.5897 7.17103 15.8227 7.29121 16.0253 7.45348C16.2279 7.61576 16.3961 7.81685 16.52 8.04499C16.6407 8.2551 16.8148 8.42957 17.0247 8.55074C17.2345 8.67191 17.4727 8.73547 17.715 8.73498H18.64C18.9401 8.7349 19.232 8.63733 19.4719 8.45699C19.7118 8.27664 19.8866 8.02326 19.97 7.73499C20.0079 7.61637 20.0806 7.51191 20.1787 7.43521C20.2768 7.35852 20.3957 7.31314 20.52 7.30499C20.6883 7.2911 20.8552 7.34427 20.9844 7.45291C21.1137 7.56154 21.1947 7.71684 21.21 7.88499C21.2847 8.79289 21.6178 9.66042 22.17 10.385C22.2341 10.4711 22.2925 10.5613 22.345 10.655C22.4873 10.3887 22.5628 10.0919 22.565 9.78999C22.5641 9.37811 22.425 8.97844 22.17 8.65498C21.4968 7.75817 21.1446 6.66108 21.17 5.53999V4.23499H20.025V5.61999C20.0237 5.98644 19.8772 6.33744 19.6176 6.5961C19.358 6.85475 19.0065 6.99999 18.64 6.99999H17.715C17.3481 6.99867 16.9966 6.85233 16.7371 6.59287C16.4777 6.33342 16.3313 5.9819 16.33 5.61498V4.23499H15.18V7.05999L15.34 7.09999Z" fill="#FFF5E3"/>
<path d="M22.565 9.76999C22.5641 9.35811 22.425 8.95845 22.17 8.63499C21.4968 7.73817 21.1446 6.64108 21.17 5.51999V4.23499H20.025V5.61999C20.0236 5.98644 19.8771 6.33744 19.6176 6.5961C19.358 6.85475 19.0064 6.99999 18.64 6.99999H17.715C17.3481 6.99867 16.9965 6.85233 16.7371 6.59287C16.4776 6.33342 16.3313 5.9819 16.33 5.61498V4.23499H15.18V11.56C15.18 12.2947 15.0353 13.0223 14.7541 13.7011C14.4729 14.3799 14.0608 14.9967 13.5412 15.5162C13.0217 16.0358 12.4049 16.4479 11.7261 16.7291C11.0473 17.0103 10.3197 17.155 9.58497 17.155H7.58497C6.38266 17.1487 5.22103 17.5901 4.32634 18.3933C3.43164 19.1965 2.86792 20.304 2.74497 21.5C2.74018 21.5635 2.74848 21.6273 2.76938 21.6875C2.79027 21.7477 2.82331 21.8029 2.86644 21.8498C2.90958 21.8967 2.96188 21.9342 3.02012 21.9601C3.07835 21.9859 3.14127 21.9995 3.20497 22H13.335C15.4156 22 17.411 21.1735 18.8822 19.7022C20.3534 18.231 21.18 16.2356 21.18 14.155V11.875C21.1802 11.7859 21.2063 11.6987 21.2551 11.6242C21.3039 11.5496 21.3734 11.4908 21.455 11.455C21.7844 11.3133 22.0651 11.0782 22.2624 10.7787C22.4596 10.4793 22.5648 10.1286 22.565 9.76999Z" stroke="#45413C" stroke-width="0.5" stroke-linecap="round" stroke-linejoin="round"/>
<path d="M17.67 2.885C17.6759 3.26454 17.5689 3.63729 17.3626 3.95591C17.1563 4.27452 16.8599 4.52463 16.5111 4.67447C16.1624 4.8243 15.7769 4.86711 15.4038 4.79745C15.0306 4.72779 14.6866 4.5488 14.4154 4.28322C14.1442 4.01764 13.958 3.67745 13.8805 3.30585C13.803 2.93425 13.8378 2.54801 13.9802 2.19617C14.1227 1.84433 14.3665 1.54278 14.6808 1.3298C14.995 1.11682 15.3654 1.00203 15.745 0.999999C16.2498 0.995991 16.7357 1.19203 17.0965 1.54526C17.4572 1.89849 17.6634 2.38017 17.67 2.885Z" fill="white" stroke="#45413C" stroke-width="0.5" stroke-linecap="round" stroke-linejoin="round"/>
<path d="M16.335 2.88499C16.3359 2.99948 16.303 3.1117 16.2403 3.20751C16.1776 3.30331 16.088 3.37841 15.9827 3.42336C15.8773 3.4683 15.7611 3.48107 15.6485 3.46005C15.536 3.43904 15.4322 3.38519 15.3502 3.30527C15.2682 3.22536 15.2117 3.12297 15.1878 3.011C15.1639 2.89902 15.1736 2.78248 15.2159 2.67605C15.2581 2.56962 15.3308 2.47807 15.425 2.41293C15.5192 2.34779 15.6305 2.31197 15.745 2.30999C15.8216 2.30867 15.8976 2.32253 15.9688 2.35077C16.04 2.37901 16.1049 2.42108 16.1598 2.47454C16.2147 2.528 16.2584 2.59179 16.2884 2.66224C16.3185 2.73269 16.3343 2.8084 16.335 2.88499Z" fill="#45413C"/>
<path d="M22.565 2.885C22.5709 3.26497 22.4637 3.63812 22.2569 3.95697C22.0502 4.27581 21.7532 4.52592 21.4039 4.67547C21.0545 4.82503 20.6686 4.86726 20.2951 4.79679C19.9217 4.72632 19.5777 4.54634 19.3069 4.27976C19.036 4.01317 18.8506 3.67204 18.7743 3.29977C18.6979 2.9275 18.7341 2.54093 18.8781 2.18926C19.0221 1.83759 19.2675 1.53672 19.583 1.32494C19.8986 1.11316 20.27 1.00005 20.65 1C21.1523 1.00122 21.6342 1.19928 21.9922 1.55167C22.3502 1.90407 22.5558 2.38274 22.565 2.885Z" fill="white" stroke="#45413C" stroke-width="0.5" stroke-linecap="round" stroke-linejoin="round"/>
<path d="M21.245 2.885C21.246 2.99992 21.2128 3.11254 21.1497 3.20858C21.0866 3.30462 20.9963 3.37973 20.8904 3.4244C20.7846 3.46907 20.6678 3.48127 20.5549 3.45946C20.4421 3.43764 20.3383 3.3828 20.2567 3.30189C20.1751 3.22098 20.1193 3.11764 20.0965 3.005C20.0738 2.89236 20.0849 2.77548 20.1287 2.66921C20.1724 2.56294 20.2468 2.47206 20.3423 2.4081C20.4377 2.34415 20.5501 2.31 20.665 2.31C20.818 2.30999 20.9647 2.37041 21.0734 2.4781C21.182 2.5858 21.2437 2.73204 21.245 2.885Z" fill="#45413C"/>
<path d="M11.025 7.23499C9.26243 7.23436 7.56616 7.9068 6.28277 9.11491C4.99939 10.323 4.22577 11.9756 4.11999 13.735C4.05789 14.4504 4.14155 15.171 4.3659 15.8531C4.59026 16.5353 4.95065 17.1649 5.42527 17.7038C5.8999 18.2426 6.47889 18.6797 7.12725 18.9884C7.7756 19.2971 8.47984 19.4711 9.19737 19.4999C9.9149 19.5287 10.6308 19.4116 11.3018 19.1558C11.9728 18.8999 12.5849 18.5107 13.1012 18.0115C13.6174 17.5123 14.027 16.9137 14.3053 16.2516C14.5835 15.5896 14.7246 14.8781 14.72 14.16H16.775C16.9317 14.1609 17.0867 14.1274 17.229 14.0618C17.3713 13.9962 17.4974 13.9001 17.5985 13.7804C17.6997 13.6607 17.7732 13.5203 17.8141 13.369C17.8549 13.2177 17.8621 13.0593 17.835 12.905C17.5425 11.3125 16.7009 9.87297 15.4566 8.83697C14.2123 7.80097 12.6441 7.23409 11.025 7.23499Z" fill="#DEA47A"/>
<path d="M11.025 9.195C14.165 9.195 15.86 11.29 16.71 14.155H16.775C16.9317 14.1559 17.0866 14.1224 17.229 14.0568C17.3713 13.9912 17.4974 13.8952 17.5985 13.7754C17.6996 13.6557 17.7732 13.5153 17.8141 13.364C17.8549 13.2127 17.8621 13.0543 17.835 12.9C17.5158 11.2072 16.5771 9.69418 15.2022 8.6563C13.8274 7.61843 12.115 7.13023 10.3996 7.28703C8.6841 7.44384 7.08865 8.23438 5.92474 9.50432C4.76083 10.7743 4.11202 12.4324 4.10498 14.155C4.10779 14.4652 4.13622 14.7745 4.18998 15.08C4.43649 13.4435 5.26178 11.9496 6.51595 10.8698C7.77012 9.78992 9.36998 9.19569 11.025 9.195Z" fill="#F0C2A1"/>
<path d="M11.025 7.23499C9.26243 7.23436 7.56616 7.9068 6.28277 9.11491C4.99939 10.323 4.22577 11.9756 4.11999 13.735C4.05789 14.4504 4.14155 15.171 4.3659 15.8531C4.59026 16.5353 4.95065 17.1649 5.42527 17.7038C5.8999 18.2426 6.47889 18.6797 7.12725 18.9884C7.7756 19.2971 8.47984 19.4711 9.19737 19.4999C9.9149 19.5287 10.6308 19.4116 11.3018 19.1558C11.9728 18.8999 12.5849 18.5107 13.1012 18.0115C13.6174 17.5123 14.027 16.9137 14.3053 16.2516C14.5835 15.5896 14.7246 14.8781 14.72 14.16H16.775C16.9317 14.1609 17.0867 14.1274 17.229 14.0618C17.3713 13.9962 17.4974 13.9001 17.5985 13.7804C17.6997 13.6607 17.7732 13.5203 17.8141 13.369C17.8549 13.2177 17.8621 13.0593 17.835 12.905C17.5425 11.3125 16.7009 9.87297 15.4566 8.83697C14.2123 7.80097 12.6441 7.23409 11.025 7.23499V7.23499Z" stroke="#45413C" stroke-width="0.5" stroke-linecap="round" stroke-linejoin="round"/>
<path d="M9.87496 14.155C9.86361 13.9664 9.89096 13.7776 9.9553 13.6C10.0197 13.4224 10.1196 13.2598 10.2491 13.1223C10.3786 12.9848 10.5349 12.8752 10.7083 12.8003C10.8817 12.7254 11.0686 12.6868 11.2575 12.6868C11.4463 12.6868 11.6332 12.7254 11.8066 12.8003C11.98 12.8752 12.1363 12.9848 12.2658 13.1223C12.3953 13.2598 12.4953 13.4224 12.5596 13.6C12.624 13.7776 12.6513 13.9664 12.64 14.155C12.6555 14.513 12.5984 14.8705 12.4721 15.2058C12.3458 15.5412 12.153 15.8475 11.9051 16.1064C11.6573 16.3652 11.3596 16.5712 11.03 16.7119C10.7005 16.8526 10.3458 16.9252 9.98746 16.9252C9.6291 16.9252 9.27445 16.8526 8.94488 16.7119C8.61531 16.5712 8.31764 16.3652 8.0698 16.1064C7.82196 15.8475 7.62908 15.5412 7.50279 15.2058C7.3765 14.8705 7.31941 14.513 7.33496 14.155C7.37014 13.1992 7.77456 12.2943 8.4632 11.6305C9.15183 10.9668 10.071 10.5959 11.0275 10.5959C11.9839 10.5959 12.9031 10.9668 13.5917 11.6305C14.2804 12.2943 14.6848 13.1992 14.72 14.155" stroke="#45413C" stroke-width="0.5" stroke-linecap="round" stroke-linejoin="round"/>
</svg>
