<svg width="25" height="24" viewBox="0 0 25 24" fill="none" xmlns="http://www.w3.org/2000/svg">
<path d="M12.355 20.725L14.07 19.865C14.1144 19.8405 14.1643 19.8277 14.215 19.8277C14.2657 19.8277 14.3156 19.8405 14.36 19.865L15.005 20.305C15.0381 20.3281 15.0757 20.344 15.1153 20.3518C15.1549 20.3595 15.1957 20.3589 15.235 20.35C15.9973 20.1434 16.7032 19.7674 17.3 19.25C17.8793 18.6909 18.3401 18.0209 18.655 17.28C18.672 17.2445 18.696 17.2128 18.7255 17.1869C18.7551 17.1609 18.7897 17.1413 18.8271 17.1291C18.8645 17.117 18.904 17.1125 18.9432 17.1161C18.9824 17.1197 19.0204 17.1313 19.055 17.15L19.455 17.38C19.5142 17.4139 19.5835 17.4255 19.6505 17.4127C19.7175 17.3999 19.7776 17.3634 19.82 17.31C20.5729 16.2698 21.0354 15.048 21.16 13.77C21.384 12.1006 21.1633 10.4017 20.52 8.84502L21.32 9.01502C21.3617 9.024 21.4049 9.02351 21.4463 9.01359C21.4878 9.00367 21.5265 8.98457 21.5596 8.9577C21.5927 8.93083 21.6194 8.89688 21.6376 8.85834C21.6559 8.8198 21.6652 8.77766 21.665 8.73502C21.6262 7.40459 21.2176 6.11125 20.485 5.00002C19.8849 4.03041 19.0621 3.21793 18.085 2.63002C18.0468 2.6083 18.0141 2.57803 17.9895 2.54158C17.965 2.50513 17.9491 2.46349 17.9433 2.41991C17.9375 2.37633 17.9419 2.332 17.956 2.29039C17.9702 2.24877 17.9938 2.211 18.025 2.18002L18.175 2.03502C18.2077 2.00305 18.2321 1.96369 18.2464 1.92028C18.2606 1.87686 18.2642 1.83066 18.2569 1.78556C18.2495 1.74046 18.2314 1.69779 18.2041 1.66115C18.1768 1.62451 18.1411 1.59497 18.1 1.57502C17.1662 1.12633 16.1345 0.919991 15.1 0.97502C14.1188 1.04561 13.1776 1.39228 12.385 1.97502C12.3366 2.01113 12.2779 2.03065 12.2175 2.03065C12.1571 2.03065 12.0984 2.01113 12.05 1.97502C11.2574 1.39228 10.3162 1.04561 9.33501 0.97502C8.3005 0.919991 7.26878 1.12633 6.33501 1.57502C6.2939 1.59497 6.25819 1.62451 6.23089 1.66115C6.2036 1.69779 6.18551 1.74046 6.17815 1.78556C6.1708 1.83066 6.1744 1.87686 6.18865 1.92028C6.20289 1.96369 6.22737 2.00305 6.26001 2.03502L6.40501 2.18002C6.43642 2.21065 6.46033 2.24812 6.47489 2.28951C6.48945 2.3309 6.49425 2.37509 6.48893 2.41864C6.4836 2.46219 6.4683 2.50392 6.4442 2.54058C6.42011 2.57725 6.38787 2.60786 6.35001 2.63002C5.37915 3.21907 4.56314 4.03165 3.97001 5.00002C3.22761 6.11773 2.81836 7.42352 2.79001 8.76502C2.78996 8.80714 2.79924 8.84875 2.81719 8.88685C2.83514 8.92495 2.86132 8.9586 2.89383 8.98538C2.92635 9.01215 2.96439 9.03139 3.00523 9.0417C3.04606 9.05202 3.08868 9.05315 3.13001 9.04502L3.93501 8.87502C3.29352 10.4287 3.07278 12.1239 3.29501 13.79C3.41724 15.0686 3.87997 16.291 4.63501 17.33C4.67656 17.383 4.73583 17.4193 4.80195 17.4322C4.86808 17.445 4.93662 17.4336 4.99501 17.4L5.40001 17.17C5.43459 17.1513 5.47264 17.1397 5.51182 17.1361C5.551 17.1325 5.5905 17.137 5.62792 17.1491C5.66534 17.1613 5.6999 17.1809 5.72948 17.2069C5.75907 17.2328 5.78306 17.2645 5.80001 17.3C6.1136 18.0417 6.57459 18.7119 7.15501 19.27C7.75909 19.7907 8.47384 20.1669 9.24501 20.37C9.28437 20.3789 9.32515 20.3795 9.36476 20.3718C9.40436 20.364 9.44191 20.3481 9.47501 20.325L10.12 19.885C10.1644 19.8605 10.2143 19.8477 10.265 19.8477C10.3157 19.8477 10.3656 19.8605 10.41 19.885L12.125 20.745C12.1626 20.7579 12.2025 20.7628 12.2421 20.7594C12.2817 20.7559 12.3202 20.7442 12.355 20.725Z" fill="#BF8256"/>
<path d="M2.99501 9.03002C3.19555 8.23554 3.53402 7.48244 3.99501 6.80502C4.59503 5.83663 5.41791 5.02575 6.39501 4.44002C6.43287 4.41786 6.46511 4.38725 6.4892 4.35058C6.5133 4.31392 6.5286 4.27219 6.53393 4.22864C6.53925 4.18509 6.53445 4.1409 6.51989 4.09951C6.50533 4.05812 6.48142 4.02065 6.45001 3.99002L6.30501 3.84502C6.27237 3.81305 6.24789 3.77369 6.23364 3.73028C6.2194 3.68686 6.2158 3.64066 6.22315 3.59556C6.23051 3.55046 6.24859 3.50779 6.27589 3.47115C6.30319 3.43451 6.3389 3.40497 6.38001 3.38502C7.31294 2.93384 8.34531 2.72737 9.38001 2.78502C10.3606 2.85827 11.3012 3.20468 12.095 3.78502C12.1423 3.8236 12.2015 3.84467 12.2625 3.84467C12.3235 3.84467 12.3827 3.8236 12.43 3.78502C13.2239 3.20468 14.1644 2.85827 15.145 2.78502C16.1797 2.72737 17.2121 2.93384 18.145 3.38502C18.1861 3.40497 18.2218 3.43451 18.2491 3.47115C18.2764 3.50779 18.2945 3.55046 18.3019 3.59556C18.3092 3.64066 18.3056 3.68686 18.2914 3.73028C18.2771 3.77369 18.2527 3.81305 18.22 3.84502L18.07 3.99002C18.0388 4.021 18.0152 4.05877 18.001 4.10039C17.9869 4.142 17.9825 4.18633 17.9883 4.22991C17.9941 4.27349 18.01 4.31513 18.0345 4.35158C18.0591 4.38803 18.0918 4.4183 18.13 4.44002C19.106 5.02713 19.9286 5.83772 20.53 6.80502C20.991 7.48244 21.3295 8.23554 21.53 9.03002C21.589 9.01194 21.6407 8.97553 21.6775 8.92608C21.7144 8.87662 21.7345 8.8167 21.735 8.75502C21.6791 7.41082 21.2459 6.10951 20.485 5.00002C19.8849 4.03041 19.0621 3.21793 18.085 2.63002C18.0468 2.6083 18.0141 2.57803 17.9895 2.54158C17.965 2.50513 17.9491 2.46349 17.9433 2.41991C17.9375 2.37633 17.9419 2.332 17.956 2.29039C17.9702 2.24877 17.9938 2.211 18.025 2.18002L18.175 2.03502C18.2077 2.00305 18.2321 1.96369 18.2464 1.92028C18.2606 1.87686 18.2642 1.83066 18.2569 1.78556C18.2495 1.74046 18.2314 1.69779 18.2041 1.66115C18.1768 1.62451 18.1411 1.59497 18.1 1.57502C17.1662 1.12633 16.1345 0.919991 15.1 0.97502C14.1188 1.04561 13.1776 1.39228 12.385 1.97502C12.3366 2.01113 12.2779 2.03065 12.2175 2.03065C12.1571 2.03065 12.0984 2.01113 12.05 1.97502C11.2574 1.39228 10.3162 1.04561 9.33501 0.97502C8.3005 0.919991 7.26878 1.12633 6.33501 1.57502C6.2939 1.59497 6.25819 1.62451 6.23089 1.66115C6.20359 1.69779 6.18551 1.74046 6.17815 1.78556C6.1708 1.83066 6.1744 1.87686 6.18864 1.92028C6.20289 1.96369 6.22737 2.00305 6.26001 2.03502L6.40501 2.18002C6.43642 2.21065 6.46033 2.24812 6.47489 2.28951C6.48944 2.3309 6.49425 2.37509 6.48893 2.41864C6.4836 2.46219 6.4683 2.50392 6.4442 2.54058C6.42011 2.57725 6.38787 2.60786 6.35001 2.63002C5.37915 3.21907 4.56314 4.03165 3.97001 5.00002C3.22761 6.11773 2.81836 7.42352 2.79001 8.76502C2.79104 8.82539 2.81156 8.88381 2.8485 8.93156C2.88544 8.97932 2.93683 9.01386 2.99501 9.03002Z" fill="#DEA47A"/>
<path d="M12.355 20.725L14.07 19.865C14.1144 19.8405 14.1643 19.8277 14.215 19.8277C14.2657 19.8277 14.3156 19.8405 14.36 19.865L15.005 20.305C15.0381 20.3281 15.0757 20.344 15.1153 20.3518C15.1549 20.3595 15.1957 20.3589 15.235 20.35C15.9973 20.1434 16.7032 19.7674 17.3 19.25C17.8777 18.6896 18.3383 18.02 18.655 17.28C18.672 17.2445 18.696 17.2128 18.7255 17.1869C18.7551 17.1609 18.7897 17.1413 18.8271 17.1291C18.8645 17.117 18.904 17.1125 18.9432 17.1161C18.9824 17.1197 19.0204 17.1313 19.055 17.15L19.455 17.38C19.5144 17.4129 19.5835 17.424 19.6502 17.4112C19.7169 17.3984 19.777 17.3626 19.82 17.31C20.5718 16.2693 21.0342 15.0477 21.16 13.77C21.384 12.1006 21.1633 10.4017 20.52 8.84502L21.32 9.01502C21.3617 9.024 21.4049 9.02351 21.4463 9.01359C21.4878 9.00367 21.5265 8.98457 21.5596 8.9577C21.5927 8.93083 21.6194 8.89688 21.6376 8.85834C21.6559 8.8198 21.6652 8.77766 21.665 8.73502C21.6262 7.40459 21.2176 6.11125 20.485 5.00002C19.8849 4.03041 19.0621 3.21793 18.085 2.63002C18.0468 2.6083 18.0141 2.57803 17.9895 2.54158C17.965 2.50513 17.9491 2.46349 17.9433 2.41991C17.9375 2.37633 17.9419 2.332 17.956 2.29039C17.9702 2.24877 17.9938 2.211 18.025 2.18002L18.175 2.03502C18.2077 2.00305 18.2321 1.96369 18.2464 1.92028C18.2606 1.87686 18.2642 1.83066 18.2569 1.78556C18.2495 1.74046 18.2314 1.69779 18.2041 1.66115C18.1768 1.62451 18.1411 1.59497 18.1 1.57502C17.1662 1.12633 16.1345 0.919991 15.1 0.97502C14.1188 1.04561 13.1776 1.39228 12.385 1.97502C12.3366 2.01113 12.2779 2.03065 12.2175 2.03065C12.1571 2.03065 12.0984 2.01113 12.05 1.97502C11.2574 1.39228 10.3162 1.04561 9.33501 0.97502C8.3005 0.919991 7.26878 1.12633 6.33501 1.57502C6.2939 1.59497 6.25819 1.62451 6.23089 1.66115C6.2036 1.69779 6.18551 1.74046 6.17815 1.78556C6.1708 1.83066 6.1744 1.87686 6.18865 1.92028C6.20289 1.96369 6.22737 2.00305 6.26001 2.03502L6.40501 2.18002C6.43642 2.21065 6.46033 2.24812 6.47489 2.28951C6.48945 2.3309 6.49425 2.37509 6.48893 2.41864C6.4836 2.46219 6.4683 2.50392 6.4442 2.54058C6.42011 2.57725 6.38787 2.60786 6.35001 2.63002C5.37915 3.21907 4.56314 4.03165 3.97001 5.00002C3.22761 6.11773 2.81836 7.42352 2.79001 8.76502C2.78996 8.80714 2.79924 8.84875 2.81719 8.88685C2.83514 8.92495 2.86132 8.9586 2.89383 8.98538C2.92635 9.01215 2.96439 9.03139 3.00523 9.0417C3.04606 9.05202 3.08868 9.05315 3.13001 9.04502L3.93501 8.87502C3.29352 10.4287 3.07278 12.1239 3.29501 13.79C3.41844 15.0683 3.88105 16.2904 4.63501 17.33C4.67718 17.3822 4.7364 17.4178 4.80225 17.4306C4.8681 17.4434 4.93636 17.4326 4.99501 17.4L5.40001 17.17C5.43459 17.1513 5.47264 17.1397 5.51182 17.1361C5.551 17.1325 5.5905 17.137 5.62792 17.1491C5.66534 17.1613 5.6999 17.1809 5.72948 17.2069C5.75907 17.2328 5.78306 17.2645 5.80001 17.3C6.11493 18.0409 6.57575 18.7109 7.15501 19.27C7.75909 19.7907 8.47384 20.1669 9.24501 20.37C9.28437 20.3789 9.32515 20.3795 9.36476 20.3718C9.40436 20.364 9.44191 20.3481 9.47501 20.325L10.12 19.885C10.1644 19.8605 10.2143 19.8477 10.265 19.8477C10.3157 19.8477 10.3656 19.8605 10.41 19.885L12.125 20.745C12.1626 20.7579 12.2025 20.7628 12.2421 20.7594C12.2817 20.7559 12.3202 20.7442 12.355 20.725V20.725Z" stroke="#45413C" stroke-width="0.5" stroke-linecap="round" stroke-linejoin="round"/>
<path d="M18.995 12.77L18.675 9.31004C18.5743 8.22245 18.1993 7.17819 17.585 6.27504C17.7985 5.94587 17.913 5.56236 17.915 5.17004C17.9216 4.76105 17.8027 4.35986 17.5742 4.02057C17.3458 3.68127 17.0188 3.42018 16.6373 3.27251C16.2559 3.12483 15.8383 3.09767 15.4409 3.19467C15.0436 3.29168 14.6855 3.5082 14.415 3.81504C13.7186 3.56582 12.9847 3.43731 12.245 3.43504C11.4678 3.43408 10.6968 3.57471 9.97 3.85004C9.80584 3.64419 9.60275 3.47269 9.37232 3.34533C9.14189 3.21797 8.88863 3.13725 8.627 3.10776C8.36537 3.07828 8.1005 3.10062 7.8475 3.1735C7.59451 3.24638 7.35834 3.36838 7.1525 3.53254C6.73677 3.86406 6.46977 4.34715 6.41022 4.87553C6.38074 5.13716 6.40308 5.40203 6.47596 5.65503C6.54884 5.90803 6.67084 6.14419 6.835 6.35004C6.25216 7.2349 5.89665 8.24989 5.8 9.30504L5.48 12.765C5.42785 13.2992 5.48766 13.8384 5.65563 14.3481C5.82359 14.8578 6.096 15.327 6.45548 15.7255C6.81495 16.124 7.25358 16.4432 7.74336 16.6626C8.23314 16.8821 8.76331 16.997 9.3 17H9.8C10.175 17.53 11.12 17.765 12.23 17.765C13.34 17.765 14.285 17.5 14.655 17H15.155C15.6929 16.9997 16.2248 16.887 16.7166 16.6691C17.2084 16.4511 17.6492 16.1328 18.0108 15.7345C18.3723 15.3363 18.6467 14.8668 18.8161 14.3563C18.9856 13.8458 19.0466 13.3055 18.995 12.77Z" fill="#F0D5A8"/>
<path d="M8.435 4.42001C8.71974 4.42162 9.00084 4.484 9.25953 4.603C9.51821 4.72199 9.7485 4.89485 9.935 5.11001C10.6738 4.83436 11.4565 4.69543 12.245 4.70001C12.9916 4.69714 13.733 4.82577 14.435 5.08001C14.6695 4.81617 14.9697 4.61909 15.305 4.5088C15.6403 4.39851 15.9989 4.37894 16.3442 4.45207C16.6896 4.5252 17.0094 4.68843 17.2712 4.92518C17.5331 5.16192 17.7276 5.46376 17.835 5.80001C18.0039 5.35825 18.0107 4.87095 17.8544 4.42461C17.698 3.97828 17.3885 3.6018 16.9809 3.36201C16.5732 3.12223 16.0938 3.03465 15.6277 3.11484C15.1617 3.19502 14.7391 3.43778 14.435 3.80001C13.7313 3.55365 12.9905 3.43018 12.245 3.43501C11.4678 3.43405 10.6968 3.57468 9.97 3.85001C9.70146 3.54551 9.34661 3.32995 8.95261 3.23198C8.5586 3.13401 8.14412 3.15828 7.76424 3.30155C7.38436 3.44481 7.05708 3.7003 6.8259 4.03406C6.59472 4.36781 6.47059 4.76401 6.47 5.17001C6.46984 5.38397 6.50359 5.59661 6.57 5.80001C6.69884 5.40465 6.94769 5.05928 7.28195 4.81195C7.61621 4.56461 8.01925 4.42762 8.435 4.42001Z" fill="#F7E5C6"/>
<path d="M18.995 12.77L18.675 9.31004C18.5743 8.22245 18.1993 7.17819 17.585 6.27504C17.7985 5.94587 17.913 5.56236 17.915 5.17004C17.9216 4.76105 17.8027 4.35986 17.5742 4.02057C17.3458 3.68127 17.0188 3.42018 16.6373 3.27251C16.2559 3.12483 15.8383 3.09767 15.4409 3.19467C15.0436 3.29168 14.6855 3.5082 14.415 3.81504C13.7186 3.56582 12.9847 3.43731 12.245 3.43504C11.4678 3.43408 10.6968 3.57471 9.97 3.85004C9.80584 3.64419 9.60275 3.47269 9.37232 3.34533C9.14189 3.21797 8.88863 3.13725 8.627 3.10776C8.36537 3.07828 8.1005 3.10062 7.8475 3.1735C7.59451 3.24638 7.35834 3.36838 7.1525 3.53254C6.73677 3.86406 6.46977 4.34715 6.41022 4.87553C6.38074 5.13716 6.40308 5.40203 6.47596 5.65503C6.54884 5.90803 6.67084 6.14419 6.835 6.35004C6.25216 7.2349 5.89665 8.24989 5.8 9.30504L5.48 12.765C5.42785 13.2992 5.48766 13.8384 5.65563 14.3481C5.82359 14.8578 6.096 15.327 6.45548 15.7255C6.81495 16.124 7.25358 16.4432 7.74336 16.6626C8.23314 16.8821 8.76331 16.997 9.3 17H9.8C10.175 17.53 11.12 17.765 12.23 17.765C13.34 17.765 14.285 17.5 14.655 17H15.155C15.6929 16.9997 16.2248 16.887 16.7166 16.6691C17.2084 16.4511 17.6492 16.1328 18.0108 15.7345C18.3723 15.3363 18.6467 14.8668 18.8161 14.3563C18.9856 13.8458 19.0466 13.3055 18.995 12.77V12.77Z" stroke="#45413C" stroke-width="0.5" stroke-linecap="round" stroke-linejoin="round"/>
<path d="M9.34 16.225C9.34 16.7435 9.64395 17.2408 10.185 17.6074C10.726 17.974 11.4598 18.18 12.225 18.18C12.9901 18.18 13.724 17.974 14.265 17.6074C14.806 17.2408 15.11 16.7435 15.11 16.225C15.11 15.7065 14.806 15.2093 14.265 14.8426C13.724 14.476 12.9901 14.27 12.225 14.27C11.4598 14.27 10.726 14.476 10.185 14.8426C9.64395 15.2093 9.34 15.7065 9.34 16.225Z" fill="#FFFCE5" stroke="#45413C" stroke-width="0.5" stroke-linecap="round" stroke-linejoin="round"/>
<path opacity="0.15" d="M3.99002 22.645C3.99002 22.7573 4.20354 22.8685 4.6184 22.9722C5.03325 23.076 5.64131 23.1702 6.40785 23.2496C7.1744 23.329 8.08443 23.392 9.08597 23.435C10.0875 23.4779 11.161 23.5 12.245 23.5C13.3291 23.5 14.4025 23.4779 15.4041 23.435C16.4056 23.392 17.3156 23.329 18.0822 23.2496C18.8487 23.1702 19.4568 23.076 19.8716 22.9722C20.2865 22.8685 20.5 22.7573 20.5 22.645C20.5 22.5328 20.2865 22.4216 19.8716 22.3178C19.4568 22.2141 18.8487 22.1199 18.0822 22.0405C17.3156 21.9611 16.4056 21.8981 15.4041 21.8551C14.4025 21.8122 13.3291 21.79 12.245 21.79C11.161 21.79 10.0875 21.8122 9.08597 21.8551C8.08443 21.8981 7.1744 21.9611 6.40785 22.0405C5.64131 22.1199 5.03325 22.2141 4.6184 22.3178C4.20354 22.4216 3.99002 22.5328 3.99002 22.645Z" fill="#45413C"/>
<path d="M17.35 10.88V9.50003C17.35 9.18707 17.2257 8.88693 17.0044 8.66564C16.7831 8.44435 16.483 8.32003 16.17 8.32003H14.785C14.6226 8.31909 14.462 8.3538 14.3145 8.4217C14.167 8.4896 14.0362 8.58904 13.9313 8.71301C13.8264 8.83698 13.75 8.98245 13.7074 9.13917C13.6649 9.29589 13.6572 9.46003 13.685 9.62003C13.8085 10.8393 13.8653 12.0645 13.855 13.29C13.855 14.68 13.125 13.86 12.225 13.86C11.325 13.86 10.6 14.68 10.6 13.29C10.5898 12.0645 10.6465 10.8393 10.77 9.62003C10.7969 9.46016 10.7886 9.29634 10.7457 9.14C10.7028 8.98366 10.6264 8.83856 10.5216 8.7148C10.4169 8.59104 10.2865 8.49161 10.1394 8.42343C9.99232 8.35525 9.83213 8.31996 9.67002 8.32003H8.28502C7.9716 8.32002 7.67095 8.44418 7.44886 8.66533C7.22677 8.88649 7.10134 9.18661 7.10002 9.50003V10.885C5.89502 11.325 5.45502 12.145 5.45502 13.475C5.54581 14.4321 5.99005 15.321 6.70101 15.9682C7.41198 16.6154 8.33861 16.9743 9.30002 16.975C9.30002 16.975 9.80002 17 9.82502 17.015C11.215 16.59 12.225 15.74 12.225 15.015C12.225 15.725 13.225 16.575 14.625 17.015L15.125 16.975C16.0864 16.9743 17.0131 16.6154 17.724 15.9682C18.435 15.321 18.8792 14.4321 18.97 13.475C18.995 12.04 18.555 11.32 17.35 10.88Z" fill="white"/>
<path d="M15.15 15.59C15.15 15.59 14.65 15.615 14.65 15.63C13.395 15.245 12.45 14.515 12.28 13.855H12.225C12.055 14.515 11.105 15.245 9.85 15.63L9.325 15.59C8.45125 15.5893 7.60357 15.2922 6.92057 14.7473C6.23758 14.2023 5.75967 13.4418 5.565 12.59C5.50424 12.8793 5.47573 13.1744 5.48 13.47C5.57079 14.4271 6.01504 15.316 6.726 15.9632C7.43696 16.6104 8.3636 16.9693 9.325 16.97C9.325 16.97 9.825 16.995 9.85 17.01C11.24 16.585 12.25 15.735 12.25 15.01C12.25 15.72 13.25 16.57 14.65 17.01L15.15 16.97C16.1114 16.9693 17.038 16.6104 17.749 15.9632C18.46 15.316 18.9042 14.4271 18.995 13.47C18.9981 13.1683 18.973 12.867 18.92 12.57C18.728 13.4267 18.2501 14.1926 17.5649 14.7415C16.8797 15.2904 16.028 15.5897 15.15 15.59Z" fill="#FFFCE5"/>
<path d="M17.35 10.88V9.50003C17.35 9.18707 17.2257 8.88693 17.0044 8.66564C16.7831 8.44435 16.483 8.32003 16.17 8.32003H14.785C14.6226 8.31909 14.462 8.3538 14.3145 8.4217C14.167 8.4896 14.0362 8.58904 13.9313 8.71301C13.8264 8.83698 13.75 8.98245 13.7074 9.13917C13.6649 9.29589 13.6572 9.46003 13.685 9.62003C13.8085 10.8393 13.8653 12.0645 13.855 13.29C13.855 14.68 13.125 13.86 12.225 13.86C11.325 13.86 10.6 14.68 10.6 13.29C10.5898 12.0645 10.6465 10.8393 10.77 9.62003C10.7969 9.46016 10.7886 9.29634 10.7457 9.14C10.7028 8.98366 10.6264 8.83856 10.5216 8.7148C10.4169 8.59104 10.2865 8.49161 10.1394 8.42343C9.99232 8.35525 9.83213 8.31996 9.67002 8.32003H8.28502C7.9716 8.32002 7.67095 8.44418 7.44886 8.66533C7.22677 8.88649 7.10134 9.18661 7.10002 9.50003V10.885C5.89502 11.325 5.45502 12.145 5.45502 13.475C5.54581 14.4321 5.99005 15.321 6.70101 15.9682C7.41198 16.6154 8.33862 16.9743 9.30002 16.975C9.30002 16.975 9.80002 17 9.82502 17.015C11.215 16.59 12.225 15.74 12.225 15.015C12.225 15.725 13.225 16.575 14.625 17.015L15.125 16.975C16.0864 16.9743 17.0131 16.6154 17.724 15.9682C18.435 15.321 18.8792 14.4321 18.97 13.475C18.995 12.04 18.555 11.32 17.35 10.88Z" stroke="#45413C" stroke-width="0.5" stroke-linecap="round" stroke-linejoin="round"/>
<path d="M13.745 13.7C13.6621 14.0504 13.4739 14.3671 13.2058 14.6075C12.9377 14.848 12.6024 15.0006 12.245 15.045C11.8814 15.0074 11.5384 14.8578 11.2634 14.6169C10.9884 14.3759 10.7951 14.0556 10.71 13.7C10.71 13.315 11.4 13 12.245 13C13.09 13 13.745 13.315 13.745 13.7Z" fill="#FFA694" stroke="#45413C" stroke-width="0.5" stroke-linecap="round" stroke-linejoin="round"/>
<path d="M15.965 10.31C15.9715 10.37 15.9653 10.4308 15.9468 10.4882C15.9283 10.5457 15.8978 10.5986 15.8575 10.6435C15.8172 10.6885 15.7679 10.7244 15.7127 10.749C15.6576 10.7736 15.5979 10.7863 15.5375 10.7863C15.4771 10.7863 15.4174 10.7736 15.3623 10.749C15.3072 10.7244 15.2578 10.6885 15.2175 10.6435C15.1772 10.5986 15.1468 10.5457 15.1282 10.4882C15.1097 10.4308 15.1035 10.37 15.11 10.31C15.11 10.2542 15.121 10.1989 15.1424 10.1474C15.1637 10.0958 15.195 10.049 15.2345 10.0095C15.274 9.97002 15.3208 9.93872 15.3724 9.91736C15.4239 9.896 15.4792 9.88501 15.535 9.88501C15.6482 9.885 15.7568 9.92962 15.8373 10.0092C15.9178 10.0887 15.9637 10.1968 15.965 10.31Z" fill="#45413C" stroke="#45413C" stroke-width="0.5" stroke-linecap="round" stroke-linejoin="round"/>
<path d="M9.34502 10.31C9.35152 10.3701 9.34531 10.4308 9.32679 10.4882C9.30827 10.5457 9.27785 10.5986 9.23753 10.6435C9.1972 10.6885 9.14786 10.7244 9.09273 10.749C9.03759 10.7736 8.97789 10.7863 8.91752 10.7863C8.85714 10.7863 8.79745 10.7736 8.74231 10.749C8.68718 10.7244 8.63784 10.6885 8.59751 10.6435C8.55718 10.5986 8.52677 10.5457 8.50825 10.4882C8.48973 10.4308 8.48352 10.3701 8.49002 10.31C8.50143 10.2046 8.55139 10.1071 8.6303 10.0363C8.7092 9.9655 8.81149 9.92633 8.91752 9.92633C9.02354 9.92633 9.12583 9.9655 9.20474 10.0363C9.28364 10.1071 9.3336 10.2046 9.34502 10.31Z" fill="#45413C" stroke="#45413C" stroke-width="0.5" stroke-linecap="round" stroke-linejoin="round"/>
<path d="M17.745 13.57C17.745 13.885 17.32 14.14 16.795 14.14C16.27 14.14 15.85 13.885 15.85 13.57C15.85 13.255 16.245 13 16.78 13C17.315 13 17.745 13.255 17.745 13.57Z" fill="#FFAA54"/>
<path d="M8.62 13.57C8.62 13.885 8.195 14.14 7.67 14.14C7.145 14.14 6.745 13.885 6.745 13.57C6.745 13.255 7.145 13 7.67 13C8.195 13 8.62 13.255 8.62 13.57Z" fill="#FFAA54"/>
<path d="M7.78502 5.50002C7.74939 5.34409 7.75167 5.18189 7.7917 5.02702C7.83172 4.87216 7.9083 4.72916 8.01502 4.61002C8.13186 4.50763 8.2766 4.44246 8.43071 4.42286C8.58483 4.40326 8.74128 4.43013 8.88002 4.50002" stroke="#45413C" stroke-width="0.5" stroke-linecap="round" stroke-linejoin="round"/>
<path d="M16.635 5.50002C16.67 5.34369 16.6669 5.18125 16.626 5.02637C16.5851 4.87149 16.5076 4.7287 16.4 4.61002C16.2832 4.50763 16.1384 4.44246 15.9843 4.42286C15.8302 4.40326 15.6737 4.43013 15.535 4.50002" stroke="#45413C" stroke-width="0.5" stroke-linecap="round" stroke-linejoin="round"/>
</svg>
