<svg width="25" height="24" viewBox="0 0 25 24" fill="none" xmlns="http://www.w3.org/2000/svg">
<path opacity="0.15" d="M23.5 22.25C23.5 22.665 18.915 23 13.25 23C7.585 23 3 22.665 3 22.25C3 21.835 7.565 21.5 13.225 21.5C18.885 21.5 23.5 21.835 23.5 22.25Z" fill="#45413C"/>
<path d="M17.465 5.385H14.965L15.57 2.665C15.5934 2.52667 15.5875 2.38496 15.5525 2.24908C15.5176 2.1132 15.4544 1.9862 15.3672 1.87632C15.2799 1.76644 15.1706 1.67615 15.0461 1.61132C14.9217 1.54649 14.785 1.50856 14.645 1.5C12.9887 1.49843 11.3634 1.9497 9.945 2.805H5.765C4.63817 2.80498 3.55712 3.2509 2.75799 4.04534C1.95887 4.83979 1.50661 5.91819 1.5 7.045V14.5C1.50116 15.4953 1.85244 16.4585 2.49233 17.2209C3.13223 17.9833 4.01994 18.4963 5 18.67C5.09259 18.683 5.18689 18.6758 5.27645 18.649C5.36602 18.6221 5.44875 18.5763 5.51899 18.5146C5.58924 18.4529 5.64534 18.3768 5.68348 18.2914C5.72162 18.2061 5.7409 18.1135 5.74 18.02V17.5C5.74283 17.3895 5.71604 17.2802 5.66241 17.1835C5.60878 17.0868 5.53027 17.0062 5.435 16.95C5.03352 16.7247 4.69922 16.3966 4.46637 15.9995C4.23353 15.6023 4.11053 15.1504 4.11 14.69V13.84C4.1098 13.6526 4.16595 13.4694 4.27116 13.3142C4.37637 13.1591 4.52578 13.0392 4.7 12.97L7.2 11.97C7.38234 13.2626 8.04239 14.44 9.05 15.27C9.12547 15.3302 9.18692 15.4061 9.23009 15.4925C9.27326 15.5788 9.29712 15.6735 9.3 15.77V21.35C9.3 21.5224 9.36848 21.6877 9.49038 21.8096C9.61228 21.9315 9.77761 22 9.95 22H12.555C12.7274 22 12.8927 21.9315 13.0146 21.8096C13.1365 21.6877 13.205 21.5224 13.205 21.35V17.115C13.205 16.9413 13.274 16.7747 13.3968 16.6518C13.5197 16.529 13.6863 16.46 13.86 16.46H19.415V21.35C19.4163 21.5229 19.4859 21.6882 19.6086 21.8099C19.7313 21.9317 19.8971 22 20.07 22H22.675C22.8474 22 23.0127 21.9315 23.1346 21.8096C23.2565 21.6877 23.325 21.5224 23.325 21.35V11.245C23.325 9.69083 22.7076 8.20032 21.6086 7.10136C20.5097 6.0024 19.0192 5.385 17.465 5.385Z" fill="#C0DCEB"/>
<path d="M5.765 4.245H9.945C11.3628 3.38884 12.9888 2.93911 14.645 2.945C14.7975 2.94616 14.9473 2.98458 15.0815 3.05691C15.2157 3.12924 15.3302 3.23329 15.415 3.36L15.57 2.665C15.5934 2.52667 15.5875 2.38496 15.5525 2.24908C15.5176 2.1132 15.4544 1.9862 15.3672 1.87632C15.2799 1.76644 15.1706 1.67615 15.0461 1.61132C14.9217 1.54649 14.785 1.50856 14.645 1.5C12.9887 1.49843 11.3634 1.9497 9.945 2.805H5.765C4.63817 2.80498 3.55712 3.2509 2.75799 4.04534C1.95887 4.83979 1.50661 5.91819 1.5 7.045V8.5C1.50265 7.37059 1.95316 6.28834 2.75272 5.49066C3.55228 4.69298 4.63558 4.245 5.765 4.245Z" fill="#DAEDF7"/>
<path d="M17.465 5.38501H14.965L14.64 6.85001H17.465C19.0196 6.85133 20.5101 7.46984 21.609 8.5696C22.7078 9.66935 23.325 11.1604 23.325 12.715V11.245C23.325 9.69084 22.7076 8.20033 21.6087 7.10136C20.5097 6.0024 19.0192 5.38501 17.465 5.38501Z" fill="#DAEDF7"/>
<path d="M17.465 5.385H14.965L15.57 2.665C15.5934 2.52667 15.5875 2.38496 15.5525 2.24908C15.5176 2.1132 15.4544 1.9862 15.3672 1.87632C15.2799 1.76644 15.1706 1.67615 15.0461 1.61132C14.9217 1.54649 14.785 1.50856 14.645 1.5C12.9887 1.49843 11.3634 1.9497 9.945 2.805H5.765C4.63817 2.80498 3.55712 3.2509 2.75799 4.04534C1.95887 4.83979 1.50661 5.91819 1.5 7.045V14.5C1.50116 15.4953 1.85244 16.4585 2.49233 17.2209C3.13223 17.9833 4.01994 18.4963 5 18.67C5.09259 18.683 5.18689 18.6758 5.27645 18.649C5.36602 18.6221 5.44875 18.5763 5.51899 18.5146C5.58924 18.4529 5.64534 18.3768 5.68348 18.2914C5.72162 18.2061 5.7409 18.1135 5.74 18.02V17.5C5.74283 17.3895 5.71604 17.2802 5.66241 17.1835C5.60878 17.0868 5.53027 17.0062 5.435 16.95C5.03352 16.7247 4.69922 16.3966 4.46637 15.9995C4.23353 15.6023 4.11053 15.1504 4.11 14.69V13.84C4.1098 13.6526 4.16595 13.4694 4.27116 13.3142C4.37637 13.1591 4.52578 13.0392 4.7 12.97L7.2 11.97C7.38234 13.2626 8.04239 14.44 9.05 15.27C9.12547 15.3302 9.18692 15.4061 9.23009 15.4925C9.27326 15.5788 9.29712 15.6735 9.3 15.77V21.35C9.3 21.5224 9.36848 21.6877 9.49038 21.8096C9.61228 21.9315 9.77761 22 9.95 22H12.555C12.7274 22 12.8927 21.9315 13.0146 21.8096C13.1365 21.6877 13.205 21.5224 13.205 21.35V17.115C13.205 16.9413 13.274 16.7747 13.3968 16.6518C13.5197 16.529 13.6863 16.46 13.86 16.46H19.415V21.35C19.4163 21.5229 19.4859 21.6882 19.6086 21.8099C19.7313 21.9317 19.8971 22 20.07 22H22.675C22.8474 22 23.0127 21.9315 23.1346 21.8096C23.2565 21.6877 23.325 21.5224 23.325 21.35V11.245C23.325 9.69084 22.7076 8.20032 21.6086 7.10136C20.5097 6.0024 19.0192 5.385 17.465 5.385V5.385Z" stroke="#45413C" stroke-width="0.5" stroke-linecap="round" stroke-linejoin="round"/>
<path d="M18.44 10.275C18.14 11.0732 18.0459 11.9342 18.1665 12.7784C18.2871 13.6226 18.6185 14.4227 19.13 15.105V15.105C19.3153 15.3515 19.4154 15.6516 19.415 15.96V16.46" stroke="#45413C" stroke-width="0.5" stroke-linecap="round" stroke-linejoin="round"/>
<path d="M7.69 4.40999L9.19 3.28499C10.7579 2.1194 12.6613 1.49314 14.615 1.49999V1.49999C14.7602 1.50387 14.9027 1.53932 15.0328 1.60386C15.1629 1.6684 15.2773 1.7605 15.3682 1.87374C15.4591 1.98699 15.5242 2.11867 15.5591 2.25963C15.5939 2.40059 15.5976 2.54745 15.57 2.68999L14.295 8.395C14.1778 8.92729 13.8825 9.40368 13.458 9.74549C13.0335 10.0873 12.505 10.2741 11.96 10.275H9.405C8.95016 10.275 8.51394 10.0943 8.19231 9.77268C7.87069 9.45106 7.69 9.01484 7.69 8.56" stroke="#45413C" stroke-width="0.5" stroke-linecap="round" stroke-linejoin="round"/>
<path d="M9.405 10.275H11.96C12.505 10.2741 13.0335 10.0873 13.458 9.74549C13.8825 9.40368 14.1778 8.92728 14.295 8.39499L15.33 3.74999C15.2398 3.64963 15.1296 3.5693 15.0064 3.51418C14.8833 3.45906 14.7499 3.43038 14.615 3.42999C12.6567 3.42927 10.7512 4.06445 9.185 5.23999L7.685 6.36499V8.55999C7.685 8.78563 7.72952 9.00905 7.81602 9.21745C7.90252 9.42585 8.02929 9.61513 8.18908 9.77445C8.34886 9.93377 8.53851 10.06 8.74716 10.1459C8.95581 10.2318 9.17936 10.2757 9.405 10.275Z" fill="#FFCCDD"/>
<path d="M14.615 5.08999C14.7513 5.08904 14.8862 5.11806 15.01 5.17499L15.33 3.74999C15.2398 3.64963 15.1296 3.5693 15.0064 3.51418C14.8833 3.45906 14.7499 3.43038 14.615 3.42999C12.6567 3.42927 10.7512 4.06445 9.185 5.23999L7.685 6.36499V8.02499L9.185 6.89999C10.7512 5.72446 12.6567 5.08927 14.615 5.08999Z" fill="#FFB0CA"/>
<path d="M9.405 10.275H11.96C12.505 10.2741 13.0335 10.0873 13.458 9.74549C13.8825 9.40368 14.1778 8.92728 14.295 8.39499L15.33 3.74999C15.2398 3.64963 15.1296 3.5693 15.0064 3.51418C14.8833 3.45906 14.7499 3.43038 14.615 3.42999C12.6567 3.42927 10.7512 4.06445 9.185 5.23999L7.685 6.36499V8.55999C7.685 8.78563 7.72952 9.00905 7.81602 9.21745C7.90252 9.42585 8.02929 9.61513 8.18908 9.77445C8.34886 9.93377 8.53851 10.06 8.74716 10.1459C8.95581 10.2318 9.17936 10.2757 9.405 10.275V10.275Z" stroke="#45413C" stroke-width="0.5" stroke-linecap="round" stroke-linejoin="round"/>
<path d="M1.5 10.6H2.805" stroke="#45413C" stroke-width="0.5" stroke-linecap="round" stroke-linejoin="round"/>
<path d="M1.5 11.9H2.805" stroke="#45413C" stroke-width="0.5" stroke-linecap="round" stroke-linejoin="round"/>
<path d="M1.5 13.205H2.475" stroke="#45413C" stroke-width="0.5" stroke-linecap="round" stroke-linejoin="round"/>
<path d="M7.22 11.96C7.22 11.96 8.81 11.38 8.655 10.1" stroke="#45413C" stroke-width="0.5" stroke-linecap="round" stroke-linejoin="round"/>
<path d="M5.06499 8.46502C5.03662 8.58995 4.97196 8.70372 4.87914 8.79203C4.78631 8.88033 4.66946 8.93924 4.54326 8.96134C4.41706 8.98344 4.28715 8.96775 4.16983 8.91625C4.05252 8.86475 3.95305 8.77973 3.88391 8.67186C3.81477 8.564 3.77904 8.43812 3.78122 8.31002C3.7834 8.18192 3.82339 8.05732 3.89617 7.95187C3.96894 7.84643 4.07125 7.76484 4.19025 7.71736C4.30925 7.66988 4.43962 7.65863 4.56499 7.68502C4.64937 7.70277 4.72937 7.73714 4.80034 7.78612C4.8713 7.8351 4.93182 7.89771 4.97835 7.9703C5.02488 8.04289 5.05651 8.12402 5.07138 8.20895C5.08626 8.29389 5.08409 8.38093 5.06499 8.46502Z" fill="#45413C"/>
<path d="M6.99999 10.06C6.93445 10.2037 6.82024 10.3197 6.67753 10.3874C6.53481 10.4551 6.37276 10.4702 6.21999 10.43C5.86999 10.37 5.65499 10.1 5.71999 9.83001C5.78723 9.68654 5.90247 9.57105 6.04579 9.5035C6.18912 9.43595 6.35153 9.42056 6.50499 9.46001C6.87999 9.50001 7.09999 9.79001 6.99999 10.06Z" fill="#FFB0CA"/>
</svg>
