<svg width="25" height="24" viewBox="0 0 25 24" fill="none" xmlns="http://www.w3.org/2000/svg">
<path d="M14.06 4.445C14.06 4.445 18.275 1.575 19.845 2.87C21.415 4.165 19.24 9.5 19.24 9.5L14.06 4.445Z" fill="#FFE500"/>
<path d="M14.745 5.53498C14.745 5.53498 17.745 3.35998 18.815 4.23998C19.885 5.11998 18.255 8.94498 18.255 8.94498L14.745 5.53498Z" fill="#FFA694"/>
<path d="M10.94 4.445C10.94 4.445 6.725 1.575 5.155 2.87C3.585 4.165 5.76 9.5 5.76 9.5L10.94 4.445Z" fill="#FFE500"/>
<path d="M19.845 3.96C20.1732 4.27369 20.3683 4.70151 20.39 5.155C20.48 4.155 20.39 3.3 19.845 2.87C18.275 1.575 14.06 4.445 14.06 4.445L14.745 5.11C16 4.365 18.67 3 19.845 3.96Z" fill="#FFF48C"/>
<path d="M5.15501 3.96C6.33001 2.995 8.99501 4.365 10.255 5.11L10.94 4.445C10.94 4.445 6.72501 1.575 5.15501 2.87C4.63001 3.3 4.50001 4.175 4.61001 5.155C4.6317 4.70151 4.82681 4.27369 5.15501 3.96Z" fill="#FFF48C"/>
<path d="M14.06 4.445C14.06 4.445 18.275 1.575 19.845 2.87C21.415 4.165 19.24 9.5 19.24 9.5L14.06 4.445Z" stroke="#45413C" stroke-width="0.5" stroke-linecap="round" stroke-linejoin="round"/>
<path d="M10.94 4.445C10.94 4.445 6.725 1.575 5.155 2.87C3.585 4.165 5.76 9.5 5.76 9.5L10.94 4.445Z" stroke="#45413C" stroke-width="0.5" stroke-linecap="round" stroke-linejoin="round"/>
<path d="M10.255 5.53498C10.255 5.53498 7.25502 3.35998 6.18502 4.23998C5.11502 5.11998 6.74502 8.94498 6.74502 8.94498L10.255 5.53498Z" fill="#FFA694"/>
<path d="M18.815 5.35998C18.9821 5.5166 19.0928 5.72399 19.13 5.94998C19.23 5.20998 19.185 4.54498 18.815 4.23998C17.75 3.35998 14.745 5.53498 14.745 5.53498L15.435 6.20498C16.385 5.62498 18.07 4.74998 18.815 5.35998Z" fill="#FF866E"/>
<path d="M6.185 5.35998C6.93 4.74998 8.615 5.62498 9.565 6.20498L10.255 5.53498C10.255 5.53498 7.255 3.35998 6.185 4.23998C5.815 4.54498 5.77 5.20998 5.87 5.94998C5.90718 5.72399 6.0179 5.5166 6.185 5.35998Z" fill="#FF866E"/>
<path d="M14.745 5.53498C14.745 5.53498 17.745 3.35998 18.815 4.23998C19.885 5.11998 18.255 8.94498 18.255 8.94498L14.745 5.53498Z" stroke="#45413C" stroke-width="0.5" stroke-linecap="round" stroke-linejoin="round"/>
<path d="M10.255 5.53498C10.255 5.53498 7.25502 3.35998 6.18502 4.23998C5.11502 5.11998 6.74502 8.94498 6.74502 8.94498L10.255 5.53498Z" stroke="#45413C" stroke-width="0.5" stroke-linecap="round" stroke-linejoin="round"/>
<path opacity="0.15" d="M7 22.25C7 22.4489 7.57946 22.6397 8.61091 22.7803C9.64236 22.921 11.0413 23 12.5 23C13.9587 23 15.3576 22.921 16.3891 22.7803C17.4205 22.6397 18 22.4489 18 22.25C18 22.0511 17.4205 21.8603 16.3891 21.7197C15.3576 21.579 13.9587 21.5 12.5 21.5C11.0413 21.5 9.64236 21.579 8.61091 21.7197C7.57946 21.8603 7 22.0511 7 22.25Z" fill="#45413C"/>
<path d="M20.165 14.56L19.695 10.2C19.4679 8.46268 18.6085 6.87 17.2813 5.72628C15.954 4.58255 14.2518 3.96797 12.5 3.99997C10.7482 3.96797 9.04608 4.58255 7.7188 5.72628C6.39152 6.87 5.5322 8.46268 5.30503 10.2L4.83503 14.56C4.78714 15.1258 4.85894 15.6955 5.04576 16.2318C5.23259 16.7681 5.53024 17.259 5.91936 17.6726C6.30848 18.0863 6.78033 18.4134 7.30422 18.6326C7.8281 18.8518 8.39228 18.9582 8.96003 18.945H9.19003C9.81503 19.72 11.06 20.25 12.5 20.25C13.94 20.25 15.185 19.72 15.81 18.945H16.04C16.6078 18.9582 17.1719 18.8518 17.6958 18.6326C18.2197 18.4134 18.6916 18.0863 19.0807 17.6726C19.4698 17.259 19.7675 16.7681 19.9543 16.2318C20.1411 15.6955 20.2129 15.1258 20.165 14.56Z" fill="#FFE500"/>
<path d="M5.30501 12.045C5.52766 10.304 6.38504 8.70656 7.71278 7.55874C9.04052 6.41092 10.7452 5.79355 12.5 5.82497C14.2545 5.79465 15.9586 6.41242 17.2861 7.56003C18.6136 8.70765 19.4713 10.3045 19.695 12.045L20.1 15.79C20.187 15.386 20.209 14.9708 20.165 14.56L19.695 10.2C19.4668 8.46313 18.6072 6.87109 17.2801 5.72757C15.9531 4.58404 14.2515 3.96907 12.5 3.99997C10.7482 3.96797 9.04607 4.58255 7.71879 5.72628C6.39151 6.87 5.53218 8.46268 5.30501 10.2L4.83501 14.56C4.79105 14.9708 4.81299 15.386 4.90001 15.79L5.30501 12.045Z" fill="#FFF48C"/>
<path d="M20.165 14.56L19.695 10.2C19.4679 8.46268 18.6085 6.87 17.2813 5.72628C15.954 4.58255 14.2518 3.96797 12.5 3.99997C10.7482 3.96797 9.04608 4.58255 7.7188 5.72628C6.39152 6.87 5.5322 8.46268 5.30503 10.2L4.83503 14.56C4.78714 15.1258 4.85894 15.6955 5.04576 16.2318C5.23259 16.7681 5.53024 17.259 5.91936 17.6726C6.30848 18.0863 6.78033 18.4134 7.30422 18.6326C7.8281 18.8518 8.39228 18.9582 8.96003 18.945H9.19003C9.81503 19.72 11.06 20.25 12.5 20.25C13.94 20.25 15.185 19.72 15.81 18.945H16.04C16.6078 18.9582 17.1719 18.8518 17.6958 18.6326C18.2197 18.4134 18.6916 18.0863 19.0807 17.6726C19.4698 17.259 19.7675 16.7681 19.9543 16.2318C20.1411 15.6955 20.2129 15.1258 20.165 14.56V14.56Z" stroke="#45413C" stroke-width="0.5" stroke-linecap="round" stroke-linejoin="round"/>
<path d="M13.84 15.915C13.7598 16.2163 13.5876 16.4852 13.3474 16.6841C13.1072 16.8831 12.811 17.0022 12.5 17.025C12.189 17.0022 11.8928 16.8831 11.6526 16.6841C11.4124 16.4852 11.2403 16.2163 11.16 15.915C11.16 15.575 11.76 15.295 12.5 15.295C13.24 15.295 13.84 15.575 13.84 15.915Z" fill="#FF866E"/>
<path d="M12.5 16.045C12.9095 16.0251 13.315 16.1335 13.66 16.355C13.7602 16.2281 13.8225 16.0756 13.84 15.915C13.84 15.575 13.24 15.295 12.5 15.295C11.76 15.295 11.16 15.575 11.16 15.915C11.1775 16.0756 11.2399 16.2281 11.34 16.355C11.685 16.1335 12.0905 16.0251 12.5 16.045Z" fill="#FFA694"/>
<path d="M13.84 15.915C13.7598 16.2163 13.5876 16.4852 13.3474 16.6841C13.1072 16.8831 12.811 17.0022 12.5 17.025C12.189 17.0022 11.8928 16.8831 11.6526 16.6841C11.4124 16.4852 11.2403 16.2163 11.16 15.915C11.16 15.575 11.76 15.295 12.5 15.295C13.24 15.295 13.84 15.575 13.84 15.915Z" stroke="#45413C" stroke-width="0.5" stroke-linecap="round" stroke-linejoin="round"/>
<path d="M14.63 17.955C14.4309 18.0487 14.2141 18.0987 13.994 18.1018C13.774 18.1049 13.5559 18.0609 13.3542 17.9729C13.1525 17.8848 12.972 17.7547 12.8247 17.5912C12.6774 17.4278 12.5667 17.2347 12.5 17.025C12.4334 17.2347 12.3227 17.4278 12.1754 17.5912C12.028 17.7547 11.8475 17.8848 11.6459 17.9729C11.4442 18.0609 11.226 18.1049 11.006 18.1018C10.786 18.0987 10.5691 18.0487 10.37 17.955" stroke="#45413C" stroke-width="0.5" stroke-linecap="round" stroke-linejoin="round"/>
<path d="M16.055 15.15L18.765 14.735" stroke="#45413C" stroke-width="0.5" stroke-linecap="round" stroke-linejoin="round"/>
<path d="M16.055 16.38L18.765 16.755" stroke="#45413C" stroke-width="0.5" stroke-linecap="round" stroke-linejoin="round"/>
<path d="M8.94502 15.15L6.23502 14.735" stroke="#45413C" stroke-width="0.5" stroke-linecap="round" stroke-linejoin="round"/>
<path d="M8.94502 16.38L6.23502 16.755" stroke="#45413C" stroke-width="0.5" stroke-linecap="round" stroke-linejoin="round"/>
<path d="M8.46001 12.54C8.46001 12.6537 8.49374 12.7649 8.55692 12.8594C8.6201 12.954 8.7099 13.0277 8.81497 13.0712C8.92004 13.1147 9.03565 13.1261 9.14719 13.1039C9.25873 13.0818 9.36118 13.027 9.4416 12.9466C9.52202 12.8662 9.57678 12.7637 9.59896 12.6522C9.62115 12.5406 9.60976 12.425 9.56624 12.3199C9.52272 12.2149 9.44902 12.1251 9.35447 12.0619C9.25991 11.9987 9.14874 11.965 9.03501 11.965C8.95932 11.9643 8.88425 11.9787 8.81418 12.0074C8.74412 12.0361 8.68047 12.0784 8.62694 12.1319C8.57341 12.1854 8.53108 12.2491 8.50242 12.3192C8.47376 12.3892 8.45935 12.4643 8.46001 12.54Z" fill="#45413C" stroke="#45413C" stroke-width="0.5" stroke-linecap="round" stroke-linejoin="round"/>
<path d="M16.54 12.54C16.54 12.6537 16.5063 12.7649 16.4431 12.8594C16.3799 12.954 16.2901 13.0277 16.1851 13.0712C16.08 13.1147 15.9644 13.1261 15.8528 13.1039C15.7413 13.0818 15.6388 13.027 15.5584 12.9466C15.478 12.8662 15.4232 12.7637 15.4011 12.6522C15.3789 12.5406 15.3903 12.425 15.4338 12.3199C15.4773 12.2149 15.551 12.1251 15.6456 12.0619C15.7401 11.9987 15.8513 11.965 15.965 11.965C16.0407 11.9643 16.1158 11.9787 16.1858 12.0074C16.2559 12.0361 16.3196 12.0784 16.3731 12.1319C16.4266 12.1854 16.4689 12.2491 16.4976 12.3192C16.5263 12.3892 16.5407 12.4643 16.54 12.54Z" fill="#45413C" stroke="#45413C" stroke-width="0.5" stroke-linecap="round" stroke-linejoin="round"/>
</svg>
