<svg width="398" height="48" viewBox="0 0 398 48" fill="none" xmlns="http://www.w3.org/2000/svg">
<g clip-path="url(#clip0_203_18431)">
<rect width="398" height="48" fill="white"/>
<path d="M36 22V20H34V18H30V14H26V10H22V6H10V42H22V40V38H26V34H30V30H34V28H36V26H38V22H36ZM26 26V30H22V34H18V38H14V10H18V14H22V18H26V22H30V26H26Z" fill="black"/>
<path fill-rule="evenodd" clip-rule="evenodd" d="M64 40V8H70V40H64ZM78 40V8H84V40H78Z" fill="black"/>
<path fill-rule="evenodd" clip-rule="evenodd" d="M108 6H112V42H108V6ZM124 10H128V6H140V42H128V38H124V34H120V30H116V28H114V20H116V18H120V14H124V10ZM120 22V26H124V30H128V34H132V38H136V10H132V14H128V18H124V22H120Z" fill="black"/>
<path fill-rule="evenodd" clip-rule="evenodd" d="M158 6H170V10H174V14H178V18H182V20H184V28H182V30H178V34H174V38H170V42H158V6ZM174 30V26H178V22H174V18H170V14H166V10H162V38H166V34H170V30H174ZM186 6H190V42H186V6Z" fill="black"/>
<path fill-rule="evenodd" clip-rule="evenodd" d="M208 12H240V16H208V12ZM208 22.0001H240V26.0001H208V22.0001ZM240 32.0001H208V36.0001H240V32.0001Z" fill="black"/>
<path fill-rule="evenodd" clip-rule="evenodd" d="M280 9H277V12H280V9ZM283 12.0001H280V15H262V18H259V25.5H262V18H280V21.0001H283V18H286V15H283V12.0001ZM277 20.9999H280V23.9999H277V20.9999ZM265 35.9999H268V33H286V30H289V22.5H286V30H268V26.9999H265V30H262V33H265V35.9999ZM271 39H268V36H271V39ZM268 27.0001H271V24.0001H268V27.0001Z" fill="black"/>
<path fill-rule="evenodd" clip-rule="evenodd" d="M330 9H327V12H330V9ZM333 12.0001H330V15H312V18H309V25.5H312V18H330V21.0001H333V18H336V15H333V12.0001ZM327 20.9999H330V23.9999H327V20.9999ZM315 35.9999H318V33H336V30H339V22.5H336V30H318V26.9999H315V30H312V33H315V35.9999ZM321 39H318V36H321V39ZM318 27.0001H321V24.0001H318V27.0001Z" fill="black"/>
<circle cx="340.5" cy="37.5" r="4.5" fill="black"/>
<rect x="339" y="36" width="1" height="1" fill="white"/>
<rect x="340" y="35" width="1" height="1" fill="white"/>
<rect x="340" y="36" width="1" height="1" fill="white"/>
<rect x="340" y="37" width="1" height="1" fill="white"/>
<rect x="340" y="38" width="1" height="1" fill="white"/>
<rect x="340" y="39" width="1" height="1" fill="white"/>
<path fill-rule="evenodd" clip-rule="evenodd" d="M383 9H380V13.1429H383V9ZM386 13.143H383V17.2861H374V21.4289H383V25.5709H380V29.7138H383V25.5716H386V21.4289H389V17.2861H386V13.143ZM371 21.4291H374V33.8576H371V37.9998H359V33.857H371V21.4291ZM359 17.2861H368V21.4289H359V17.2861ZM389 37.9998V33.857H377V37.9998H389Z" fill="black"/>
</g>
<defs>
<clipPath id="clip0_203_18431">
<rect width="398" height="48" fill="white"/>
</clipPath>
</defs>
</svg>
