<svg width="448" height="48" viewBox="0 0 448 48" fill="none" xmlns="http://www.w3.org/2000/svg">
<g clip-path="url(#clip0_203_18431)">
<path d="M36 22V20H34V18H30V14H26V10H22V6H10V42H22V40V38H26V34H30V30H34V28H36V26H38V22H36ZM26 26V30H22V34H18V38H14V10H18V14H22V18H26V22H30V26H26Z" fill="black"/>
<path fill-rule="evenodd" clip-rule="evenodd" d="M64 40V8H70V40H64ZM78 40V8H84V40H78Z" fill="black"/>
<path fill-rule="evenodd" clip-rule="evenodd" d="M108 6H112V42H108V6ZM124 10H128V6H140V42H128V38H124V34H120V30H116V28H114V20H116V18H120V14H124V10ZM120 22V26H124V30H128V34H132V38H136V10H132V14H128V18H124V22H120Z" fill="black"/>
<path fill-rule="evenodd" clip-rule="evenodd" d="M158 6H170V10H174V14H178V18H182V20H184V28H182V30H178V34H174V38H170V42H158V6ZM174 30V26H178V22H174V18H170V14H166V10H162V38H166V34H170V30H174ZM186 6H190V42H186V6Z" fill="black"/>
<path fill-rule="evenodd" clip-rule="evenodd" d="M208 12H240V16H208V12ZM208 22.0001H240V26.0001H208V22.0001ZM240 32.0001H208V36.0001H240V32.0001Z" fill="black"/>
<path fill-rule="evenodd" clip-rule="evenodd" d="M280.5 6H277V9.5H280.5V6ZM284 9.50008H280.5V13H259.5V16.5H256V25.25H259.5V16.5H280.5V20.0001H284V16.5H287.5V13H284V9.50008ZM277 19.9999H280.5V23.4999H277V19.9999ZM263 37.4999H266.5V34H287.5V30.5H291V21.75H287.5V30.5H266.5V26.9999H263V30.5H259.5V34H263V37.4999ZM270 41H266.5V37.5H270V41ZM266.5 27.0001H270V23.5001H266.5V27.0001Z" fill="black"/>
<path fill-rule="evenodd" clip-rule="evenodd" d="M330.5 7H327V10.5H330.5V7ZM334 10.5001H330.5V14H309.5V17.5H306V26.25H309.5V17.5H330.5V21.0001H334V17.5H337.5V14H334V10.5001ZM327 20.9999H330.5V24.4999H327V20.9999ZM313 38.4999H316.5V35H337.5V31.5H341V22.75H337.5V31.5H316.5V27.9999H313V31.5H309.5V35H313V38.4999ZM320 42H316.5V38.5H320V42ZM316.5 28.0001H320V24.5001H316.5V28.0001Z" fill="black"/>
<circle cx="341.5" cy="40.5" r="4.5" fill="black"/>
<rect x="340" y="39" width="1" height="1" fill="#FFFBFB"/>
<rect x="341" y="38" width="1" height="1" fill="#FFFBFB"/>
<rect x="341" y="39" width="1" height="1" fill="#FFFBFB"/>
<rect x="341" y="40" width="1" height="1" fill="#FFFBFB"/>
<rect x="341" y="41" width="1" height="1" fill="#FFFBFB"/>
<rect x="341" y="42" width="1" height="1" fill="#FFFBFB"/>
<path fill-rule="evenodd" clip-rule="evenodd" d="M384 7H380.5V12H384V7ZM387.5 12.0003H384V17.0004H373.5V22.0004H384V26.9994H380.5V31.9994H384V27.0003H387.5V22.0004H391V17.0004H387.5V12.0003ZM370 22.0006H373.5V37.0006H370V41.9997H356V36.9997H370V22.0006ZM356 17.0004H366.5V22.0004H356V17.0004ZM391 41.9997V36.9997H377V41.9997H391Z" fill="black"/>
<path fill-rule="evenodd" clip-rule="evenodd" d="M409 9H413.286V13.2857H417.571V17.5714H413.286V13.2857H409V9ZM413.286 34.7143H409V39H413.286V34.7143ZM434.714 34.7143H439V39H434.714V34.7143ZM421.857 17.5714H417.572V21.8571H421.857V26.1429H417.571V30.4286L413.286 30.4286V34.7143H417.572V30.4286L421.857 30.4286V26.1429H426.143V30.4286L430.428 30.4286V34.7143H434.714V30.4286L430.429 30.4286V26.1429H426.143V21.8571H430.428V17.5714H426.143V21.8571H421.857V17.5714ZM430.429 13.2857H434.714V9H439V13.2857H434.714V17.5714H430.429V13.2857Z" fill="black"/>
</g>
<defs>
<clipPath id="clip0_203_18431">
<rect width="448" height="48" fill="white"/>
</clipPath>
</defs>
</svg>
