<svg width="160" height="24" viewBox="0 0 160 24" fill="none" xmlns="http://www.w3.org/2000/svg">
<path d="M7.05006 20.5089H6V10.1456H7.05006L11.2199 2.50064C11.6054 1.79398 12.3186 1.35852 13.0905 1.35852C14.4018 1.35852 15.4103 2.58354 15.2286 3.95571L14.8266 6.99301H18.2388C19.7306 6.99301 22.7143 8.56928 22.7143 11.7218C22.7143 14.8744 19.7143 22.0851 16.5408 22.0851C12.3637 22.0851 8.79053 21.0343 7.05006 20.5089Z" fill="white"/>
<path fill-rule="evenodd" clip-rule="evenodd" d="M13.0904 2.71698C12.7782 2.71698 12.4897 2.89311 12.3338 3.17894L8.16396 10.8239C7.97431 11.1716 7.65143 11.409 7.28566 11.481V19.1734C7.32522 19.1812 7.36444 19.1909 7.40322 19.2026C9.12444 19.7222 12.553 20.7266 16.5408 20.7266C16.8669 20.7266 17.3475 20.5335 17.9619 19.9211C18.5604 19.3244 19.1573 18.4534 19.6917 17.4296C20.7811 15.3426 21.4285 12.9832 21.4285 11.7218C21.4285 10.6505 20.9356 9.83011 20.2327 9.23598C19.4892 8.60744 18.6462 8.35147 18.2387 8.35147H14.8265C14.4544 8.35147 14.1006 8.18117 13.8564 7.88456C13.6123 7.58795 13.5016 7.19412 13.5532 6.80479L13.9553 3.76749C14.0288 3.21247 13.6208 2.71698 13.0904 2.71698ZM6.87032 21.8673H5.99995C5.28987 21.8673 4.71423 21.2591 4.71423 20.5088V10.1455C4.71423 9.39525 5.28987 8.78703 5.99995 8.78703H6.30703L10.1059 1.82227C10.7209 0.694782 11.8588 0 13.0904 0C15.1826 0 16.7917 1.95454 16.5019 4.14387L16.3046 5.63448H18.2387C19.3231 5.63448 20.7179 6.16665 21.8391 7.11438C23.001 8.09653 23.9999 9.64051 23.9999 11.7218C23.9999 13.613 23.1474 16.4352 21.9434 18.7417C21.3311 19.9147 20.5831 21.0434 19.7265 21.8973C18.8858 22.7354 17.8014 23.4436 16.5408 23.4436C12.313 23.4436 8.69329 22.4149 6.87032 21.8673Z" fill="#4147D5"/>
<path d="M1.28577 9.7358C1.28577 8.3603 2.3411 7.24524 3.64291 7.24524V7.24524C4.94472 7.24524 6.00005 8.3603 6.00005 9.73581V20.1509C6.00005 21.5264 4.94472 22.6415 3.64291 22.6415V22.6415C2.3411 22.6415 1.28577 21.5264 1.28577 20.1509V9.7358Z" fill="#D7E0FF"/>
<path fill-rule="evenodd" clip-rule="evenodd" d="M0 9.7359C0 7.61012 1.63096 5.88684 3.64286 5.88684C5.65475 5.88684 7.28571 7.61012 7.28571 9.7359V20.151C7.28571 22.2768 5.65475 24 3.64286 24C1.63096 24 0 22.2768 0 20.151V9.7359ZM3.64286 8.60382C3.05112 8.60382 2.57143 9.11067 2.57143 9.7359V20.151C2.57143 20.7762 3.05112 21.2831 3.64286 21.2831C4.23459 21.2831 4.71429 20.7762 4.71429 20.151V9.7359C4.71429 9.11067 4.23459 8.60382 3.64286 8.60382Z" fill="#4147D5"/>
<path d="M51.9999 4.83562C46.8232 -2.12039 41.3576 2.82215 41.2856 8.15011C41.2856 16.082 49.9514 22.5924 51.9999 22.5924C54.0483 22.5924 62.7141 16.082 62.7141 8.15011C62.6422 2.82215 57.1765 -2.12039 51.9999 4.83562Z" fill="#D7E0FF"/>
<path fill-rule="evenodd" clip-rule="evenodd" d="M45.7885 2.95151C44.4097 3.37661 43.2071 4.83618 42.7534 6.72666C42.5729 7.47876 41.8698 7.92822 41.1831 7.73054C40.4963 7.53287 40.0859 6.76293 40.2664 6.01083C40.8963 3.38633 42.6438 0.995514 45.0917 0.240791C47.3148 -0.444621 49.753 0.316347 51.9992 2.74066C53.1128 1.53643 54.2765 0.738185 55.4588 0.32721C57.016 -0.214119 58.5191 -0.0513244 59.8143 0.609666C62.3466 1.90195 63.9575 5.00564 63.9997 8.12887L64 8.14968H63.9998C63.9998 12.6648 61.5543 16.6164 59.0284 19.3473C57.7476 20.7321 56.3939 21.8613 55.2071 22.6532C54.6142 23.0488 54.0457 23.3718 53.5341 23.6004C53.0551 23.8145 52.5091 24 51.9999 24C51.4059 24 50.7424 23.7457 50.1566 23.4544C49.5257 23.1405 48.8143 22.6956 48.075 22.1476C46.5969 21.0521 44.9323 19.4893 43.5014 17.5907C43.0495 16.991 43.127 16.1035 43.6746 15.6085C44.2223 15.1135 45.0326 15.1984 45.4846 15.7981C46.7434 17.4683 48.2196 18.8543 49.5163 19.8154C50.1643 20.2957 50.7487 20.6559 51.2199 20.8903C51.4555 21.0075 51.6485 21.086 51.7965 21.1334C51.9226 21.1738 51.9865 21.1819 51.9996 21.1835C52.011 21.1822 52.0548 21.1766 52.1372 21.1533C52.2439 21.1232 52.3858 21.0721 52.5626 20.993C52.917 20.8347 53.3616 20.587 53.8692 20.2483C54.8834 19.5716 56.0802 18.5775 57.2219 17.3432C59.5386 14.8385 61.4245 11.5731 61.4284 8.16023C61.3952 5.95946 60.2386 3.933 58.7282 3.16223C58.0009 2.79109 57.1625 2.6895 56.2367 3.01132C55.2936 3.33917 54.1777 4.1375 52.9965 5.72474C52.7523 6.05284 52.3863 6.24324 51.9999 6.24324C51.6134 6.24324 51.2474 6.05284 51.0032 5.72474C48.9202 2.92578 47.0584 2.55998 45.7885 2.95151Z" fill="#4147D5"/>
<path fill-rule="evenodd" clip-rule="evenodd" d="M47.7941 6.84123C48.2262 6.87069 48.6158 7.13632 48.8306 7.54797L51.2883 12.2583L52.6857 10.2178C52.9285 9.86326 53.3095 9.6546 53.7142 9.6546H56.2856C56.9957 9.6546 57.5714 10.285 57.5714 11.0626C57.5714 11.8403 56.9957 12.4707 56.2856 12.4707H54.3571L52.1714 15.6623C51.9116 16.0416 51.495 16.2522 51.0629 16.2228C50.6308 16.1933 50.2413 15.9277 50.0265 15.516L47.5688 10.8057L46.1714 12.8462C45.9286 13.2007 45.5475 13.4094 45.1428 13.4094H41.2857C40.5756 13.4094 40 12.779 40 12.0013C40 11.2237 40.5756 10.5933 41.2857 10.5933H44.5L46.6857 7.40173C46.9454 7.02243 47.3621 6.81177 47.7941 6.84123Z" fill="#4147D5"/>
<path d="M99.2388 9.36981C99.1646 9.34197 99.0983 9.28801 99.0476 9.21432C98.997 9.14062 98.9643 9.05026 98.9531 8.9539C98.8204 7.12369 98.1927 5.40604 97.1748 4.0874C96.1569 2.76876 94.8103 1.92883 93.3596 1.70769C91.9089 1.48654 90.4417 1.89754 89.2028 2.87215C87.9639 3.84676 87.0281 5.32607 86.5514 7.06338C86.5199 7.14439 86.4706 7.21236 86.4093 7.25926C86.3481 7.30615 86.2774 7.33003 86.2057 7.32805C85.5148 7.3864 84.8397 7.61531 84.2192 8.00174C83.5986 8.38817 83.0446 8.92454 82.5888 9.58022C81.6684 10.9044 81.2039 12.6342 81.2976 14.3891C81.3913 16.144 82.0355 17.7802 83.0884 18.9378C87.0467 23.2894 97.2242 23.6232 101.219 19.1088C102.04 18.1811 102.562 16.9071 102.686 15.528C102.81 14.1489 102.528 12.7605 101.892 11.6256C101.257 10.4907 100.313 9.68808 99.2388 9.36981Z" fill="#D7E0FF"/>
<path fill-rule="evenodd" clip-rule="evenodd" d="M88.5306 1.46618C90.0174 0.296564 91.7751 -0.19475 93.5113 0.0699169C95.2476 0.334604 96.8637 1.34042 98.0883 2.92692C99.1631 4.31929 99.8793 6.08536 100.147 7.99296C101.265 8.49536 102.242 9.42311 102.937 10.6636C103.757 12.1294 104.124 13.9277 103.963 15.7172C103.802 17.5063 103.125 19.1522 102.069 20.3463C99.7168 23.0042 95.7828 24.0624 92.1221 23.9972C88.4552 23.9318 84.5626 22.7306 82.2517 20.1901C80.9403 18.7484 80.1324 16.7035 80.0149 14.5018C79.8973 12.2999 80.4807 10.1348 81.6292 8.48259C82.1975 7.66487 82.8871 6.99783 83.6577 6.51802C84.2635 6.14078 84.9105 5.8848 85.5754 5.75748C86.1972 3.98849 87.226 2.4925 88.5306 1.46618ZM93.2078 3.34545C92.0426 3.16782 90.8659 3.49851 89.8749 4.27812C88.8843 5.05736 88.1415 6.23563 87.7642 7.6109L87.7375 7.70811L87.7016 7.8003C87.559 8.16653 87.338 8.4689 87.0681 8.67553C86.8213 8.8645 86.5417 8.96727 86.2571 8.97673C85.7428 9.02552 85.2414 9.19852 84.7806 9.48546C84.31 9.7785 83.8916 10.1842 83.5484 10.6778C82.856 11.674 82.5105 12.9686 82.5803 14.2764C82.6501 15.5845 83.1306 16.812 83.925 17.6855C85.5724 19.4965 88.7477 20.6381 92.1578 20.6989C95.5741 20.7598 98.7261 19.7277 100.369 17.8712C100.954 17.21 101.321 16.3079 101.408 15.3389C101.496 14.3702 101.298 13.3916 100.848 12.5875C100.397 11.7825 99.7232 11.2061 98.9494 10.9768L98.9133 10.9661L98.8777 10.9527C98.5724 10.8381 98.2959 10.6148 98.0828 10.3045C97.8695 9.99387 97.7289 9.60927 97.6812 9.19508L97.6761 9.15105L97.6729 9.10673C97.568 7.66067 97.0718 6.29804 96.2611 5.24787C95.45 4.19709 94.3729 3.52306 93.2078 3.34545Z" fill="#4147D5"/>
<path fill-rule="evenodd" clip-rule="evenodd" d="M84.6741 7.33374C84.6741 6.42286 85.2497 5.68445 85.9598 5.68445C87.2582 5.68445 88.4567 6.23026 89.4088 6.9941C90.3456 7.74563 91.1437 8.78972 91.5611 9.93256C91.8623 10.7574 91.5853 11.7393 90.9422 12.1258C90.2992 12.5122 89.5338 12.1568 89.2325 11.3319C89.0748 10.9 88.6736 10.2948 88.0454 9.79079C87.4324 9.29908 86.7 8.98303 85.9598 8.98303C85.2497 8.98303 84.6741 8.24462 84.6741 7.33374Z" fill="#4147D5"/>
<path d="M121.902 15.1603C122.038 15.9314 122.628 16.5523 123.393 16.6449C126.123 16.9758 129.032 17.0944 132 17.0944C134.975 17.0944 137.834 16.9752 140.602 16.6428C141.369 16.5507 141.962 15.9291 142.096 15.1554C142.377 13.5307 142.714 12.0984 142.714 9.20145C142.714 6.20035 142.567 4.72934 142.179 3.04952C142.022 2.36899 141.457 1.8684 140.775 1.78701C137.995 1.45544 135.029 1.30847 132 1.30847C128.964 1.30847 125.99 1.41647 123.205 1.77538C122.533 1.86202 121.981 2.36047 121.822 3.03078C121.418 4.73464 121.286 6.05662 121.286 9.20145C121.286 12.2049 121.622 13.5713 121.902 15.1603Z" fill="#D7E0FF"/>
<path fill-rule="evenodd" clip-rule="evenodd" d="M132 2.61707C128.989 2.61707 126.075 2.72451 123.367 3.07361C123.22 3.09256 123.105 3.2006 123.072 3.33802C122.702 4.89927 122.571 6.10548 122.571 9.20151C122.571 11.6867 122.806 12.9605 123.053 14.2992C123.091 14.506 123.13 14.7143 123.168 14.9289C123.214 15.1917 123.398 15.3278 123.545 15.3456C126.208 15.6683 129.062 15.786 132 15.786C134.943 15.786 137.749 15.6679 140.451 15.3433C140.603 15.3252 140.785 15.187 140.83 14.9287C140.868 14.7088 140.906 14.4947 140.945 14.2822C141.193 12.9057 141.429 11.5954 141.429 9.20151C141.429 6.25343 141.284 4.89309 140.928 3.34902C140.898 3.21903 140.784 3.1057 140.625 3.08671C137.905 2.76223 134.99 2.61707 132 2.61707ZM123.044 0.477281C125.904 0.108557 128.939 0 132 0C135.068 0 138.086 0.148769 140.924 0.487438C142.13 0.631227 143.146 1.51907 143.431 2.75014C143.85 4.56571 144 6.1474 144 9.20151C144 11.8394 143.727 13.352 143.473 14.7582C143.436 14.9674 143.398 15.1743 143.362 15.3821C143.14 16.6713 142.135 17.7764 140.753 17.9424C137.92 18.2827 135.007 18.403 132 18.403C129.001 18.403 126.038 18.2833 123.241 17.9443C121.859 17.7769 120.863 16.6712 120.637 15.3917C120.601 15.1884 120.564 14.9867 120.526 14.7828C120.272 13.4081 120 11.9341 120 9.20151C120 6.00789 120.134 4.57013 120.573 2.72366C120.858 1.52047 121.846 0.631608 123.044 0.477281Z" fill="#4147D5"/>
<path d="M129.667 17.0944H134.333L135.619 22.6911H128.381L129.667 17.0944Z" fill="#D7E0FF"/>
<path fill-rule="evenodd" clip-rule="evenodd" d="M128.415 16.7965C128.551 16.2046 129.069 15.7859 129.667 15.7859H134.333C134.93 15.7859 135.449 16.2046 135.585 16.7965L136.871 22.3933C136.96 22.7822 136.87 23.1914 136.626 23.5043C136.382 23.8173 136.011 23.9997 135.619 23.9997H128.381C127.988 23.9997 127.618 23.8173 127.374 23.5043C127.13 23.1914 127.04 22.7822 127.129 22.3933L128.415 16.7965ZM130.686 18.403L130.002 21.3826H133.998L133.313 18.403H130.686Z" fill="#4147D5"/>
<path fill-rule="evenodd" clip-rule="evenodd" d="M124.299 22.6915C124.299 21.9688 124.874 21.3829 125.585 21.3829H138.416C139.126 21.3829 139.701 21.9688 139.701 22.6915C139.701 23.4142 139.126 24 138.416 24H125.585C124.874 24 124.299 23.4142 124.299 22.6915Z" fill="#4147D5"/>
</svg>
