<svg width="35" height="35" viewBox="0 0 35 35" fill="none" xmlns="http://www.w3.org/2000/svg">
<circle cx="17.5" cy="17.5" r="17.5" fill="black"/>
<rect x="8.75" y="8.11447" width="18.0469" height="18.0469" fill="white"/>
<path d="M6.49323 6.03206C6.85748 6.01015 7.22273 6.01015 7.58698 6.03206H28.1987C28.3043 6.01807 28.4118 6.02797 28.5131 6.0611C28.6144 6.09423 28.7069 6.14973 28.7839 6.22346C29.0573 6.50236 28.9589 6.91801 28.9753 7.26801C28.9753 14.2826 28.9753 21.3008 28.9753 28.3227C28.9731 28.419 28.9506 28.5137 28.9092 28.6007C28.8678 28.6877 28.8085 28.765 28.7352 28.8274C28.6619 28.8899 28.5762 28.9363 28.4837 28.9633C28.3913 28.9903 28.2941 28.9975 28.1987 28.9844H6.68464C6.59646 28.9882 6.50846 28.9738 6.42614 28.9419C6.34383 28.9101 6.26899 28.8616 6.20632 28.7994C6.14366 28.7373 6.09454 28.6628 6.06203 28.5808C6.02953 28.4987 6.01435 28.4109 6.01745 28.3227V6.69923C6.00616 6.54993 6.04758 6.40137 6.13452 6.27946C6.22145 6.15756 6.34839 6.07003 6.49323 6.03206V6.03206ZM11.2018 11.7414C11.2018 15.5695 11.2018 19.3977 11.2018 23.2258H15.5112C15.5112 21.3281 15.4839 19.3976 15.5112 17.5273C15.9815 18.1836 16.4135 18.8726 16.8948 19.5234C17.6987 20.7703 18.6065 21.9461 19.3776 23.2148C20.8214 23.2531 22.2651 23.2148 23.7143 23.2148C23.7143 23.0344 23.7417 22.8539 23.7417 22.668C23.7417 19.0148 23.7417 15.3562 23.7417 11.7305C22.3089 11.7305 20.8815 11.7305 19.4542 11.7305C19.4542 13.6391 19.4542 15.5586 19.4542 17.4562C18.1253 15.5695 16.8729 13.6281 15.5112 11.7578C14.0784 11.6977 12.6237 11.7414 11.2018 11.7414V11.7414Z" fill="black"/>
<path d="M8.77542 7.10938H26.2295C26.6701 7.10938 27.0926 7.28439 27.4041 7.59591C27.7156 7.90743 27.8906 8.32994 27.8906 8.77049V26.2246C27.8906 26.4434 27.8475 26.66 27.7638 26.8621C27.6801 27.0643 27.5574 27.2479 27.4026 27.4026C27.2479 27.5574 27.0643 27.6801 26.8621 27.7638C26.66 27.8475 26.4434 27.8906 26.2246 27.8906H8.77542C8.55664 27.8906 8.33999 27.8475 8.13785 27.7638C7.93572 27.6801 7.75206 27.5574 7.59735 27.4026C7.44264 27.2479 7.31992 27.0643 7.23619 26.8621C7.15247 26.66 7.10937 26.4434 7.10938 26.2246V8.77049C7.11068 8.32948 7.28679 7.90699 7.59909 7.59561C7.91139 7.28423 8.33441 7.10937 8.77542 7.10938V7.10938Z" fill="black"/>
<path d="M17.5506 8.44601C12.106 8.44601 7.71515 11.9586 7.71515 16.223C7.71515 18.991 9.54173 21.4147 12.2816 22.7987L11.3543 26.2622C11.3368 26.3141 11.3341 26.3698 11.3465 26.4232C11.3589 26.4765 11.3859 26.5254 11.4245 26.5642C11.4808 26.6139 11.5532 26.6413 11.6282 26.6415C11.6905 26.6365 11.7495 26.6119 11.7969 26.5713L15.7872 23.8806C16.3763 23.9619 16.97 24.0041 17.5646 24.007C23.0022 24.007 27.4001 20.4944 27.4001 16.223C27.4001 11.9516 22.9882 8.44601 17.5506 8.44601Z" fill="white"/>
<path d="M11.1572 14.9935H10.0824C9.94913 14.9974 9.81756 14.9633 9.70299 14.8952C9.65213 14.8633 9.6084 14.8213 9.57455 14.7717C9.5407 14.7221 9.51746 14.6661 9.50628 14.6071C9.50287 14.5697 9.50287 14.5322 9.50628 14.4948C9.50294 14.4248 9.51652 14.355 9.54588 14.2914C9.57523 14.2278 9.61948 14.1723 9.67489 14.1294C9.79737 14.0407 9.9452 13.9939 10.0964 13.9959H13.3351C13.4694 13.9912 13.6018 14.028 13.7144 14.1013C13.7665 14.1318 13.8112 14.1735 13.8452 14.2233C13.8792 14.2731 13.9017 14.3298 13.9112 14.3894C13.9146 14.4244 13.9146 14.4597 13.9112 14.4948C13.9145 14.5657 13.9009 14.6365 13.8716 14.7012C13.8423 14.7659 13.7981 14.8227 13.7425 14.867C13.623 14.9556 13.4766 15.0003 13.328 14.9935H12.2883V18.6889C12.2925 18.7676 12.2803 18.8463 12.2525 18.9201C12.2247 18.9938 12.1819 19.0611 12.1267 19.1174C12.0738 19.1713 12.0103 19.2135 11.9401 19.2413C11.8699 19.2691 11.7947 19.282 11.7193 19.279C11.5873 19.2827 11.4582 19.2406 11.3539 19.1596C11.2547 19.0805 11.1874 18.9682 11.1643 18.8434C11.1573 18.7921 11.1573 18.7401 11.1643 18.6889L11.1572 14.9935Z" fill="black"/>
<path d="M14.2213 14.2699C14.2522 14.1543 14.3247 14.0542 14.425 13.9889C14.5318 13.9283 14.6536 13.8991 14.7763 13.9046H15.0432C15.1734 13.8999 15.3023 13.9315 15.4156 13.9959C15.5356 14.0766 15.6208 14.1995 15.6544 14.3401L17.0595 18.3095C17.0959 18.413 17.1264 18.5186 17.1508 18.6257C17.1532 18.6701 17.1532 18.7146 17.1508 18.7591C17.1532 18.8276 17.1406 18.8957 17.1139 18.9588C17.0872 19.0219 17.0471 19.0784 16.9963 19.1244C16.947 19.1749 16.888 19.2146 16.8227 19.2412C16.7574 19.2678 16.6874 19.2806 16.6169 19.279C16.5085 19.2897 16.3997 19.2637 16.3079 19.2051C16.2162 19.1465 16.1468 19.0587 16.1111 18.9558L15.816 18.0917H13.9684L13.6733 18.9558C13.6384 19.0607 13.5682 19.1502 13.4747 19.2092C13.3812 19.2681 13.2701 19.2927 13.1604 19.279C13.0416 19.2821 12.9253 19.2449 12.8302 19.1736C12.7377 19.0999 12.6752 18.995 12.6546 18.8786C12.6509 18.8388 12.6509 18.7988 12.6546 18.7591C12.6426 18.6894 12.6426 18.6181 12.6546 18.5484C12.6546 18.4711 12.7038 18.3867 12.7319 18.3095L14.2213 14.2699ZM14.9238 15.1903L14.2564 17.2979H15.5842L14.9238 15.1903Z" fill="black"/>
<path d="M17.3117 14.4949C17.3046 14.3372 17.3601 14.1831 17.4663 14.0663C17.5202 14.0119 17.585 13.9694 17.6564 13.9415C17.7278 13.9137 17.8042 13.9011 17.8808 13.9047C18.0124 13.9031 18.1408 13.9451 18.2461 14.0241C18.3436 14.1065 18.4085 14.2212 18.4287 14.3473C18.4356 14.3962 18.4356 14.4459 18.4287 14.4949V18.1902H20.3607C20.4946 18.1884 20.6262 18.2249 20.7401 18.2955C20.7912 18.327 20.8352 18.369 20.869 18.4186C20.9029 18.4683 20.926 18.5244 20.9368 18.5835C20.9368 18.5835 20.9368 18.6538 20.9368 18.6889C20.9401 18.7589 20.9265 18.8286 20.8972 18.8922C20.8678 18.9558 20.8236 19.0114 20.7682 19.0543C20.6457 19.143 20.4979 19.1897 20.3466 19.1877H17.9721C17.8209 19.1974 17.6705 19.1581 17.5435 19.0754C17.43 18.9904 17.3543 18.8643 17.3328 18.7241C17.3276 18.6469 17.3276 18.5694 17.3328 18.4922L17.3117 14.4949Z" fill="black"/>
<path d="M21.0633 14.4949C21.0591 14.3377 21.1143 14.1847 21.2179 14.0664C21.3232 13.9707 21.4583 13.9142 21.6003 13.9065C21.7424 13.8988 21.8827 13.9404 21.9977 14.0242C22.0974 14.1058 22.1647 14.2204 22.1874 14.3473C22.1909 14.3964 22.1909 14.4458 22.1874 14.4949V16.2161L23.9648 14.1646C24.0333 14.0947 24.106 14.029 24.1826 13.968C24.2547 13.925 24.3375 13.9031 24.4214 13.9047C24.5442 13.904 24.6643 13.9408 24.7657 14.0101C24.8135 14.0423 24.8542 14.0838 24.8856 14.132C24.917 14.1803 24.9383 14.2344 24.9483 14.2911C24.9512 14.305 24.9512 14.3194 24.9483 14.3333C24.9449 14.3495 24.9449 14.3662 24.9483 14.3825C24.9481 14.4564 24.9287 14.529 24.8921 14.5933C24.8549 14.6613 24.8101 14.7248 24.7587 14.7829L23.5925 16.0615L24.9975 18.2394V18.3096C25.0705 18.4103 25.1274 18.5217 25.1661 18.6398V18.6749C25.1743 18.7563 25.1625 18.8385 25.1319 18.9144C25.1013 18.9902 25.0528 19.0575 24.9905 19.1105C24.8733 19.1991 24.7299 19.2461 24.583 19.244C24.4854 19.248 24.3885 19.2262 24.302 19.1807C24.2084 19.118 24.1313 19.0337 24.0772 18.9348L22.7705 16.8273L22.1452 17.4806V18.6538C22.1495 18.811 22.0943 18.964 21.9907 19.0824C21.9352 19.1366 21.8691 19.179 21.7966 19.2068C21.7241 19.2346 21.6467 19.2473 21.5692 19.244C21.4395 19.2467 21.313 19.2045 21.2109 19.1245C21.1116 19.0454 21.0443 18.9332 21.0212 18.8084C21.0143 18.7572 21.0143 18.7051 21.0212 18.6538L21.0633 14.4949Z" fill="black"/>
</svg>
