<svg width="35" height="35" viewBox="0 0 35 35" fill="none" xmlns="http://www.w3.org/2000/svg">
<g clip-path="url(#clip0_1870_1720)">
<g clip-path="url(#clip1_1870_1720)">
<path d="M6.50273 6.13666C7.59065 7.02041 7.99898 6.95332 10.0436 6.81624L29.3154 5.65978C29.7238 5.65978 29.384 5.25145 29.2484 5.18437L26.0459 2.86999C25.4334 2.39457 24.6152 1.84916 23.049 1.98478L4.38961 3.34686C3.71002 3.41395 3.57294 3.7552 3.84419 4.02645L6.50273 6.13666ZM7.65919 10.6283V30.905C7.65919 31.9944 8.20315 32.4027 9.42961 32.3342L30.609 31.1092C31.8354 31.0421 31.9725 30.2925 31.9725 29.4073V9.26624C31.9725 8.38249 31.6327 7.90562 30.8817 7.9727L8.74857 9.26624C7.9319 9.33478 7.65919 9.74312 7.65919 10.6269V10.6283ZM28.5673 11.7148C28.7029 12.3273 28.5673 12.9398 27.9548 13.0098L26.934 13.2139V28.1823C26.0473 28.6592 25.2306 28.9319 24.5496 28.9319C23.4588 28.9319 23.1861 28.5906 22.3694 27.5712L15.6946 17.0917V27.23L17.8063 27.7083C17.8063 27.7083 17.8063 28.9333 16.1029 28.9333L11.4042 29.2046C11.2686 28.9333 11.4042 28.2523 11.8811 28.1167L13.1061 27.7769V14.3704L11.4071 14.2333C11.27 13.6208 11.6113 12.7371 12.5636 12.6685L17.6036 12.3287L24.5511 22.944V13.5523L22.7792 13.3496C22.6436 12.6 23.1875 12.056 23.8686 11.9889L28.5673 11.7148ZM2.82336 1.50936L22.2338 0.0801976C24.6167 -0.123969 25.2306 0.0116559 26.7284 1.10103L32.9248 5.45562C33.9456 6.20374 34.2869 6.40791 34.2869 7.22457V31.1092C34.2869 32.6054 33.7429 33.4921 31.8369 33.6262L9.29398 34.9883C7.86482 35.0569 7.18232 34.8527 6.43273 33.899L1.86961 27.9781C1.05294 26.8887 0.71315 26.0735 0.71315 25.1198V3.88936C0.71315 2.66582 1.25857 1.64353 2.82336 1.50936Z" fill="black"/>
</g>
</g>
<defs>
<clipPath id="clip0_1870_1720">
<rect width="35" height="35" fill="white"/>
</clipPath>
<clipPath id="clip1_1870_1720">
<rect width="35" height="35" fill="white"/>
</clipPath>
</defs>
</svg>
