<svg width="35" height="35" viewBox="0 0 35 35" fill="none" xmlns="http://www.w3.org/2000/svg">
<g clip-path="url(#clip0_1870_1734)">
<path d="M17.5 0C7.83398 0 0 7.83398 0 17.5C0 24.917 4.61426 31.2471 11.1221 33.7969C10.9717 32.4092 10.8281 30.29 11.1836 28.7793C11.5049 27.4121 13.2344 20.084 13.2344 20.084C13.2344 20.084 12.708 19.0381 12.708 17.4863C12.708 15.0527 14.1162 13.2344 15.873 13.2344C17.3633 13.2344 18.0879 14.3555 18.0879 15.7021C18.0879 17.2061 17.1309 19.4482 16.6387 21.5264C16.2285 23.2695 17.5137 24.6914 19.2295 24.6914C22.3398 24.6914 24.7324 21.4102 24.7324 16.6797C24.7324 12.4893 21.7246 9.55664 17.4248 9.55664C12.4482 9.55664 9.52246 13.2891 9.52246 17.1514C9.52246 18.6553 10.1035 20.2686 10.8281 21.1436C10.9717 21.3145 10.9922 21.4717 10.9512 21.6426C10.8213 22.1963 10.5205 23.3857 10.4658 23.625C10.3906 23.9463 10.2129 24.0146 9.87793 23.8574C7.69043 22.8389 6.32324 19.6465 6.32324 17.0762C6.32324 11.5527 10.3359 6.48731 17.8828 6.48731C23.9531 6.48731 28.6699 10.8145 28.6699 16.5977C28.6699 22.627 24.8691 27.4805 19.5918 27.4805C17.8213 27.4805 16.1533 26.5576 15.5791 25.4707C15.5791 25.4707 14.7041 28.8135 14.4922 29.6338C14.0957 31.1514 13.0293 33.0586 12.3184 34.2207C13.959 34.7266 15.6953 35 17.5 35C27.166 35 35 27.166 35 17.5C35 7.83398 27.166 0 17.5 0Z" fill="black"/>
</g>
<defs>
<clipPath id="clip0_1870_1734">
<rect width="35" height="35" fill="white"/>
</clipPath>
</defs>
</svg>
