<svg width="300" height="13" viewBox="0 0 300 13" fill="none" xmlns="http://www.w3.org/2000/svg">
<g clip-path="url(#clip0_2035_2393)">
<path d="M6.71053 0L8.21713 4.83688H13.0926L9.14827 7.82624L10.6549 12.6631L6.71053 9.67376L2.76618 12.6631L4.27278 7.82624L0.328436 4.83688H5.20392L6.71053 0Z" fill="#FFE600"/>
<path d="M24.6053 0L26.1119 4.83688H30.9874L27.043 7.82624L28.5496 12.6631L24.6053 9.67376L20.661 12.6631L22.1676 7.82624L18.2232 4.83688H23.0987L24.6053 0Z" fill="#FFE600"/>
<path d="M42.5 0L44.0066 4.83688H48.8821L44.9378 7.82624L46.4444 12.6631L42.5 9.67376L38.5557 12.6631L40.0623 7.82624L36.1179 4.83688H40.9934L42.5 0Z" fill="#FFE600"/>
<path d="M60.3947 0L61.9013 4.83688H66.7768L62.8325 7.82624L64.3391 12.6631L60.3947 9.67376L56.4504 12.6631L57.957 7.82624L54.0126 4.83688H58.8881L60.3947 0Z" fill="#FFE600"/>
<path d="M78.2894 0L79.7961 4.83688H84.6715L80.7272 7.82624L82.2338 12.6631L78.2894 9.67376L74.3451 12.6631L75.8517 7.82624L71.9074 4.83688H76.7828L78.2894 0Z" fill="#FFE600"/>
<path d="M106.711 0L108.217 4.83686H113.093L109.148 7.8262L110.655 12.6631L106.711 9.67371L102.766 12.6631L104.273 7.8262L100.328 4.83686H105.204L106.711 0Z" fill="#FFE600"/>
<path d="M124.605 0L126.112 4.83686H130.987L127.043 7.8262L128.55 12.6631L124.605 9.67371L120.661 12.6631L122.167 7.8262L118.223 4.83686H123.099L124.605 0Z" fill="#FFE600"/>
<path d="M142.5 0L144.007 4.83686H148.882L144.938 7.8262L146.444 12.6631L142.5 9.67371L138.556 12.6631L140.062 7.8262L136.118 4.83686H140.993L142.5 0Z" fill="#FFE600"/>
<path d="M160.395 0L161.901 4.83686H166.777L162.832 7.8262L164.339 12.6631L160.395 9.67371L156.45 12.6631L157.957 7.8262L154.013 4.83686H158.888L160.395 0Z" fill="#FFE600"/>
<path d="M178.29 0.840642L179.557 4.9112L179.612 5.08686H179.796H183.928L180.576 7.62696L180.436 7.73297L180.489 7.90055L181.763 11.9927L178.441 9.47447L178.29 9.36003L178.139 9.47447L174.816 11.9927L176.09 7.90055L176.143 7.73297L176.003 7.62696L172.651 5.08686H176.783H176.967L177.022 4.9112L178.29 0.840642Z" stroke="#FFE600" stroke-width="0.5"/>
<path d="M206.711 0L208.217 4.83688H213.093L209.148 7.82624L210.655 12.6631L206.711 9.67376L202.766 12.6631L204.273 7.82624L200.328 4.83688H205.204L206.711 0Z" fill="#FFE600"/>
<path d="M224.605 0L226.112 4.83688H230.987L227.043 7.82624L228.55 12.6631L224.605 9.67376L220.661 12.6631L222.168 7.82624L218.223 4.83688H223.099L224.605 0Z" fill="#FFE600"/>
<path d="M242.5 0L244.007 4.83688H248.882L244.938 7.82624L246.444 12.6631L242.5 9.67376L238.556 12.6631L240.062 7.82624L236.118 4.83688H240.993L242.5 0Z" fill="#FFE600"/>
<path d="M260.395 0L261.901 4.83688H266.777L262.832 7.82624L264.339 12.6631L260.395 9.67376L256.45 12.6631L257.957 7.82624L254.013 4.83688H258.888L260.395 0Z" fill="#FFE600"/>
<path d="M278.289 0L279.796 4.83688H284.672L280.727 7.82624L282.234 12.6631L278.289 9.67376L274.345 12.6631L275.852 7.82624L271.907 4.83688H276.783L278.289 0Z" fill="#FFE600"/>
</g>
<defs>
<clipPath id="clip0_2035_2393">
<rect width="300" height="13" fill="white"/>
</clipPath>
</defs>
</svg>
