<svg width="200" height="10" viewBox="0 0 200 10" fill="none" xmlns="http://www.w3.org/2000/svg">
<g clip-path="url(#clip0_2035_2376)">
<path d="M106 0L107.347 3.80041H111.706L108.18 6.14919L109.527 9.94959L106 7.60081L102.473 9.94959L103.82 6.14919L100.294 3.80041H104.653L106 0Z" fill="#FFE600"/>
<path d="M122 0L123.347 3.80041H127.706L124.18 6.14919L125.527 9.94959L122 7.60081L118.473 9.94959L119.82 6.14919L116.294 3.80041H120.653L122 0Z" fill="#FFE600"/>
<path d="M138 0L139.347 3.80041H143.706L140.18 6.14919L141.527 9.94959L138 7.60081L134.473 9.94959L135.82 6.14919L132.294 3.80041H136.653L138 0Z" fill="#FFE600"/>
<path d="M154 0L155.347 3.80041H159.706L156.18 6.14919L157.527 9.94959L154 7.60081L150.473 9.94959L151.82 6.14919L148.294 3.80041H152.653L154 0Z" fill="#FFE600"/>
<path d="M170 0L171.347 3.80041H175.706L172.18 6.14919L173.527 9.94959L170 7.60081L166.473 9.94959L167.82 6.14919L164.294 3.80041H168.653L170 0Z" fill="#FFE600"/>
<path d="M6 0L7.34708 3.80041H11.7063L8.17963 6.14919L9.52671 9.94959L6 7.60081L2.47329 9.94959L3.82037 6.14919L0.293661 3.80041H4.65292L6 0Z" fill="#FFE600"/>
<path d="M22 0L23.3471 3.80041H27.7063L24.1796 6.14919L25.5267 9.94959L22 7.60081L18.4733 9.94959L19.8204 6.14919L16.2937 3.80041H20.6529L22 0Z" fill="#FFE600"/>
<path d="M38 0L39.3471 3.80041H43.7063L40.1796 6.14919L41.5267 9.94959L38 7.60081L34.4733 9.94959L35.8204 6.14919L32.2937 3.80041H36.6529L38 0Z" fill="#FFE600"/>
<path d="M54 0L55.3471 3.80041H59.7063L56.1796 6.14919L57.5267 9.94959L54 7.60081L50.4733 9.94959L51.8204 6.14919L48.2937 3.80041H52.6529L54 0Z" fill="#FFE600"/>
<path d="M70 0.748299L71.1114 3.88393L71.1705 4.05041H71.3471H74.88L72.041 5.94111L71.8789 6.0491L71.944 6.23271L73.0401 9.32517L70.1386 7.39274L70 7.30044L69.8614 7.39274L66.9599 9.32517L68.056 6.23271L68.1211 6.0491L67.959 5.94111L65.12 4.05041H68.6529H68.8295L68.8886 3.88393L70 0.748299Z" stroke="#FFE600" stroke-width="0.5"/>
</g>
<defs>
<clipPath id="clip0_2035_2376">
<rect width="200" height="10" fill="white"/>
</clipPath>
</defs>
</svg>
