<svg width="150" height="32" viewBox="0 0 150 32" fill="none" xmlns="http://www.w3.org/2000/svg">
<path d="M9.936 19.5C9.87082 19.3854 9.7836 19.2847 9.67937 19.2039C9.57515 19.1231 9.45597 19.0637 9.32869 19.0292C9.20142 18.9946 9.06857 18.9856 8.93779 19.0026C8.80701 19.0196 8.68088 19.0623 8.56667 19.1282C8.45246 19.1942 8.35242 19.2821 8.27231 19.3868C8.19221 19.4916 8.13361 19.6112 8.0999 19.7387C8.06619 19.8662 8.05804 19.9991 8.0759 20.1297C8.09377 20.2604 8.1373 20.3862 8.204 20.5C8.99375 21.8687 10.1301 23.0052 11.4987 23.7952C12.8673 24.5852 14.4198 25.0007 16 25C17.5801 25.0003 19.1325 24.5846 20.501 23.7947C21.8695 23.0047 23.0059 21.8684 23.796 20.5C23.8627 20.3862 23.9062 20.2604 23.9241 20.1297C23.942 19.9991 23.9338 19.8662 23.9001 19.7387C23.8664 19.6112 23.8078 19.4916 23.7277 19.3868C23.6476 19.2821 23.5475 19.1942 23.4333 19.1282C23.3191 19.0623 23.193 19.0196 23.0622 19.0026C22.9314 18.9856 22.7986 18.9946 22.6713 19.0292C22.544 19.0637 22.4249 19.1231 22.3206 19.2039C22.2164 19.2847 22.1292 19.3854 22.064 19.5C21.4498 20.5647 20.5659 21.4487 19.5013 22.0632C18.4368 22.6776 17.2291 23.0007 16 23C14.7709 23.0007 13.5632 22.6776 12.4987 22.0632C11.4341 21.4487 10.5502 20.5647 9.936 19.5ZM14 10.232V10C14 9.46957 13.7893 8.96086 13.4142 8.58579C13.0391 8.21071 12.5304 8 12 8H6.56C6.25599 8.00001 5.95598 8.06932 5.68278 8.20267C5.40957 8.33602 5.17036 8.5299 4.98333 8.76957C4.7963 9.00924 4.66637 9.2884 4.60341 9.58582C4.54045 9.88324 4.54613 10.1911 4.62 10.486L5.242 12.97C5.45831 13.8354 5.95765 14.6036 6.66066 15.1526C7.36367 15.7016 8.23002 15.9999 9.122 16H10C11.0053 16.0002 11.9738 15.6219 12.7128 14.9404C13.4518 14.2589 13.9071 13.324 13.988 12.322C14.6353 12.1004 15.3159 11.9914 16 12C16.786 12 17.48 12.128 18.012 12.322C18.0929 13.324 18.5482 14.2589 19.2872 14.9404C20.0262 15.6219 20.9947 16.0002 22 16H22.876C23.768 15.9999 24.6343 15.7016 25.3373 15.1526C26.0404 14.6036 26.5397 13.8354 26.756 12.97L27.378 10.486C27.4518 10.1913 27.4575 9.88358 27.3947 9.58631C27.3318 9.28904 27.2021 9.00999 27.0153 8.77036C26.8285 8.53073 26.5895 8.33681 26.3166 8.20333C26.0436 8.06985 25.7438 8.00031 25.44 8H20C19.4696 8 18.9609 8.21071 18.5858 8.58579C18.2107 8.96086 18 9.46957 18 10V10.232C17.345 10.0751 16.6735 9.99725 16 10C15.3 10 14.62 10.08 14 10.232Z" fill="black"/>
<path d="M32 16C32 20.2435 30.3143 24.3131 27.3137 27.3137C24.3131 30.3143 20.2435 32 16 32C11.7565 32 7.68687 30.3143 4.68629 27.3137C1.68571 24.3131 0 20.2435 0 16C0 11.7565 1.68571 7.68687 4.68629 4.68629C7.68687 1.68571 11.7565 0 16 0C20.2435 0 24.3131 1.68571 27.3137 4.68629C30.3143 7.68687 32 11.7565 32 16ZM30 16C30 12.287 28.525 8.72601 25.8995 6.1005C23.274 3.475 19.713 2 16 2C12.287 2 8.72601 3.475 6.1005 6.1005C3.475 8.72601 2 12.287 2 16C2 19.713 3.475 23.274 6.1005 25.8995C8.72601 28.525 12.287 30 16 30C19.713 30 23.274 28.525 25.8995 25.8995C28.525 23.274 30 19.713 30 16Z" fill="black"/>
<path d="M59.936 19.5C59.8708 19.3854 59.7836 19.2847 59.6794 19.2039C59.5751 19.1231 59.456 19.0637 59.3287 19.0292C59.2014 18.9946 59.0686 18.9856 58.9378 19.0026C58.807 19.0196 58.6809 19.0623 58.5667 19.1282C58.4525 19.1942 58.3524 19.2821 58.2723 19.3868C58.1922 19.4916 58.1336 19.6112 58.0999 19.7387C58.0662 19.8662 58.058 19.9991 58.0759 20.1297C58.0938 20.2604 58.1373 20.3862 58.204 20.5C58.9938 21.8687 60.1301 23.0052 61.4987 23.7952C62.8673 24.5852 64.4198 25.0007 66 25C67.5801 25.0003 69.1325 24.5846 70.501 23.7947C71.8695 23.0047 73.0059 21.8684 73.796 20.5C73.8627 20.3862 73.9062 20.2604 73.9241 20.1297C73.942 19.9991 73.9338 19.8662 73.9001 19.7387C73.8664 19.6112 73.8078 19.4916 73.7277 19.3868C73.6476 19.2821 73.5475 19.1942 73.4333 19.1282C73.3191 19.0623 73.193 19.0196 73.0622 19.0026C72.9314 18.9856 72.7986 18.9946 72.6713 19.0292C72.544 19.0637 72.4249 19.1231 72.3206 19.2039C72.2164 19.2847 72.1292 19.3854 72.064 19.5C71.4498 20.5647 70.5659 21.4487 69.5013 22.0632C68.4368 22.6776 67.2291 23.0007 66 23C64.7709 23.0007 63.5632 22.6776 62.4987 22.0632C61.4341 21.4487 60.5502 20.5647 59.936 19.5ZM64 10.232V10C64 9.46957 63.7893 8.96086 63.4142 8.58579C63.0391 8.21071 62.5304 8 62 8H56.56C56.256 8.00001 55.956 8.06932 55.6828 8.20267C55.4096 8.33602 55.1704 8.5299 54.9833 8.76957C54.7963 9.00924 54.6664 9.2884 54.6034 9.58582C54.5405 9.88324 54.5461 10.1911 54.62 10.486L55.242 12.97C55.4583 13.8354 55.9576 14.6036 56.6607 15.1526C57.3637 15.7016 58.23 15.9999 59.122 16H60C61.0053 16.0002 61.9738 15.6219 62.7128 14.9404C63.4518 14.2589 63.9071 13.324 63.988 12.322C64.6353 12.1004 65.3159 11.9914 66 12C66.786 12 67.48 12.128 68.012 12.322C68.0929 13.324 68.5482 14.2589 69.2872 14.9404C70.0262 15.6219 70.9947 16.0002 72 16H72.876C73.768 15.9999 74.6343 15.7016 75.3373 15.1526C76.0404 14.6036 76.5397 13.8354 76.756 12.97L77.378 10.486C77.4518 10.1913 77.4575 9.88358 77.3947 9.58631C77.3318 9.28904 77.2021 9.00999 77.0153 8.77036C76.8285 8.53073 76.5895 8.33681 76.3166 8.20333C76.0436 8.06985 75.7438 8.00031 75.44 8H70C69.4696 8 68.9609 8.21071 68.5858 8.58579C68.2107 8.96086 68 9.46957 68 10V10.232C67.345 10.0751 66.6735 9.99725 66 10C65.3 10 64.62 10.08 64 10.232Z" fill="#DD2B2B"/>
<path d="M82 16C82 20.2435 80.3143 24.3131 77.3137 27.3137C74.3131 30.3143 70.2435 32 66 32C61.7565 32 57.6869 30.3143 54.6863 27.3137C51.6857 24.3131 50 20.2435 50 16C50 11.7565 51.6857 7.68687 54.6863 4.68629C57.6869 1.68571 61.7565 0 66 0C70.2435 0 74.3131 1.68571 77.3137 4.68629C80.3143 7.68687 82 11.7565 82 16ZM80 16C80 12.287 78.525 8.72601 75.8995 6.1005C73.274 3.475 69.713 2 66 2C62.287 2 58.726 3.475 56.1005 6.1005C53.475 8.72601 52 12.287 52 16C52 19.713 53.475 23.274 56.1005 25.8995C58.726 28.525 62.287 30 66 30C69.713 30 73.274 28.525 75.8995 25.8995C78.525 23.274 80 19.713 80 16Z" fill="#DD2B2B"/>
<path d="M109.936 19.5C109.871 19.3854 109.784 19.2847 109.679 19.2039C109.575 19.1231 109.456 19.0637 109.329 19.0292C109.201 18.9946 109.069 18.9856 108.938 19.0026C108.807 19.0196 108.681 19.0623 108.567 19.1282C108.452 19.1942 108.352 19.2821 108.272 19.3868C108.192 19.4916 108.134 19.6112 108.1 19.7387C108.066 19.8662 108.058 19.9991 108.076 20.1297C108.094 20.2604 108.137 20.3862 108.204 20.5C108.994 21.8687 110.13 23.0052 111.499 23.7952C112.867 24.5852 114.42 25.0007 116 25C117.58 25.0003 119.132 24.5846 120.501 23.7947C121.87 23.0047 123.006 21.8684 123.796 20.5C123.863 20.3862 123.906 20.2604 123.924 20.1297C123.942 19.9991 123.934 19.8662 123.9 19.7387C123.866 19.6112 123.808 19.4916 123.728 19.3868C123.648 19.2821 123.548 19.1942 123.433 19.1282C123.319 19.0623 123.193 19.0196 123.062 19.0026C122.931 18.9856 122.799 18.9946 122.671 19.0292C122.544 19.0637 122.425 19.1231 122.321 19.2039C122.216 19.2847 122.129 19.3854 122.064 19.5C121.45 20.5647 120.566 21.4487 119.501 22.0632C118.437 22.6776 117.229 23.0007 116 23C114.771 23.0007 113.563 22.6776 112.499 22.0632C111.434 21.4487 110.55 20.5647 109.936 19.5ZM114 10.232V10C114 9.46957 113.789 8.96086 113.414 8.58579C113.039 8.21071 112.53 8 112 8H106.56C106.256 8.00001 105.956 8.06932 105.683 8.20267C105.41 8.33602 105.17 8.5299 104.983 8.76957C104.796 9.00924 104.666 9.2884 104.603 9.58582C104.54 9.88324 104.546 10.1911 104.62 10.486L105.242 12.97C105.458 13.8354 105.958 14.6036 106.661 15.1526C107.364 15.7016 108.23 15.9999 109.122 16H110C111.005 16.0002 111.974 15.6219 112.713 14.9404C113.452 14.2589 113.907 13.324 113.988 12.322C114.635 12.1004 115.316 11.9914 116 12C116.786 12 117.48 12.128 118.012 12.322C118.093 13.324 118.548 14.2589 119.287 14.9404C120.026 15.6219 120.995 16.0002 122 16H122.876C123.768 15.9999 124.634 15.7016 125.337 15.1526C126.04 14.6036 126.54 13.8354 126.756 12.97L127.378 10.486C127.452 10.1913 127.458 9.88358 127.395 9.58631C127.332 9.28904 127.202 9.00999 127.015 8.77036C126.828 8.53073 126.59 8.33681 126.317 8.20333C126.044 8.06985 125.744 8.00031 125.44 8H120C119.47 8 118.961 8.21071 118.586 8.58579C118.211 8.96086 118 9.46957 118 10V10.232C117.345 10.0751 116.674 9.99725 116 10C115.3 10 114.62 10.08 114 10.232Z" fill="#A8FDB0"/>
<path d="M132 16C132 20.2435 130.314 24.3131 127.314 27.3137C124.313 30.3143 120.243 32 116 32C111.757 32 107.687 30.3143 104.686 27.3137C101.686 24.3131 100 20.2435 100 16C100 11.7565 101.686 7.68687 104.686 4.68629C107.687 1.68571 111.757 0 116 0C120.243 0 124.313 1.68571 127.314 4.68629C130.314 7.68687 132 11.7565 132 16ZM130 16C130 12.287 128.525 8.72601 125.899 6.1005C123.274 3.475 119.713 2 116 2C112.287 2 108.726 3.475 106.101 6.1005C103.475 8.72601 102 12.287 102 16C102 19.713 103.475 23.274 106.101 25.8995C108.726 28.525 112.287 30 116 30C119.713 30 123.274 28.525 125.899 25.8995C128.525 23.274 130 19.713 130 16Z" fill="#A8FDB0"/>
</svg>
